<?xml version="1.0" standalone="no"?>
<!DOCTYPE svg PUBLIC "-//W3C//DTD SVG 1.1//EN" "http://www.w3.org/Graphics/SVG/1.1/DTD/svg11.dtd" >
<svg xmlns="http://www.w3.org/2000/svg">
<metadata></metadata>
<defs>
<font id="pf_din_text_cond_proitalic" horiz-adv-x="1818" >
<font-face units-per-em="1000" ascent="750" descent="-250" />
<missing-glyph horiz-adv-x="210" />
<glyph unicode="fj" horiz-adv-x="431" d="M125 495l18 90q16 81 59.5 115t108.5 34q50 0 84.5 -17t54.5 -46l-55 -56q-12 18 -34.5 30t-53.5 12q-42 0 -59.5 -21t-24.5 -55l-17 -86h216l-104 -563q-6 -28 -16.5 -52.5t-27.5 -42.5t-41.5 -28t-58.5 -10h-39l15 75h11.5t10.5 1q30 0 45.5 16.5t21.5 45.5l93 491 h-139l-112 -578h-80l111 578h-55l13 67h55z" />
<glyph unicode="ffj" horiz-adv-x="655" d="M427 495h213l-102 -561q-5 -27 -15 -51.5t-27 -42.5t-42.5 -29t-62.5 -11h-18t-19 1l14 75q4 0 12 -0.5t11 0.5q32 1 47 21.5t22 54.5l91 476h-138l-112 -577h-80l112 577h-140l-112 -577h-80l112 577h-55l13 67h55l16 81q15 80 62 113.5t112 33.5q30 0 57 -6t45 -17 q26 22 55.5 31.5t65.5 9.5q49 0 84 -16.5t56 -46.5l-59 -55q-14 18 -34.5 30t-51.5 12q-38 0 -60 -19.5t-28 -52.5zM312 647q-40 0 -61.5 -19t-28.5 -53l-15 -80h139l19 98q2 10 4.5 19t5.5 17q-13 8 -28.5 13t-34.5 5z" />
<glyph unicode="ff" horiz-adv-x="479" d="M317 723q25 0 51 -5t43 -13q17 17 41 27t61 10q9 0 21 -1t20 -3l-12 -74q-15 3 -33 3q-19 0 -31 -7t-19.5 -18.5t-11 -25t-5.5 -25.5l-17 -97h90q-4 -17 -7 -33t-6 -33h-90l-112 -577h-80l111 577h-138l-112 -577h-80l111 577h-55q4 17 7 33t6 33h55l16 77 q16 81 61.5 116.5t114.5 35.5zM344 494l21 103q2 9 4 17t4 17q-12 8 -29.5 12t-35.5 4q-39 0 -59 -20.5t-28 -55.5l-15 -77h138z" />
<glyph unicode="fi" horiz-adv-x="431" d="M253 0l83 428h-141l-112 -578h-80l111 578h-55l13 67h55l18 90q16 83 61 116t108 33q51 0 87 -17t56 -46l-60 -56q-12 18 -33.5 30t-52.5 12q-38 0 -59 -21.5t-28 -55.5l-16 -85h221l-96 -495h-80z" />
<glyph unicode="fl" horiz-adv-x="455" d="M378 646q-14 7 -32 10t-31 3q-40 0 -61.5 -19.5t-28.5 -57.5l-17 -87h91l-13 -67h-91l-111 -578h-80l110 578h-55l13 67h55l18 90q16 81 60 116t111 35q20 0 61.5 -5.5t92.5 -25.5l-112 -573q-2 -6 -2 -11v-10q0 -18 10 -28.5t32 -10.5h16l-15 -75h-13q-50 0 -82.5 19.5 t-32.5 66.5q0 19 3 37z" />
<glyph unicode="ffi" horiz-adv-x="655" d="M473 0l82 428h-140l-111 -578h-81l111 578h-139l-111 -578h-81l111 578h-55l14 67h55l15 81q16 80 64 114t112 34q29 0 55.5 -6.5t44.5 -17.5q26 22 54.5 31.5t65.5 9.5q50 0 86 -16.5t56 -45.5l-61 -56q-12 18 -33.5 30t-52.5 12q-38 0 -59.5 -19.5t-27.5 -52.5l-19 -98 h221l-96 -495h-80zM312 647q-40 0 -61 -19t-27 -53l-16 -80h140l18 98q2 10 4.5 19.5t6.5 18.5q-25 16 -65 16z" />
<glyph unicode="ffl" horiz-adv-x="676" d="M324 723q59 0 96 -23q26 22 54.5 31.5t62.5 9.5q20 0 61.5 -5.5t92.5 -25.5q-26 -130 -43.5 -222t-29.5 -154t-19 -99t-11 -58t-6 -30t-3 -15q-2 -6 -2 -11v-10q0 -18 10 -28.5t32 -10.5h16l-15 -75h-13q-50 0 -82.5 19.5t-32.5 66.5q0 19 3 37l104 531q-14 7 -32 10 t-31 3q-40 0 -61.5 -19.5t-28.5 -57.5l-19 -92h91l-13 -67h-91l-111 -578h-81l112 578h-139l-112 -578h-80l111 578h-55l13 67h55l16 80q16 80 65 114t116 34zM314 647q-42 0 -63 -19.5t-27 -52.5l-16 -80h139l18 95q2 11 4.5 20.5t6.5 18.5q-13 8 -28 13t-34 5z" />
<glyph unicode="ft" horiz-adv-x="469" d="M348 494q6 32 12 63.5t13 63.5h80q-7 -32 -13 -63.5t-12 -63.5h69q-3 -17 -6 -33t-7 -33h-69l-57 -293q-2 -6 -2 -11.5v-10.5q0 -39 40 -39h27l-14 -74h-45q-48 0 -70.5 23.5t-22.5 60.5q0 13 3 28q15 80 30 158.5t31 157.5h-141l-110 -576h-81l111 576h-55q3 17 6 33 t7 33h54l18 91q6 29 15.5 55.5t26 46.5t42.5 31.5t65 11.5q9 0 19.5 -1t21.5 -3q-2 -14 -5.5 -37.5t-6.5 -37.5q-16 4 -33 4q-19 0 -31 -7.5t-18.5 -19t-10 -25.5l-6.5 -26l-17 -83h142z" />
<glyph unicode=" "  horiz-adv-x="210" />
<glyph unicode="&#x09;" horiz-adv-x="210" />
<glyph unicode="&#xa0;" horiz-adv-x="210" />
<glyph unicode="!" horiz-adv-x="235" d="M143 177h-63l93 519h79zM35 0l18 89h85l-18 -89h-85z" />
<glyph unicode="&#x22;" horiz-adv-x="280" d="M224 498l39 198h62l-39 -198h-62zM106 498l39 198h62l-39 -198h-62z" />
<glyph unicode="#" horiz-adv-x="440" d="M24 275h86l53 151h-77l11 55h86l77 216h57l-77 -216h100l77 216h57l-78 -216h81l-11 -55h-89l-54 -151h81l-11 -55h-90l-77 -220h-57l77 220h-100l-77 -220h-57l78 220h-77zM166 275h100l54 151h-100z" />
<glyph unicode="$" horiz-adv-x="440" d="M157 -4q-62 6 -94 41.5t-48 83.5l68 36q10 -29 30.5 -54.5t57.5 -30.5q13 63 25 124.5t24 124.5q-55 26 -90.5 61t-35.5 93q0 49 15 88.5t41 68t62.5 45t80.5 19.5l16 80h44q-5 -20 -8.5 -41t-7.5 -41q30 -3 52.5 -14t39 -27.5t26.5 -36t13 -40.5l-34 -18t-33 -18 q-4 12 -9.5 25t-15 23.5t-22.5 18t-32 10.5l-45 -228q30 -14 55.5 -28t43.5 -32t28 -41.5t10 -55.5q0 -54 -15.5 -97.5t-43.5 -74t-67.5 -47.5t-87.5 -19q-5 -25 -9.5 -49.5t-9.5 -49.5h-44zM328 216q0 33 -20.5 53t-46.5 34q-12 -59 -23 -116t-23 -116q54 8 83.5 48 t29.5 97zM179 484q0 -26 16 -44t42 -32q10 53 20 105t21 105q-23 -4 -41.5 -17t-31.5 -31.5t-19.5 -41t-6.5 -44.5z" />
<glyph unicode="%" horiz-adv-x="640" d="M113 -17h-61l512 730h62zM281 382q-10 -50 -38 -78.5t-82 -28.5q-23 0 -44.5 8t-37 23t-22.5 37t-1 50l38 199q10 49 41.5 78t79.5 29q25 0 46.5 -8.5t35.5 -24.5t20 -37.5t1 -47.5zM257 587q5 21 -8.5 37.5t-37.5 16.5q-23 0 -36.5 -14t-17.5 -35l-38 -204 q-5 -23 6 -39.5t39 -16.5q26 0 38 15t16 35zM584 102q-10 -50 -38 -78.5t-82 -28.5q-23 0 -44.5 8t-37 23t-22.5 37t-1 50l38 199q10 49 41.5 78t79.5 29q25 0 46.5 -8.5t35.5 -24.5t20 -37.5t1 -47.5zM560 307q5 21 -8.5 37.5t-37.5 16.5q-23 0 -36.5 -14t-17.5 -35 l-38 -204q-5 -23 6 -39.5t39 -16.5q26 0 38 15t16 35z" />
<glyph unicode="&#x26;" horiz-adv-x="502" d="M250 432q9 -24 22.5 -55t28 -63t28 -62.5t22.5 -54.5q17 25 27 52t19 53l71 -3q-11 -41 -32.5 -89t-50.5 -89l56 -121h-89l-28 60q-42 -38 -77.5 -52t-77.5 -14q-62 0 -99.5 40t-37.5 107q0 71 40.5 129.5t113.5 106.5q-9 30 -24 69.5t-15 89.5q0 34 12 64.5t34.5 53 t54 35.5t70.5 13q44 0 79 -17.5t54 -56.5l-64 -40q-11 25 -30.5 34.5t-46.5 9.5q-21 0 -36.5 -8.5t-26 -22t-15.5 -30.5t-5 -34q0 -44 23 -105zM215 312q-55 -40 -80 -81t-25 -84q0 -35 18 -58.5t56 -23.5q29 0 61 16.5t53 38.5z" />
<glyph unicode="'" horiz-adv-x="207" d="M128 498l38 198h62l-38 -198h-62z" />
<glyph unicode="(" horiz-adv-x="247" d="M139 -115q-40 66 -64 143.5t-24 163.5q0 76 20 150.5t54.5 143t79 129t94.5 109.5l37 -23q-46 -55 -84 -118t-65.5 -130.5t-42.5 -139t-15 -143.5q0 -69 13.5 -135t39.5 -123l-43 -27v0z" />
<glyph unicode=")" horiz-adv-x="247" d="M-39 -88q44 52 82 115t65.5 131.5t43 140.5t15.5 143q0 68 -14 134.5t-40 123.5q11 6 22.5 12t23.5 11q39 -65 62.5 -140.5t23.5 -161.5q0 -77 -20 -152t-54.5 -144t-80 -130t-96.5 -110z" />
<glyph unicode="*" horiz-adv-x="356" d="M334 442q-4 -3 -12.5 -8.5t-17.5 -11t-17.5 -11t-12.5 -8.5l-42 102q-5 -6 -16.5 -20.5t-24 -30.5t-24 -30.5t-16.5 -21.5q-3 3 -9.5 8.5t-13.5 11.5t-13.5 11t-9.5 8l95 92q-7 2 -21.5 6t-31 8.5t-31.5 8.5t-21 6q2 4 6 12.5t9 18t9.5 18t6.5 13.5l98 -45q1 7 3 24 t4.5 35.5t4 35t2.5 24.5h64l-33 -119q7 3 23.5 9t34 13t33.5 13.5t24 9.5q0 -5 1.5 -13.5t3 -18t3 -18t1.5 -12.5l-118 -29z" />
<glyph unicode="+" horiz-adv-x="440" d="M262 263l-35 -178h-61l34 178h-170l12 62h170l35 177h61l-34 -177h170l-12 -62h-170z" />
<glyph unicode="," horiz-adv-x="223" d="M41 -116h-47l50 112h-25l20 104h95l-20 -102z" />
<glyph unicode="-" horiz-adv-x="369" d="M57 241l14 71h274l-14 -71h-274z" />
<glyph unicode="." horiz-adv-x="218" d="M21 0l19 101h95l-19 -101h-95z" />
<glyph unicode="/" horiz-adv-x="287" d="M4 -42h-61l366 767h63z" />
<glyph unicode="0" horiz-adv-x="440" d="M364 159q-14 -74 -57 -119.5t-126 -45.5q-36 0 -67 12.5t-51.5 36.5t-29 59.5t0.5 80.5l68 353q16 80 63.5 123t121.5 43q33 0 63 -11.5t51 -34t30.5 -55.5t1.5 -76zM354 527q8 41 -14.5 69t-61.5 28t-63.5 -23t-32.5 -65l-68 -357q-10 -53 10 -80t62 -27q22 0 39 8 t28.5 20.5t18.5 28t10 30.5z" />
<glyph unicode="1" horiz-adv-x="440" d="M231 0h-80l119 611l-109 -73l17 86l107 72h81z" />
<glyph unicode="2" horiz-adv-x="440" d="M-4 0l14 76l294 350q26 33 40 65.5t14 59.5q0 30 -18.5 51.5t-58.5 21.5q-35 0 -64.5 -27.5t-40.5 -78.5l-80 15q19 79 70.5 123.5t125.5 44.5q65 0 107 -35t42 -105q1 -52 -21.5 -93.5t-53.5 -79.5l-259 -311h236l-15 -77h-332z" />
<glyph unicode="3" horiz-adv-x="440" d="M297 360q33 -17 44.5 -48t11.5 -57q0 -37 -8 -82.5t-31 -85.5t-64 -67t-107 -27q-29 0 -56 7.5t-47 23.5t-32 41.5t-12 61.5v14l82 12v-11q0 -35 18 -54.5t53 -19.5t58.5 15t38 39t20.5 54t6 60q0 39 -19 64.5t-67 25.5h-33l14 71h37q28 0 50.5 12.5t38.5 33.5t24 48.5 t8 58.5q0 29 -16.5 52t-54.5 23q-32 0 -61 -21.5t-40 -70.5l-78 14q9 39 26.5 68t42.5 48t55.5 28.5t63.5 9.5q72 0 108.5 -37.5t36.5 -92.5q0 -27 -4.5 -56.5t-17 -58t-34 -53.5t-55.5 -43z" />
<glyph unicode="4" horiz-adv-x="440" d="M339 108l-21 -108h-78l20 108h-249l15 76l289 512h83l-289 -514h166l38 199h79l-38 -199h52l-14 -74h-53z" />
<glyph unicode="5" horiz-adv-x="440" d="M185 68q44 0 67.5 28.5t34.5 73.5q8 32 16.5 71t8.5 71q0 33 -15 53t-55 20q-25 0 -48.5 -13.5t-40.5 -36.5h-75l70 361h317l-15 -76h-243l-39 -201h2q26 21 53.5 29.5t54.5 8.5q31 0 53.5 -9.5t36 -26t20 -39t6.5 -48.5q0 -30 -4 -59.5t-9 -58.5q-22 -133 -84 -186 q-43 -37 -122 -37q-33 0 -60.5 9t-47 27t-30.5 46t-9 66l82 12q0 -41 15 -63t60 -22z" />
<glyph unicode="6" horiz-adv-x="440" d="M237 332q-37 0 -60 -21t-34 -49q-10 -24 -16.5 -54.5t-6.5 -57.5q0 -16 3 -31t11 -26t21 -18t34 -7q35 0 57.5 18t33.5 47q14 40 20.5 75t6.5 52q0 31 -16 51.5t-54 20.5zM213 389l2 -2q14 8 32.5 12.5t33.5 4.5q30 0 50.5 -10t33.5 -27.5t19 -40.5t6 -48 q0 -9 -1.5 -25.5t-5 -37.5t-9.5 -45t-14 -47q-45 -129 -179 -129q-37 0 -64 11t-45 30t-27 44.5t-9 55.5q0 21 3.5 47.5t11 55t19 56.5t26.5 52l227 350h85q-72 -116 -118 -188.5t-77 -118.5z" />
<glyph unicode="7" horiz-adv-x="440" d="M115 0h-83l327 620h-175l-18 -94h-75l33 170h334l-14 -75z" />
<glyph unicode="8" horiz-adv-x="440" d="M295 702q69 0 106.5 -40.5t37.5 -103.5q-1 -19 -6 -48.5t-17 -59.5t-32 -54.5t-50 -33.5q15 -8 25 -20.5t16 -27.5t8.5 -30t2.5 -27t-1.5 -29t-5.5 -37t-9.5 -40.5t-13.5 -39.5q-21 -51 -63 -84t-112 -33q-31 0 -59 9t-49.5 27.5t-34 45.5t-12.5 63q0 13 3 44.5t14.5 67 t34 67t61.5 45.5q-22 16 -34 41t-12 54q0 20 4.5 45.5t17.5 66.5q20 64 67 98t113 34zM229 328q-36 0 -60 -19t-38 -46t-19.5 -56t-5.5 -48q0 -13 2.5 -29t10.5 -29.5t23.5 -23t41.5 -9.5q18 0 31.5 5t24 12.5t18 16t12.5 16.5q8 13 14.5 29.5t10.5 33t6.5 31.5t3.5 25 q0 38 -17 64.5t-59 26.5zM283 627q-26 0 -43.5 -10t-29.5 -26q-9 -12 -13.5 -25.5l-9.5 -28.5q-6 -20 -9.5 -40.5t-3.5 -36.5q0 -29 20.5 -46t49.5 -17q42 0 67.5 27t36.5 65q5 15 7.5 31t2.5 32q0 33 -20 54t-55 21z" />
<glyph unicode="9" horiz-adv-x="440" d="M224 364q37 0 60 21t34 49q10 24 16.5 54.5t6.5 57.5q0 16 -3 31t-11 26t-21 18t-34 7q-35 0 -57.5 -18t-33.5 -47q-14 -40 -20.5 -75t-6.5 -52q0 -31 16 -51.5t54 -20.5zM248 307l-2 2q-14 -8 -32.5 -12.5t-33.5 -4.5q-30 0 -50.5 10t-33.5 27.5t-19 40t-6 48.5 q0 9 1.5 25.5t5 37.5t9.5 45t14 47q45 129 179 129q37 0 64 -11t45 -30t27 -44.5t9 -55.5q0 -21 -4 -47.5t-11.5 -55t-18.5 -56.5t-26 -52l-227 -350h-85q36 58 65 104.5t52.5 84t42.5 66.5t35 52z" />
<glyph unicode=":" horiz-adv-x="216" d="M18 0l19 101h95l-19 -101h-95zM75 292l19 102h95l-19 -102h-95z" />
<glyph unicode=";" horiz-adv-x="216" d="M76 292l20 102h95l-20 -102h-95zM41 -116h-48l50 112h-24l20 104h95l-20 -102z" />
<glyph unicode="&#x3c;" horiz-adv-x="440" d="M383 74l-344 192l11 57l419 193l-12 -72l-341 -153l282 -153z" />
<glyph unicode="=" horiz-adv-x="440" d="M47 349l12 65h402l-12 -65h-402zM13 176l13 65h402l-13 -65h-402z" />
<glyph unicode="&#x3e;" horiz-adv-x="440" d="M16 146l340 152l-281 153l13 65l345 -193l-11 -57l-420 -192z" />
<glyph unicode="?" horiz-adv-x="434" d="M300 701q72 0 117.5 -40t45.5 -110q0 -32 -5.5 -55.5t-16 -43t-25.5 -37t-33 -37.5q-14 -16 -30 -32t-31 -32.5t-26.5 -34.5t-17.5 -39l-12 -60h-83q8 48 21 88.5t49 76.5q25 30 47.5 53.5t39.5 44.5t27 42t10 47q0 38 -19.5 64t-66.5 26q-50 0 -78.5 -32.5t-33.5 -77.5 q-21 5 -41.5 9t-41.5 8q23 90 72 131t132 41zM147 0l18 89h84l-18 -89h-84z" />
<glyph unicode="@" horiz-adv-x="790" d="M584 526l-54 -281q-5 -23 4.5 -39t31.5 -16q24 0 49 13.5t45.5 42.5t33.5 75.5t13 111.5q0 51 -17.5 90.5t-47.5 67t-70.5 41.5t-86.5 14q-81 0 -145 -31t-108 -84t-67.5 -122.5t-23.5 -146.5q0 -112 58.5 -178t179.5 -66q48 0 93.5 10.5t98.5 34.5q5 -14 9.5 -28.5 t9.5 -28.5q-51 -20 -105.5 -32.5t-109.5 -12.5q-70 0 -125.5 19t-94.5 56t-60 91t-21 124q0 97 30 180t84.5 143.5t130.5 95t167 34.5q67 0 120 -20t90 -55.5t56.5 -85t19.5 -108.5q0 -83 -19.5 -141t-50.5 -95t-68 -53.5t-73 -16.5q-11 0 -25.5 2.5t-28.5 9t-24.5 17 t-13.5 26.5h-3q-17 -21 -45 -35.5t-60 -14.5q-42 0 -73 25.5t-31 76.5q0 28 4 63.5t13 74.5q17 70 53 113t102 43q20 0 43 -10t38 -31l1 1q2 9 3.5 18t3.5 18h66zM384 199q30 0 50.5 22t33 54.5t17.5 68.5t5 63t-13.5 43t-42.5 16q-20 0 -38 -8t-31 -29q-32 -53 -39 -165 q0 -28 11.5 -46.5t46.5 -18.5z" />
<glyph unicode="A" horiz-adv-x="491" d="M360 0l-11 158h-221l-73 -158h-87l335 696h75l65 -696h-83zM330 413l-11 159h-3l-69 -157l-86 -182h183z" />
<glyph unicode="B" horiz-adv-x="500" d="M386 362q0 -1 -0.5 -1.5t-0.5 -1.5q42 -14 59.5 -49t17.5 -83q-4 -65 -25.5 -108.5t-56 -70t-79.5 -37.5t-96 -11h-182l136 696h186q78 0 121.5 -35.5t43.5 -110.5q0 -77 -32 -123t-92 -65zM169 325q-12 -63 -24 -124.5t-25 -124.5h124q33 0 59 13.5t43 35.5t26 51t9 60 q0 43 -26 66t-73 23h-113zM227 621l-44 -224h80q33 0 63 7t53 23.5t36.5 43.5t13.5 66q0 43 -28 63.5t-73 20.5h-101z" />
<glyph unicode="C" horiz-adv-x="469" d="M331 701q86 0 129 -42t47 -111l-84 -25q0 45 -24 72t-69 27q-33 0 -55.5 -9.5t-38 -25.5t-25.5 -36t-17 -41q-17 -57 -27.5 -118.5t-22.5 -121.5q-5 -24 -9.5 -50t-4.5 -48t4.5 -40t15.5 -31.5t29 -21t46 -7.5q47 0 82 26.5t52 77.5l80 -31q-26 -73 -81 -112t-136 -39 q-90 0 -133 46.5t-43 119.5q0 19 5 53.5t11 66.5q8 42 17 85t17 85q9 47 24 92t41.5 80.5t67.5 57t102 21.5z" />
<glyph unicode="D" horiz-adv-x="515" d="M341 696q81 0 129.5 -37t48.5 -116q0 -31 -7 -85t-18 -114q-6 -36 -13.5 -72t-15.5 -67.5t-16 -56t-15 -38.5q-37 -66 -88 -88t-114 -22h-209l135 696h183zM420 398q3 15 6 33t5.5 34.5t4.5 30.5t2 21q3 47 -22 74.5t-87 27.5h-103q-26 -137 -52.5 -271.5t-53.5 -271.5 h103q42 0 70 10.5t47 30t29.5 47.5t17.5 63z" />
<glyph unicode="E" horiz-adv-x="449" d="M24 0l135 696h365l-16 -77h-282l-44 -229h242l-14 -75h-242l-47 -238h282l-14 -77h-365z" />
<glyph unicode="F" horiz-adv-x="440" d="M226 619l-44 -232h242l-15 -75h-242l-60 -312h-83l135 696h365l-16 -77h-282z" />
<glyph unicode="G" horiz-adv-x="500" d="M323 701q86 0 129 -42t47 -111l-84 -25q0 45 -24 72t-69 27q-33 0 -55.5 -9.5t-38 -25.5t-25.5 -36t-17 -41q-17 -57 -27.5 -118.5t-22.5 -121.5q-5 -24 -9.5 -50t-4.5 -48t4.5 -40.5t15.5 -32t30.5 -21t48.5 -7.5q40 0 67 15.5t44.5 40.5t27.5 57t16 65l10 51h-112 l14 74h197l-27 -135q-11 -52 -28 -97t-45 -78t-69.5 -51.5t-101.5 -18.5q-90 0 -133 46.5t-43 119.5q0 19 5 53.5t11 66.5q8 42 17 85t17 85q9 47 24 92t41.5 80.5t67.5 57t102 21.5z" />
<glyph unicode="H" horiz-adv-x="525" d="M339 0l61 317h-232l-61 -317h-83l135 696h83l-60 -306h232l60 306h82l-135 -696h-82z" />
<glyph unicode="I" horiz-adv-x="214" d="M25 0l136 696h83l-135 -696h-84z" />
<glyph unicode="J" horiz-adv-x="401" d="M330 182q-11 -53 -29.5 -89t-45.5 -58t-61 -31.5t-74 -9.5q-48 0 -84.5 18.5t-56.5 52.5l64 48q12 -19 34 -31t45 -12q46 0 79 25t47 91l99 510h83z" />
<glyph unicode="K" horiz-adv-x="510" d="M374 0q-24 87 -49 173t-49 173l-132 -150l-38 -196h-83l136 696h82l-67 -352h2l123 146l177 206h94l-231 -276l122 -420h-87z" />
<glyph unicode="L" horiz-adv-x="436" d="M24 0l135 696h83l-121 -619h274l-14 -77h-357z" />
<glyph unicode="M" horiz-adv-x="649" d="M468 0l94 485h-4l-80 -134l-137 -215h-56l-53 219l-28 130h-3l-94 -485h-83l135 696h82l60 -269l35 -161h3l98 163l164 267h85l-136 -696h-82z" />
<glyph unicode="N" horiz-adv-x="555" d="M375 0l-124 378l-44 139h-3l-99 -517h-83l136 696h80l121 -370l46 -142h3l99 512h82l-135 -696h-79z" />
<glyph unicode="O" horiz-adv-x="497" d="M454 203q-19 -101 -75 -155t-147 -54q-57 0 -96 18.5t-61 49.5t-28 71.5t2 84.5l54 276q7 35 21.5 72t41 67t66 49t95.5 19q54 0 91 -19t58.5 -49t28.5 -67.5t0 -75.5zM425 490q3 16 1.5 38.5t-12.5 43.5t-34.5 35.5t-64.5 14.5q-34 0 -57 -13.5t-38.5 -33t-23.5 -42.5 t-12 -42l-52 -275q-6 -28 -4 -54t13 -46.5t33.5 -32.5t58.5 -12q53 0 88.5 33t46.5 91z" />
<glyph unicode="P" horiz-adv-x="478" d="M107 0h-83l135 696h192q80 0 124.5 -39t44.5 -114q0 -56 -15 -104t-45 -83.5t-74.5 -55.5t-102.5 -20h-122zM435 524q0 45 -25.5 70t-77.5 25h-106l-50 -261h111q37 0 65 13t46.5 35.5t27.5 52.5t9 65z" />
<glyph unicode="Q" horiz-adv-x="500" d="M326 701q44 0 78 -13t57 -36t34.5 -55t11.5 -71q0 -26 -4.5 -57t-10.5 -64t-13.5 -67t-13.5 -65q-7 -30 -12.5 -58.5t-14.5 -56.5q-12 -39 -30 -69l54 -52l-53 -54l-52 49q-26 -19 -59 -28.5t-77 -9.5q-48 0 -81.5 13t-54.5 36.5t-31 55t-10 67.5q0 26 4.5 58t11 66.5 t14 69.5t13.5 66q12 59 28.5 109.5t43.5 87t67 57.5t100 21zM316 624q-47 0 -73.5 -23.5t-40.5 -56.5q-9 -23 -18.5 -55.5t-18 -69.5t-16 -74t-13 -70t-8.5 -57.5t-3 -35.5q0 -24 4 -44.5t15.5 -35.5t31 -23.5t50.5 -8.5q22 0 42 5t31 13l-71 69l55 53l64 -62q12 25 20 54 t14 58q6 31 13.5 64.5t14 66.5t11 64t4.5 57q0 48 -24.5 80t-83.5 32z" />
<glyph unicode="R" horiz-adv-x="500" d="M346 0l-65 306h-115l-59 -306h-83l135 696h207q78 0 118.5 -44t35.5 -123q-5 -85 -44.5 -136.5t-111.5 -74.5l72 -318h-90zM437 523q4 49 -22.5 73.5t-78.5 24.5h-109l-47 -242h120q58 0 96 39.5t41 104.5z" />
<glyph unicode="S" horiz-adv-x="472" d="M321 702q35 0 63.5 -9t50 -24.5t36 -35t21.5 -40.5l-75 -45q-13 35 -42 54t-66 19q-30 0 -53 -10.5t-38.5 -28t-23.5 -41t-8 -49.5q0 -25 10 -41t27.5 -27.5t42 -20t53.5 -18.5q72 -25 100.5 -63.5t28.5 -97.5q0 -49 -15.5 -91.5t-46 -73.5t-75 -48.5t-101.5 -17.5 q-81 0 -129 35t-64 92l78 39q14 -35 42.5 -60t82.5 -25q36 0 61.5 12.5t42 32.5t24.5 44.5t8 49.5q0 23 -6.5 39t-19 27t-31 19.5t-42.5 16.5q-44 14 -74 29.5t-49 35t-27.5 43.5t-8.5 56q0 51 15.5 92.5t45 70.5t70.5 44.5t92 15.5z" />
<glyph unicode="T" horiz-adv-x="398" d="M321 621l-121 -621h-82l120 621h-157l15 75h396l-15 -75h-156z" />
<glyph unicode="U" horiz-adv-x="513" d="M552 696q-23 -116 -45 -230t-44 -229q-9 -52 -27 -96.5t-46.5 -77t-69 -51t-95.5 -18.5q-59 0 -94.5 18.5t-53.5 49.5t-21.5 70.5t3.5 81.5q10 54 22.5 118.5t25 130t24 126t20.5 107.5h82q-9 -45 -21 -107.5t-25 -130t-25.5 -132t-21.5 -113.5q-5 -24 -5 -48.5t9 -44 t28.5 -31.5t52.5 -12q39 0 66 13.5t45 36.5t28.5 53.5t16.5 63.5l88 452h83z" />
<glyph unicode="V" horiz-adv-x="464" d="M221 152q6 12 18 40.5t25 61t25 61.5t18 41l147 340h91l-317 -696h-78l-42 696h84l16 -347l8 -197h5z" />
<glyph unicode="W" horiz-adv-x="694" d="M497 0h-75l-8 314l-6 218h-3l-87 -215l-130 -317h-75v696h84l-6 -265l-8 -251h4l88 211l127 305h75l8 -311l6 -207h4l66 196l119 322h88z" />
<glyph unicode="X" horiz-adv-x="445" d="M316 0l-74 282l-184 -282h-92l245 361l-97 335h86l66 -258l167 258h92l-229 -335l106 -361h-86z" />
<glyph unicode="Y" horiz-adv-x="437" d="M253 386l72 123q27 48 54.5 94t54.5 93h89l-249 -405l-57 -291h-80l57 291q-23 102 -46 202.5t-46 202.5h81l48 -235q4 -14 8.5 -35.5t8.5 -38.5z" />
<glyph unicode="Z" horiz-adv-x="408" d="M-14 0l15 77l374 544h-257l15 75h345l-14 -72l-374 -548h267l-14 -76h-357z" />
<glyph unicode="[" horiz-adv-x="233" d="M7 -103l156 801h150l-11 -53h-79l-135 -695h79l-10 -53h-150z" />
<glyph unicode="\" horiz-adv-x="264" d="M141 -24l-51 737h62l51 -737h-62z" />
<glyph unicode="]" horiz-adv-x="233" d="M-39 -104l9 54h79l135 695h-79l11 53h149l-156 -802h-148z" />
<glyph unicode="^" horiz-adv-x="440" d="M42 332l248 362h56l108 -362h-66l-83 289l-194 -289h-69z" />
<glyph unicode="_" horiz-adv-x="495" d="M-65 -130l12 61h494l-12 -61h-494z" />
<glyph unicode="`" horiz-adv-x="424" d="M312 550l-96 171l67 28l72 -180z" />
<glyph unicode="a" horiz-adv-x="447" d="M440 495l-96 -495h-79l9 46q-1 0 -1.5 0.5t-1.5 0.5q-25 -28 -49.5 -40.5t-65.5 -12.5q-61 0 -90.5 40t-29.5 108q0 27 4 57.5t9 56.5q10 50 25 94.5t38 77.5t56 52.5t78 19.5q33 0 61 -13.5t43 -39.5q1 0 1 0.5t1 0.5l10 47h78zM190 73q35 0 58.5 23.5t34.5 51.5 q9 23 17 49.5t13.5 52t9 49.5t3.5 43q0 37 -17.5 58t-53.5 21q-24 0 -44.5 -10.5t-36.5 -35.5q-12 -18 -22.5 -51t-18.5 -69q-6 -29 -10 -53.5t-4 -42.5q0 -17 3 -32.5t11 -27.5t21.5 -19t35.5 -7z" />
<glyph unicode="b" horiz-adv-x="429" d="M202 -6q-38 0 -62.5 13t-40.5 40q-1 0 -1 -0.5t-1 -0.5l-10 -46h-78l141 726h79l-55 -283h2q24 26 57 41t69 15q62 0 87.5 -36t25.5 -92q0 -12 -1.5 -30t-4.5 -39.5t-7 -44t-8 -43.5q-9 -42 -23.5 -81.5t-37 -70t-55 -49.5t-76.5 -19zM191 71q31 0 52 14t35 38t23.5 55.5 t17.5 66.5q6 26 9.5 53t3.5 44q0 40 -16.5 59.5t-56.5 19.5q-39 0 -63.5 -26t-36.5 -59q-16 -45 -26 -96.5t-10 -98.5q0 -29 16.5 -49.5t51.5 -20.5z" />
<glyph unicode="c" horiz-adv-x="381" d="M178 -6q-46 0 -75 13.5t-45.5 35.5t-22.5 49.5t-6 55.5q0 29 4 58t9 58q9 47 25.5 90t43.5 75.5t65 52t89 19.5q53 0 91 -27t46 -78l-74 -36q-5 33 -24 49t-48 16q-31 0 -53.5 -14t-38.5 -37.5t-26.5 -54t-16.5 -62.5q-5 -23 -8 -46.5t-3 -44.5q0 -50 18 -73t63 -23 q29 0 54.5 17t38.5 46l68 -38q-25 -43 -69 -72t-105 -29z" />
<glyph unicode="d" horiz-adv-x="428" d="M145 -6q-32 0 -53.5 10t-35 28t-19.5 43.5t-6 56.5q0 35 5 72t10 63q9 49 24.5 91.5t39 74t56 49.5t74.5 18q34 0 61 -14t44 -39h2l55 279h79q-35 -183 -70.5 -363t-71.5 -363h-79q2 11 4 22.5t4 23.5q-1 0 -1 0.5t-1 0.5q-25 -25 -53 -39t-68 -14zM187 73q19 0 34.5 7 t27.5 18t20.5 24.5t13.5 27.5q9 24 15 50t11 52q5 23 8.5 45t3.5 42q0 35 -16.5 58t-54.5 23q-32 0 -53 -14.5t-35 -38t-22 -53.5t-14 -61q-5 -27 -8 -52.5t-3 -46.5q0 -35 14.5 -58t57.5 -23z" />
<glyph unicode="e" horiz-adv-x="414" d="M258 501q69 0 108 -32.5t39 -89.5q0 -40 -14.5 -72.5t-44.5 -56t-76 -36t-109 -12.5q-11 0 -24.5 0.5t-25.5 1.5q-3 -21 -3 -42q0 -18 3.5 -35t11.5 -29.5t22.5 -20t36.5 -7.5q13 0 28 4.5t29.5 12t27 18t20.5 22.5l66 -36q-29 -43 -73 -70t-106 -27q-41 0 -68.5 13.5 t-43.5 36t-22.5 52.5t-6.5 62q0 52 10.5 112.5t36.5 111.5t69 85t109 34zM251 427q-52 0 -82.5 -41t-44.5 -112q11 -1 23 -1.5t23 -0.5q85 0 120.5 27.5t35.5 68.5q0 26 -20 42.5t-55 16.5z" />
<glyph unicode="f" horiz-adv-x="258" d="M113 425h-59l14 69h59l18 91q6 29 15.5 55.5t26 46.5t42.5 31.5t65 11.5q9 0 19.5 -1t21.5 -3q-2 -14 -5.5 -37.5t-6.5 -37.5q-16 4 -33 4q-19 0 -31 -7.5t-18.5 -19t-10 -25.5l-6.5 -26l-17 -83h81l-13 -69h-81l-81 -414q-6 -29 -15.5 -55.5t-26 -46.5t-42 -32 t-63.5 -12q-10 0 -21 1t-22 3l11 75q10 -2 16.5 -2.5t16.5 -0.5q18 0 29 5.5t18 14t10.5 19t5.5 20.5z" />
<glyph unicode="g" horiz-adv-x="436" d="M341 0q-8 -41 -20 -78t-33.5 -65t-56.5 -44t-89 -16q-52 0 -92.5 22.5t-53.5 62.5l66 45q11 -25 30.5 -39.5t51.5 -14.5q42 0 66 21t35 53q8 25 14.5 51.5t11.5 53.5h-2q-26 -30 -58 -43t-64 -13q-33 0 -55 10t-35.5 28t-19 42.5t-5.5 53.5q0 27 3.5 59.5t10.5 67.5 t17.5 69.5t23.5 65.5t31 51.5t38.5 33.5t43 18.5t43.5 5.5q33 0 60.5 -13.5t42.5 -39.5q1 0 1 0.5t1 0.5l10 46h79zM254 422q-30 0 -50.5 -12t-35 -34t-24.5 -53t-17 -70q-9 -50 -12 -90q-2 -38 12.5 -63t58.5 -25q39 0 64.5 26t37.5 59q13 37 20.5 77t11.5 77 q1 18 0.5 37.5t-6.5 35t-20.5 25.5t-39.5 10z" />
<glyph unicode="h" horiz-adv-x="444" d="M271 0q11 56 22.5 113t20.5 104.5t15 79t6 35.5q5 36 -8.5 62t-58.5 26q-43 0 -74 -28.5t-40 -75.5l-62 -316h-79l140 727h80l-56 -288h3q29 32 61.5 46.5t65.5 14.5q56 0 88.5 -36t23.5 -103q0 -5 -6 -38t-15.5 -83.5t-21.5 -113t-24 -126.5h-81z" />
<glyph unicode="i" horiz-adv-x="195" d="M136 615l16 81h80l-16 -81h-80zM17 0l96 495h80l-96 -495h-80z" />
<glyph unicode="j" horiz-adv-x="207" d="M143 615l16 81h81l-16 -81h-81zM91 -66q-5 -27 -16 -51.5t-29 -42.5t-43 -29t-58 -11h-18.5t-17.5 1l14 75q3 0 11.5 -0.5t10.5 0.5q32 1 47 21.5t22 54.5l106 543h81z" />
<glyph unicode="k" horiz-adv-x="435" d="M304 0l-84 243l-101 -112l-25 -131h-79l141 727h79l-92 -468h3l218 236h94l-177 -194l111 -301h-88z" />
<glyph unicode="l" horiz-adv-x="224" d="M239 726q-29 -149 -58 -297t-58 -297q-2 -6 -2 -11v-10q0 -18 10 -28.5t32 -10.5h16l-15 -75h-13q-50 0 -82.5 19.5t-32.5 66.5q0 19 3 37l120 606h80z" />
<glyph unicode="m" horiz-adv-x="708" d="M561 500q42 0 67.5 -15.5t37.5 -40t13 -55.5t-5 -61l-65 -328h-80l64 328q3 14 2 29.5t-7.5 28t-20 20.5t-34.5 8q-25 0 -45 -9t-35.5 -25t-26 -36.5t-14.5 -44.5l-57 -299h-81q13 69 23.5 120t18 90t13 67.5t9.5 51.5q2 18 0.5 34.5t-9 29t-22 20t-38.5 7.5 q-46 0 -73.5 -34.5t-38.5 -90.5q-2 -9 -6 -32t-10 -52.5t-12.5 -63t-12.5 -63t-10.5 -52.5t-6.5 -32h-79l96 494h80l-11 -53h3q26 29 57.5 43t65.5 14q44 0 70 -16t39 -45h1q32 30 65 46.5t75 16.5z" />
<glyph unicode="n" horiz-adv-x="440" d="M268 0q11 56 22.5 113t20.5 104.5t15 79t6 35.5q3 18 1.5 34t-9.5 28.5t-23.5 19.5t-40.5 7q-43 0 -71.5 -30t-37.5 -75l-62 -316h-79l96 495h80l-11 -55h3q28 32 60.5 46t65.5 14q28 0 50.5 -9.5t38 -26.5t22.5 -41.5t3 -55.5q0 -5 -6 -39t-16 -85.5t-22.5 -115 t-24.5 -127.5h-81z" />
<glyph unicode="o" horiz-adv-x="429" d="M258 500q39 0 67.5 -12t47 -32.5t27.5 -48t9 -58.5q0 -30 -5.5 -65t-11.5 -65q-11 -54 -27 -95.5t-40 -70.5t-58.5 -44t-82.5 -15q-41 0 -69 12t-45.5 32.5t-25.5 46.5t-8 54q0 39 5 75t12 68q10 47 26 87t37 66q54 65 142 65zM252 428q-42 0 -69 -30q-16 -17 -29 -46 t-23 -66q-8 -29 -12.5 -62.5t-6.5 -59.5q-1 -18 1.5 -35.5t11 -31t24.5 -22t42 -8.5q42 0 63 21.5t35 56.5q9 22 16.5 48.5t13 53.5t8.5 52t3 45q0 42 -21.5 63t-56.5 21z" />
<glyph unicode="p" horiz-adv-x="433" d="M-31 -197q33 174 67 346t68 346h79l-9 -46q1 0 1 -0.5t1 -0.5q25 25 53.5 39t68.5 14q52 0 83 -32t31 -97q0 -33 -4 -71.5t-10 -70.5q-9 -49 -23 -91.5t-37 -74.5t-57 -50.5t-83 -18.5q-30 0 -57 13.5t-44 39.5q-1 0 -1 -0.5t-1 -0.5q-11 -61 -23 -122l-24 -122h-79z M256 422q-38 0 -62.5 -25.5t-34.5 -55.5q-12 -38 -21 -77t-13 -75q-1 -9 -1.5 -18.5t-0.5 -18.5q0 -35 17.5 -56.5t51.5 -21.5q24 0 45 9.5t37 32.5q14 20 25 57t19 78q5 23 7 43.5t3 37.5q0 18 -2.5 34.5t-10.5 29t-22 19.5t-37 7z" />
<glyph unicode="q" horiz-adv-x="439" d="M230 -197q12 63 24.5 124.5t25.5 123.5q-1 0 -1 0.5t-1 0.5q-52 -57 -119 -57q-35 0 -58 12t-36.5 32t-19 46.5t-5.5 56.5q0 32 6.5 77t17.5 91q9 39 24.5 74t38 61t53.5 41t72 15q33 0 62 -15t40 -40q1 0 1 0.5t1 0.5l9 48h80l-132 -692h-83zM263 423q-29 0 -50 -12 t-35.5 -34.5t-24.5 -53.5t-17 -70q-5 -29 -8.5 -53.5t-3.5 -44.5q0 -35 14.5 -58t56.5 -23q27 0 47 15t35 39t25 54.5t16 61.5t8.5 59t2.5 48q0 29 -15 50.5t-51 21.5z" />
<glyph unicode="r" horiz-adv-x="310" d="M327 403q-10 6 -23.5 8.5t-23.5 2.5q-46 0 -79 -29t-44 -86l-59 -299h-80l96 495h81l-14 -67h3q26 42 61 58t75 15q12 -1 23 -3.5t16 -6.5z" />
<glyph unicode="s" horiz-adv-x="401" d="M248 501q58 0 96.5 -25.5t52.5 -70.5l-70 -37q-9 28 -29.5 42.5t-58.5 14.5q-41 0 -66.5 -22.5t-25.5 -56.5q0 -24 24 -35.5t66 -22.5q27 -7 49 -16t38 -23t25 -34t9 -47q0 -42 -14.5 -74.5t-40 -54.5t-60.5 -33.5t-77 -11.5q-60 0 -103 26.5t-56 77.5l67 36 q12 -30 35.5 -47.5t63.5 -17.5q19 0 38 5.5t33 16.5t23 27.5t9 37.5q0 17 -8.5 27t-23 17t-33.5 11.5t-41 10.5q-51 17 -77 41.5t-26 71.5q0 38 14 69t38 52.5t57 33t72 11.5z" />
<glyph unicode="t" horiz-adv-x="250" d="M205 494h70q-4 -17 -7 -33t-6 -33h-70l-57 -293q-3 -13 -3.5 -24t3.5 -19.5t13 -13t26 -4.5h26l-15 -75h-38q-32 0 -52.5 9.5t-31.5 25t-14 36t2 43.5l61 315h-55q3 17 6 33t7 33h55l25 128h80z" />
<glyph unicode="u" horiz-adv-x="444" d="M270 0l11 53h-3q-28 -32 -60.5 -45.5t-64.5 -13.5q-62 0 -92.5 36t-22.5 97q0 5 6 39t16 85.5t22.5 115t24.5 128.5h80q-11 -56 -22 -113.5t-20 -105t-15 -79t-6 -35.5q-3 -18 -2 -34t7.5 -28.5t21 -20t40.5 -7.5q21 0 40 10t34.5 26.5t26 38t15.5 44.5l60 304h79 l-96 -495h-80z" />
<glyph unicode="v" horiz-adv-x="383" d="M418 494q-25 -68 -51.5 -131.5t-56 -124t-63.5 -119.5t-75 -119h-78l-53 494h82l18 -205q4 -42 6.5 -85.5t1.5 -97.5h3q29 45 53 90t45.5 92.5t41 98t39.5 107.5h87z" />
<glyph unicode="w" horiz-adv-x="628" d="M328 376q-19 -58 -37 -106t-38 -91.5t-42.5 -86.5t-49.5 -92h-80l-37 495h83l11 -240q1 -17 1.5 -33t1 -32.5t0.5 -35.5t-1 -41h4q47 85 85.5 181.5t75.5 200.5h90l13 -212q2 -37 2.5 -76t-1.5 -90h3q25 45 46 87.5t40.5 87.5t37.5 94.5t38 108.5h83q-23 -71 -47.5 -134 t-53 -122.5t-61 -118.5t-69.5 -120h-79l-13 238q-1 26 -2 63.5t1 74.5h-5z" />
<glyph unicode="x" horiz-adv-x="390" d="M254 0l-57 181q-9 -11 -27 -36.5t-37.5 -54t-37.5 -54t-27 -36.5h-96l193 254q-5 10 -12 29t-15.5 42.5t-17.5 49t-17.5 49t-16 42.5t-11.5 29h89l54 -174q8 11 25 35.5t35 52t35 51.5t25 35h96l-186 -243q7 -15 20 -50.5t27.5 -75.5t27.5 -75.5t20 -50.5h-89z" />
<glyph unicode="y" horiz-adv-x="375" d="M408 495q-30 -89 -57.5 -164t-55.5 -141.5t-57 -126t-63 -115.5q-45 -73 -103.5 -112t-133.5 -38l-3 71q52 7 93.5 33.5t71.5 76.5l-56 516h83l18 -222q4 -43 6.5 -98.5t0.5 -104.5h3q24 44 47 96.5t44.5 108t41.5 112t37 108.5h83z" />
<glyph unicode="z" horiz-adv-x="366" d="M-19 0l14 71l287 352h-205l13 71h296l-13 -69l-284 -349h216l-15 -76h-309z" />
<glyph unicode="{" horiz-adv-x="243" d="M129 -103q-45 0 -67 30.5t-13 79.5l27 143q10 53 1 88t-47 40l10 51q20 3 35.5 14.5t27.5 29t20 40t13 46.5l27 136q8 45 37.5 73t73.5 28h52l-10 -53h-26q-16 0 -27 -7t-18 -18t-11 -24.5t-7 -26.5l-25 -130q-6 -32 -18.5 -55.5t-26.5 -39.5t-27 -24.5t-21 -11.5l-1 -3 q7 -3 17 -11.5t17.5 -24.5t11 -39t-2.5 -54l-27 -142q-6 -34 -1 -58t31 -24h27l-10 -53h-42z" />
<glyph unicode="|" horiz-adv-x="207" d="M72 -161v883h64v-883h-64z" />
<glyph unicode="}" horiz-adv-x="243" d="M242 270q-39 -5 -62 -42t-33 -87l-28 -143q-8 -45 -37 -73t-77 -28h-47l10 53h25q29 0 43 25t21 62l24 127q6 31 18.5 54.5t26 39.5t27 24.5t21.5 11.5l1 3q-8 3 -17.5 11.5t-17 24t-10.5 39t3 55.5l25 129q4 19 5.5 35t-1 27.5t-10.5 18t-23 6.5h-28l10 51h46 q49 0 67.5 -30.5t9.5 -77.5l-27 -136q-5 -25 -5.5 -47.5t4.5 -40t16 -28.5t30 -13l-10 -51v0z" />
<glyph unicode="~" horiz-adv-x="440" d="M437 292q-25 -42 -56 -64.5t-72 -22.5q-20 0 -39.5 8.5t-39.5 18.5t-40 18.5t-41 8.5q-23 0 -38 -12t-38 -35l-44 35q28 40 61 61.5t70 21.5q24 0 43.5 -8.5t38 -19t36.5 -19t38 -8.5t37.5 10.5t37.5 37.5z" />
<glyph unicode="&#xa1;" horiz-adv-x="235" d="M135 317h63l-93 -519h-79zM243 494l-18 -89h-85l18 89h85z" />
<glyph unicode="&#xa2;" horiz-adv-x="401" d="M151 -4q-37 4 -61 18.5t-37.5 35.5t-18.5 46.5t-5 51.5q0 29 4 58t9 58q8 45 24 86.5t40.5 74t59.5 52.5t82 23l20 101h43l-20 -102q44 -7 73.5 -33t37.5 -70l-74 -36q-4 26 -17.5 41.5t-34.5 20.5l-68 -351q24 5 44.5 21.5t31.5 40.5l68 -38q-23 -41 -63.5 -68.5 t-95.5 -31.5l-21 -112h-43zM110 166q0 -42 12.5 -65t43.5 -29l67 350q-25 -5 -43.5 -20.5t-32 -38t-22.5 -50t-14 -56.5q-5 -23 -8 -46.5t-3 -44.5z" />
<glyph unicode="&#xa3;" horiz-adv-x="440" d="M306 701q74 0 112 -36t46 -107l-75 -23q-4 19 -9.5 36t-15 29t-25 19t-38.5 7q-26 0 -44 -11t-29.5 -30t-17 -43t-5.5 -50q0 -27 5 -58t5 -60q0 -3 -0.5 -5.5t-0.5 -5.5h123l-14 -65h-116q-14 -70 -37 -122t-60 -101h257l-14 -75h-356q2 17 5.5 33.5t6.5 33.5 q44 52 74.5 106.5t43.5 124.5h-75l13 65h66q0 35 -6 72t-6 67q0 43 13.5 79.5t38 63t59 41.5t76.5 15z" />
<glyph unicode="&#xa4;" horiz-adv-x="524" d="M45 486l48 49l62 -62q26 17 51.5 25.5t54.5 8.5t55 -8.5t52 -25.5l60 62q15 -14 24.5 -24.5t24.5 -24.5l-62 -61q34 -53 34 -106q0 -28 -8.5 -53.5t-25.5 -51.5l62 -60q-15 -15 -24.5 -25.5t-24.5 -24.5l-60 62q-49 -34 -107 -34q-55 0 -106 34l-12 -12l-19 -19l-19 -19 l-12 -12q-17 18 -29.5 30.5l-18.5 18.5l63 61q-34 50 -34 105q0 56 34 106zM143 321q0 -24 9 -45.5t24.5 -38t37 -26t46.5 -9.5q24 0 46 9.5t38 25t25.5 37t9.5 45.5q0 25 -9 47t-25 38t-38 25t-47 9q-24 0 -45 -9t-37 -25t-25.5 -37.5t-9.5 -45.5z" />
<glyph unicode="&#xa5;" horiz-adv-x="440" d="M299 347h110q-2 -13 -4.5 -25.5t-5.5 -25.5h-128l-11 -26q-2 -13 -4.5 -26t-5.5 -27h134l-10 -52h-134l-33 -165h-75l33 165h-133l10 52h133l10 53v26h-127q2 13 4.5 25.5t5.5 25.5h108q-19 88 -36.5 174.5t-36.5 174.5h81l56 -326h1q9 17 20.5 37t31 55t51 90.5 t81.5 143.5h83z" />
<glyph unicode="&#xa6;" horiz-adv-x="207" d="M72 299v417h64v-417h-64zM136 251v-413h-64v413h64z" />
<glyph unicode="&#xa7;" horiz-adv-x="445" d="M319 702q49 0 89 -15.5t66 -44.5l-51 -54q-26 27 -53 36.5t-54 9.5q-44 0 -73 -25.5t-29 -60.5q0 -15 8 -27t21 -23t30 -21t35 -19q21 -11 43 -24.5t40.5 -30.5t30 -39t11.5 -50q0 -46 -22.5 -79.5t-57.5 -58.5q10 -16 15.5 -35t5.5 -40q0 -38 -14.5 -70t-40.5 -55.5 t-63.5 -37t-82.5 -13.5q-49 0 -93.5 19.5t-67.5 49.5l48 50q24 -29 52 -40t62 -11q52 0 86.5 25.5t34.5 70.5q0 29 -24.5 54t-75.5 51q-56 29 -86.5 57t-30.5 74q0 47 22 79t62 58q-14 18 -21.5 35.5t-7.5 43.5q0 38 15 68t40.5 50.5t59 31.5t71.5 11zM216 420 q-24 -9 -42.5 -32t-18.5 -47q0 -22 16 -39t39 -30.5t49 -25.5t46 -24q25 11 38.5 34.5t13.5 48.5q0 28 -23.5 47.5t-67.5 39.5q-12 6 -24 13t-26 15z" />
<glyph unicode="&#xa8;" horiz-adv-x="422" d="M329 593l17 84h77l-16 -84h-78zM164 593l17 84h77l-16 -84h-78z" />
<glyph unicode="&#xa9;" horiz-adv-x="753" d="M509 224q-9 -52 -43.5 -78.5t-85.5 -26.5q-62 0 -98 38t-36 99v156q0 59 35.5 97.5t98.5 38.5q51 0 86 -27t43 -76l-57 -19q-5 29 -24 47.5t-48 18.5q-36 0 -55 -24.5t-19 -54.5v-158q0 -31 19.5 -55t54.5 -24q58 0 72 67zM377 -8q-75 0 -135.5 26.5t-103 73.5t-65 110.5 t-22.5 138.5t23 139.5t65.5 111.5t103 73.5t134.5 26.5q73 0 133 -26.5t103 -73.5t66 -111.5t23 -139.5t-23 -138.5t-66 -110.5t-103 -73.5t-133 -26.5zM377 636q-62 0 -111 -23t-83.5 -62.5t-53 -93.5t-18.5 -116t19 -115t54 -93t84 -62.5t109 -22.5q61 0 110 22.5 t83.5 62.5t53 93t18.5 115t-19 116t-53.5 93.5t-83.5 62.5t-109 23z" />
<glyph unicode="&#xaa;" horiz-adv-x="309" d="M343 607l-65 -328h-63l6 28q-30 -32 -78 -32q-38 0 -61 24.5t-23 66.5q0 22 3 45t7 43q7 32 17.5 60t26.5 49t39.5 33.5t55.5 12.5q20 0 37.5 -7t28.5 -22l5 27h64zM169 336q23 0 37.5 14.5t20.5 30.5q11 27 18 56.5t10 55.5q2 21 -7 38.5t-37 17.5q-32 0 -50 -27 q-8 -13 -16 -38t-13 -49q-3 -15 -5 -28.5t-2 -20.5q0 -23 9 -36.5t35 -13.5z" />
<glyph unicode="&#xab;" horiz-adv-x="447" d="M296 46l-80 186l151 186h80l-151 -187l77 -185h-77zM129 46l-80 186l151 186h80l-152 -187l78 -185h-77z" />
<glyph unicode="&#xac;" horiz-adv-x="440" d="M396 85h-68l34 178h-332l12 62h401z" />
<glyph unicode="&#xad;" horiz-adv-x="369" d="M57 241l14 71h274l-14 -71h-274z" />
<glyph unicode="&#xae;" horiz-adv-x="523" d="M261 278q-46 0 -83 16t-63.5 44.5t-40.5 67.5t-14 85t14 85.5t40.5 68t63.5 45t83 16.5q45 0 81.5 -16.5t63 -45t40.5 -68t14 -85.5t-14 -85t-40.5 -67.5t-63 -44.5t-81.5 -16zM261 670q-38 0 -67.5 -14t-50 -38t-31.5 -56.5t-11 -69.5q0 -38 11.5 -70.5t32.5 -56 t50.5 -36.5t65.5 -13q37 0 66.5 13.5t49.5 37t31 55.5t11 70q0 37 -11 69.5t-32 56.5t-50 38t-65 14zM305 362q-11 26 -22 52.5t-22 52.5h-33v-105h-42v255h85q33 0 53 -19.5t20 -55.5q0 -49 -42 -69q12 -28 25 -55.5t25 -55.5h-47zM302 542q0 18 -10 27.5t-25 9.5h-39v-75 h35q16 0 27.5 9t11.5 29z" />
<glyph unicode="&#xaf;" horiz-adv-x="428" d="M160 594l14 71h254l-15 -71h-253z" />
<glyph unicode="&#xb0;" horiz-adv-x="333" d="M286 584q0 -24 -9.5 -45.5t-25.5 -37.5t-37.5 -25.5t-45.5 -9.5t-45.5 9.5t-37.5 25.5t-25 37.5t-9 45.5t9 45.5t25 37.5t37.5 25.5t45.5 9.5q26 0 47.5 -9.5t37.5 -25.5t24.5 -37.5t8.5 -45.5zM236 584q0 29 -19.5 48.5t-48.5 19.5q-28 0 -48 -19.5t-20 -48.5t19.5 -49 t48.5 -20t48.5 20t19.5 49z" />
<glyph unicode="&#xb1;" horiz-adv-x="440" d="M267 278l-33 -169h-62l33 169h-168l12 62h168l33 169h61l-32 -169h167l-12 -62h-167zM-17 0l12 62h397l-12 -62h-397z" />
<glyph unicode="&#xb2;" horiz-adv-x="279" d="M36 371l10 53l184 202q31 35 33 66q1 17 -9 29t-35 12q-46 0 -63 -67l-65 12q16 52 49.5 82t85.5 30q50 0 77.5 -24t24.5 -70q-1 -26 -14 -50.5t-33 -47.5l-154 -167h148l-12 -60h-227z" />
<glyph unicode="&#xb3;" horiz-adv-x="281" d="M324 708q0 -15 -3.5 -33t-11.5 -34.5t-21 -31t-33 -23.5q22 -11 28 -29t6 -32q0 -22 -5.5 -49.5t-20.5 -51.5t-42.5 -40.5t-70.5 -16.5q-41 0 -70.5 19.5t-29.5 63.5v13l62 9v-13q0 -39 42 -39q21 0 35 8.5t22.5 22t12.5 30t4 33.5q0 20 -11.5 33.5t-39.5 13.5h-27l4 20 l7 32h27q35 0 54 24.5t19 58.5q0 15 -9.5 27t-30.5 12q-20 0 -37.5 -12.5t-23.5 -41.5l-61 9q12 51 47.5 75t80.5 24q48 0 72.5 -23t24.5 -58z" />
<glyph unicode="&#xb4;" horiz-adv-x="424" d="M258 572l104 173l71 -25l-130 -167z" />
<glyph unicode="&#xb6;" horiz-adv-x="481" d="M206 324h-25q-26 0 -44.5 10.5t-31 28.5t-18.5 42t-6 51q0 41 13 85t38 80.5t61.5 60t83.5 23.5h264l-14 -73h-44l-139 -714h-71l139 714h-74l-138 -714h-72z" />
<glyph unicode="&#xb7;" horiz-adv-x="216" d="M75 216l19 101h95l-19 -101h-95z" />
<glyph unicode="&#xb8;" horiz-adv-x="431" d="M197 29l-35 -76q22 -2 37 -8.5t23.5 -16t12 -20.5t3.5 -22q0 -15 -6 -31.5t-19.5 -30t-34.5 -22.5t-50 -9h-14.5t-22 1.5t-25.5 4.5t-24 9l20 42q17 -9 34.5 -11.5t30.5 -2.5q20 0 36 10.5t16 30.5q0 37 -46 37h-10l-15 15l49 102z" />
<glyph unicode="&#xb9;" horiz-adv-x="241" d="M176 371h-63l68 350q-5 -3 -14.5 -9t-20.5 -13t-21 -13t-14 -8l14 66l71 44h61z" />
<glyph unicode="&#xba;" horiz-adv-x="296" d="M208 610q56 0 84 -29.5t28 -71.5q0 -20 -3.5 -43t-8.5 -42q-15 -69 -47.5 -108.5t-98.5 -39.5q-29 0 -49 8t-32.5 21.5t-18 31.5t-5.5 37q0 26 3.5 49t8.5 43q8 31 18.5 57.5t24.5 43.5q16 20 40 31.5t56 11.5zM207 554q-23 0 -42 -17q-11 -11 -18.5 -28t-13.5 -37 q-6 -22 -10.5 -46.5t-4.5 -40.5q0 -10 1.5 -19t7 -16.5t15 -12t25.5 -4.5q23 0 38 13t23 34q11 29 20 65t9 61q0 24 -14.5 36t-35.5 12z" />
<glyph unicode="&#xbb;" horiz-adv-x="447" d="M13 46l154 188l-81 184h77l82 -186l-154 -186h-78zM180 46l153 188l-80 184h77l82 -186l-154 -186h-78z" />
<glyph unicode="&#xbc;" horiz-adv-x="640" d="M522 61q-1 -3 -2.5 -12t-3.5 -18.5t-4 -18.5t-2 -13h-62l12 62h-162l12 54l181 301h68l-181 -298h92l22 115h63l-22 -115h35l-11 -57h-35zM88 -17h-61l512 730h62zM184 279h-63l68 350q-5 -3 -14.5 -9t-20.5 -13t-21 -13t-14 -8l14 66l71 44h61z" />
<glyph unicode="&#xbd;" horiz-adv-x="640" d="M318 -1l10 53l184 202q31 35 33 66q1 17 -9 29t-35 12q-46 0 -63 -67l-65 12q16 52 49.5 82t85.5 30q50 0 77.5 -24t24.5 -70q-1 -26 -14 -50.5t-33 -47.5l-154 -167h148l-12 -60h-227zM78 -17h-61l512 730h62zM178 279h-63l68 350q-5 -3 -14.5 -9t-20.5 -13t-21 -13 t-14 -8l14 66l71 44h61z" />
<glyph unicode="&#xbe;" horiz-adv-x="640" d="M317 618q0 -15 -3.5 -33t-11.5 -34.5t-21 -31t-33 -23.5q22 -11 28 -29t6 -32q0 -22 -5.5 -49.5t-20.5 -51.5t-42.5 -40.5t-70.5 -16.5q-41 0 -70.5 19.5t-29.5 63.5v13l62 9v-13q0 -39 42 -39q21 0 35 8.5t22.5 22t12.5 30t4 33.5q0 20 -11.5 33.5t-39.5 13.5h-27l4 20 l7 32h27q35 0 54 24.5t19 58.5q0 15 -9.5 27t-30.5 12q-20 0 -37.5 -12.5t-23.5 -41.5l-61 9q12 51 47.5 75t80.5 24q48 0 72.5 -23t24.5 -58zM547 61q-1 -3 -2.5 -12t-3.5 -18.5t-4 -18.5t-2 -13h-62l12 62h-162l12 54l181 301h68l-181 -298h92l22 115h63l-22 -115h35 l-11 -57h-35zM120 -17h-61l512 730h62z" />
<glyph unicode="&#xbf;" horiz-adv-x="434" d="M198 -204q-72 0 -117.5 40t-45.5 109q0 31 6.5 55.5t17.5 44.5t25.5 38t30.5 35q15 16 31.5 32t31.5 33.5t26.5 35.5t15.5 37l12 60h83q-3 -17 -6.5 -33.5t-7.5 -33.5q-5 -27 -21 -52t-36 -48.5t-42 -46.5t-40 -46t-30 -46.5t-12 -48.5q0 -34 20 -60.5t67 -26.5 q25 0 44.5 9t33.5 24t22.5 35t11.5 42l83 -17q-20 -92 -71 -131.5t-133 -39.5zM351 496l-18 -89h-84l18 89h84z" />
<glyph unicode="&#xc0;" horiz-adv-x="491" d="M360 0l-11 158h-221l-73 -158h-87l335 696h75l65 -696h-83zM330 413l-11 159h-3l-69 -157l-86 -182h183zM352 730l-172 93l40 61l157 -114z" />
<glyph unicode="&#xc1;" horiz-adv-x="491" d="M304 767l168 117l43 -59l-185 -97zM360 0l-11 158h-221l-73 -158h-87l335 696h75l65 -696h-83zM330 413l-11 159h-3l-69 -157l-86 -182h183z" />
<glyph unicode="&#xc2;" horiz-adv-x="491" d="M360 0l-11 158h-221l-73 -158h-87l335 696h75l65 -696h-83zM330 413l-11 159h-3l-69 -157l-86 -182h183zM354 815l-152 -82l-27 33l165 125h50l109 -123l-35 -33z" />
<glyph unicode="&#xc3;" horiz-adv-x="491" d="M360 0l-11 158h-221l-73 -158h-87l335 696h75l65 -696h-83zM330 413l-11 159h-3l-69 -157l-86 -182h183zM294 854q16 0 31.5 -6.5t30.5 -14t29 -14t27 -6.5q14 0 28 9t32 32l43 -28q-24 -46 -53 -64t-55 -18q-17 0 -32.5 6t-30.5 13.5t-29 14t-27 6.5q-15 0 -27.5 -10.5 t-31.5 -30.5l-45 30q23 39 52 60t58 21z" />
<glyph unicode="&#xc4;" horiz-adv-x="491" d="M360 0l-11 158h-221l-73 -158h-87l335 696h75l65 -696h-83zM330 413l-11 159h-3l-69 -157l-86 -182h183zM394 748l16 84h78l-16 -84h-78zM227 748l16 84h78l-16 -84h-78z" />
<glyph unicode="&#xc5;" horiz-adv-x="491" d="M360 0l-11 158h-221l-73 -158h-87l335 696h75l65 -696h-83zM330 413l-11 159h-3l-69 -157l-86 -182h183zM349 712q-35 0 -57 22t-22 55q0 22 9 42t24.5 35.5t36 24.5t44.5 9q35 0 57 -22t22 -55q0 -24 -10 -44.5t-26 -35.5t-36.5 -23t-41.5 -8zM375 857 q-24 0 -42.5 -18.5t-18.5 -42.5q0 -19 11.5 -30.5t30.5 -11.5q24 0 43 18t19 44q0 17 -12 29t-31 12z" />
<glyph unicode="&#xc6;" horiz-adv-x="801" d="M397 193h-207l-122 -193h-86q110 175 220 348t220 348h415l-11 -78h-285l-33 -228h245l-10 -75h-245l-33 -235h286l-11 -80h-370zM238 268h169l52 351h-2z" />
<glyph unicode="&#xc7;" horiz-adv-x="469" d="M331 701q86 0 129 -42t47 -111l-84 -25q0 45 -24 72t-69 27q-33 0 -55.5 -9.5t-38 -25.5t-25.5 -36t-17 -41q-17 -57 -27.5 -118.5t-22.5 -121.5q-5 -24 -9.5 -50t-4.5 -48t4.5 -40t15.5 -31.5t29 -21t46 -7.5q47 0 82 26.5t52 77.5l80 -31q-26 -72 -78.5 -110.5 t-129.5 -40.5l-19 -41q22 -2 37 -8.5t23.5 -16t12 -20.5t3.5 -22q0 -15 -6 -31.5t-19.5 -30t-34.5 -22.5t-50 -9h-14.5t-22 1.5t-25.5 4.5t-24 9l20 42q17 -9 34.5 -11.5t30.5 -2.5q20 0 36 10.5t16 30.5q0 37 -46 37h-10l-15 15l32 67q-74 8 -109 53t-35 111q0 19 5 53.5 t11 66.5q8 42 17 85t17 85q9 47 24 92t41.5 80.5t67.5 57t102 21.5z" />
<glyph unicode="&#xc8;" horiz-adv-x="449" d="M24 0l135 696h365l-16 -77h-282l-44 -229h242l-14 -75h-242l-47 -238h282l-14 -77h-365zM365 730l-172 93l40 61l157 -114z" />
<glyph unicode="&#xc9;" horiz-adv-x="449" d="M294 767l168 117l43 -59l-185 -97zM24 0l135 696h365l-16 -77h-282l-44 -229h242l-14 -75h-242l-47 -238h282l-14 -77h-365z" />
<glyph unicode="&#xca;" horiz-adv-x="449" d="M24 0l135 696h365l-16 -77h-282l-44 -229h242l-14 -75h-242l-47 -238h282l-14 -77h-365zM362 815l-152 -82l-27 33l165 125h50l109 -123l-35 -33z" />
<glyph unicode="&#xcb;" horiz-adv-x="449" d="M24 0l135 696h365l-16 -77h-282l-44 -229h242l-14 -75h-242l-47 -238h282l-14 -77h-365zM387 748l16 84h78l-16 -84h-78zM220 748l16 84h78l-16 -84h-78z" />
<glyph unicode="&#xcc;" horiz-adv-x="214" d="M25 0l136 696h83l-135 -696h-84zM217 730l-172 93l40 61l157 -114z" />
<glyph unicode="&#xcd;" horiz-adv-x="214" d="M185 767l168 117l43 -59l-185 -97zM25 0l136 696h83l-135 -696h-84z" />
<glyph unicode="&#xce;" horiz-adv-x="214" d="M25 0l136 696h83l-135 -696h-84zM225 815l-152 -82l-27 33l165 125h50l109 -123l-35 -33z" />
<glyph unicode="&#xcf;" horiz-adv-x="214" d="M256 757l16 84h77l-16 -84h-77zM91 757l16 84h77l-16 -84h-77zM25 0l136 696h83l-135 -696h-84z" />
<glyph unicode="&#xd0;" horiz-adv-x="515" d="M35 391h64l59 305h183q81 0 129.5 -37t48.5 -116q0 -31 -7 -85t-18 -114q-6 -36 -13.5 -72t-15.5 -67.5t-16 -56t-15 -38.5q-37 -66 -88 -88t-114 -22h-209l64 329h-64zM420 398q3 15 6 33t5.5 34.5t4.5 30.5t2 21q3 47 -22 74.5t-87 27.5h-103l-44 -228h82l-13 -62h-81 l-50 -253h103q42 0 70 10.5t47 30t29.5 47.5t17.5 63z" />
<glyph unicode="&#xd1;" horiz-adv-x="555" d="M375 0l-124 378l-44 139h-3l-99 -517h-83l136 696h80l121 -370l46 -142h3l99 512h82l-135 -696h-79zM332 849q16 0 31.5 -6.5t30.5 -14t29 -14t27 -6.5q14 0 28 9t32 32l43 -28q-24 -46 -53 -64t-55 -18q-17 0 -32.5 6t-30.5 13.5t-29 14t-27 6.5q-15 0 -27.5 -10.5 t-31.5 -30.5l-45 30q23 39 52 60t58 21z" />
<glyph unicode="&#xd2;" horiz-adv-x="497" d="M454 203q-19 -101 -75 -155t-147 -54q-57 0 -96 18.5t-61 49.5t-28 71.5t2 84.5l54 276q7 35 21.5 72t41 67t66 49t95.5 19q54 0 91 -19t58.5 -49t28.5 -67.5t0 -75.5zM425 490q3 16 1.5 38.5t-12.5 43.5t-34.5 35.5t-64.5 14.5q-34 0 -57 -13.5t-38.5 -33t-23.5 -42.5 t-12 -42l-52 -275q-6 -28 -4 -54t13 -46.5t33.5 -32.5t58.5 -12q53 0 88.5 33t46.5 91zM402 730l-172 93l40 61l157 -114z" />
<glyph unicode="&#xd3;" horiz-adv-x="497" d="M454 203q-19 -101 -75 -155t-147 -54q-57 0 -96 18.5t-61 49.5t-28 71.5t2 84.5l54 276q7 35 21.5 72t41 67t66 49t95.5 19q54 0 91 -19t58.5 -49t28.5 -67.5t0 -75.5zM425 490q3 16 1.5 38.5t-12.5 43.5t-34.5 35.5t-64.5 14.5q-34 0 -57 -13.5t-38.5 -33t-23.5 -42.5 t-12 -42l-52 -275q-6 -28 -4 -54t13 -46.5t33.5 -32.5t58.5 -12q53 0 88.5 33t46.5 91zM304 766q42 30 84 59t84 59l42 -59q-46 -25 -92 -49t-93 -49z" />
<glyph unicode="&#xd4;" horiz-adv-x="497" d="M454 203q-19 -101 -75 -155t-147 -54q-57 0 -96 18.5t-61 49.5t-28 71.5t2 84.5l54 276q7 35 21.5 72t41 67t66 49t95.5 19q54 0 91 -19t58.5 -49t28.5 -67.5t0 -75.5zM425 490q3 16 1.5 38.5t-12.5 43.5t-34.5 35.5t-64.5 14.5q-34 0 -57 -13.5t-38.5 -33t-23.5 -42.5 t-12 -42l-52 -275q-6 -28 -4 -54t13 -46.5t33.5 -32.5t58.5 -12q53 0 88.5 33t46.5 91zM367 815l-152 -82l-27 33l165 125h50l109 -123l-35 -33z" />
<glyph unicode="&#xd5;" horiz-adv-x="497" d="M454 203q-19 -101 -75 -155t-147 -54q-57 0 -96 18.5t-61 49.5t-28 71.5t2 84.5l54 276q7 35 21.5 72t41 67t66 49t95.5 19q54 0 91 -19t58.5 -49t28.5 -67.5t0 -75.5zM425 490q3 16 1.5 38.5t-12.5 43.5t-34.5 35.5t-64.5 14.5q-34 0 -57 -13.5t-38.5 -33t-23.5 -42.5 t-12 -42l-52 -275q-6 -28 -4 -54t13 -46.5t33.5 -32.5t58.5 -12q53 0 88.5 33t46.5 91zM311 854q16 0 31.5 -6.5t30.5 -14t29 -14t27 -6.5q14 0 28 9t32 32l43 -28q-24 -46 -53 -64t-55 -18q-17 0 -32.5 6t-30.5 13.5t-29 14t-27 6.5q-15 0 -27.5 -10.5t-31.5 -30.5l-45 30 q23 39 52 60t58 21z" />
<glyph unicode="&#xd6;" horiz-adv-x="497" d="M454 203q-19 -101 -75 -155t-147 -54q-57 0 -96 18.5t-61 49.5t-28 71.5t2 84.5l54 276q7 35 21.5 72t41 67t66 49t95.5 19q54 0 91 -19t58.5 -49t28.5 -67.5t0 -75.5zM425 490q3 16 1.5 38.5t-12.5 43.5t-34.5 35.5t-64.5 14.5q-34 0 -57 -13.5t-38.5 -33t-23.5 -42.5 t-12 -42l-52 -275q-6 -28 -4 -54t13 -46.5t33.5 -32.5t58.5 -12q53 0 88.5 33t46.5 91zM400 748l16 84h78l-16 -84h-78zM233 748l16 84h78l-16 -84h-78z" />
<glyph unicode="&#xd7;" horiz-adv-x="484" d="M297 260l118 -152l-48 -38l-119 151l-180 -148l-37 49l180 148l-116 147l48 38l116 -147l180 148l37 -49z" />
<glyph unicode="&#xd8;" horiz-adv-x="497" d="M454 203q-19 -101 -75 -155t-147 -54q-47 0 -81.5 12t-57.5 34l-33 -47l-33 25l39 57q-17 30 -21 66.5t4 76.5l54 276q7 35 21.5 72t41 67t66 49t95.5 19q47 0 81 -14.5t56 -38.5l38 54l36 -25l-47 -68q13 -27 16 -57.5t-2 -61.5zM132 216q-6 -25 -4 -53l285 411 q-11 20 -34.5 34t-63.5 14q-34 0 -57 -13.5t-38.5 -33t-23.5 -42.5t-12 -42zM425 490q1 6 2 13t0 15l-284 -407q11 -18 33 -29t57 -11q53 0 88.5 33t46.5 91z" />
<glyph unicode="&#xd9;" horiz-adv-x="513" d="M552 696q-23 -116 -45 -230t-44 -229q-9 -52 -27 -96.5t-46.5 -77t-69 -51t-95.5 -18.5q-59 0 -94.5 18.5t-53.5 49.5t-21.5 70.5t3.5 81.5q10 54 22.5 118.5t25 130t24 126t20.5 107.5h82q-9 -45 -21 -107.5t-25 -130t-25.5 -132t-21.5 -113.5q-5 -24 -5 -48.5t9 -44 t28.5 -31.5t52.5 -12q39 0 66 13.5t45 36.5t28.5 53.5t16.5 63.5l88 452h83zM393 730l-172 93l40 61l157 -114z" />
<glyph unicode="&#xda;" horiz-adv-x="513" d="M552 696q-23 -116 -45 -230t-44 -229q-9 -52 -27 -96.5t-46.5 -77t-69 -51t-95.5 -18.5q-59 0 -94.5 18.5t-53.5 49.5t-21.5 70.5t3.5 81.5q10 54 22.5 118.5t25 130t24 126t20.5 107.5h82q-9 -45 -21 -107.5t-25 -130t-25.5 -132t-21.5 -113.5q-5 -24 -5 -48.5t9 -44 t28.5 -31.5t52.5 -12q39 0 66 13.5t45 36.5t28.5 53.5t16.5 63.5l88 452h83zM308 766q42 30 84 59t84 59l42 -59q-46 -25 -92 -49t-93 -49z" />
<glyph unicode="&#xdb;" horiz-adv-x="513" d="M552 696q-23 -116 -45 -230t-44 -229q-9 -52 -27 -96.5t-46.5 -77t-69 -51t-95.5 -18.5q-59 0 -94.5 18.5t-53.5 49.5t-21.5 70.5t3.5 81.5q10 54 22.5 118.5t25 130t24 126t20.5 107.5h82q-9 -45 -21 -107.5t-25 -130t-25.5 -132t-21.5 -113.5q-5 -24 -5 -48.5t9 -44 t28.5 -31.5t52.5 -12q39 0 66 13.5t45 36.5t28.5 53.5t16.5 63.5l88 452h83zM381 815l-152 -82l-27 33l165 125h50l109 -123l-35 -33z" />
<glyph unicode="&#xdc;" horiz-adv-x="513" d="M552 696q-23 -116 -45 -230t-44 -229q-9 -52 -27 -96.5t-46.5 -77t-69 -51t-95.5 -18.5q-59 0 -94.5 18.5t-53.5 49.5t-21.5 70.5t3.5 81.5q10 54 22.5 118.5t25 130t24 126t20.5 107.5h82q-9 -45 -21 -107.5t-25 -130t-25.5 -132t-21.5 -113.5q-5 -24 -5 -48.5t9 -44 t28.5 -31.5t52.5 -12q39 0 66 13.5t45 36.5t28.5 53.5t16.5 63.5l88 452h83zM233 748l16 84h78l-16 -84h-78zM400 748l16 84h78l-16 -84h-78z" />
<glyph unicode="&#xdd;" horiz-adv-x="437" d="M253 386l72 123q27 48 54.5 94t54.5 93h89l-249 -405l-57 -291h-80l57 291q-23 102 -46 202.5t-46 202.5h81l48 -235q4 -14 8.5 -35.5t8.5 -38.5zM256 766q42 30 84 59t84 59l42 -59q-46 -25 -92 -49t-93 -49z" />
<glyph unicode="&#xde;" horiz-adv-x="484" d="M136 148l-28 -148h-84l134 694h83q-6 -32 -12 -65t-13 -65h116q79 0 121.5 -40t42.5 -113q0 -45 -11.5 -91.5t-39.5 -85t-74 -62.5t-116 -24h-119zM265 225q39 0 66.5 15t45 39t25.5 53.5t8 58.5q0 39 -22.5 67t-73.5 28h-112l-51 -261h114z" />
<glyph unicode="&#xdf;" horiz-adv-x="441" d="M356 419q32 -14 43.5 -40.5t11.5 -60.5q0 -22 -3.5 -46t-6.5 -48q-6 -45 -18.5 -86.5t-35.5 -73t-58.5 -50.5t-88.5 -19h-37l13 69h13q36 0 59.5 15.5t37.5 40.5t22 57.5t13 66.5q3 19 4.5 42.5t-3 44.5t-17 35t-38.5 14h-24l14 70h19q26 0 43.5 12t28.5 30t15.5 39.5 t4.5 40.5q0 35 -18.5 56.5t-57.5 21.5q-24 0 -40.5 -10t-27.5 -26.5t-17.5 -37t-10.5 -41.5l-105 -535h-79l103 531q8 43 22 78t35.5 60.5t52.5 39.5t73 14q80 0 116 -40.5t36 -108.5q0 -56 -24 -95.5t-70 -59.5z" />
<glyph unicode="&#xe0;" horiz-adv-x="447" d="M440 495l-96 -495h-79l9 46q-1 0 -1.5 0.5t-1.5 0.5q-25 -28 -49.5 -40.5t-65.5 -12.5q-61 0 -90.5 40t-29.5 108q0 27 4 57.5t9 56.5q10 50 25 94.5t38 77.5t56 52.5t78 19.5q33 0 61 -13.5t43 -39.5q1 0 1 0.5t1 0.5l10 47h78zM190 73q35 0 58.5 23.5t34.5 51.5 q9 23 17 49.5t13.5 52t9 49.5t3.5 43q0 37 -17.5 58t-53.5 21q-24 0 -44.5 -10.5t-36.5 -35.5q-12 -18 -22.5 -51t-18.5 -69q-6 -29 -10 -53.5t-4 -42.5q0 -17 3 -32.5t11 -27.5t21.5 -19t35.5 -7zM292 550l-96 171l67 28l72 -180z" />
<glyph unicode="&#xe1;" horiz-adv-x="447" d="M440 495l-96 -495h-79l9 46q-1 0 -1.5 0.5t-1.5 0.5q-25 -28 -49.5 -40.5t-65.5 -12.5q-61 0 -90.5 40t-29.5 108q0 27 4 57.5t9 56.5q10 50 25 94.5t38 77.5t56 52.5t78 19.5q33 0 61 -13.5t43 -39.5q1 0 1 0.5t1 0.5l10 47h78zM190 73q35 0 58.5 23.5t34.5 51.5 q9 23 17 49.5t13.5 52t9 49.5t3.5 43q0 37 -17.5 58t-53.5 21q-24 0 -44.5 -10.5t-36.5 -35.5q-12 -18 -22.5 -51t-18.5 -69q-6 -29 -10 -53.5t-4 -42.5q0 -17 3 -32.5t11 -27.5t21.5 -19t35.5 -7zM243 572l104 173l71 -25l-130 -167z" />
<glyph unicode="&#xe2;" horiz-adv-x="447" d="M440 495l-96 -495h-79l9 46q-1 0 -1.5 0.5t-1.5 0.5q-25 -28 -49.5 -40.5t-65.5 -12.5q-61 0 -90.5 40t-29.5 108q0 27 4 57.5t9 56.5q10 50 25 94.5t38 77.5t56 52.5t78 19.5q33 0 61 -13.5t43 -39.5q1 0 1 0.5t1 0.5l10 47h78zM190 73q35 0 58.5 23.5t34.5 51.5 q9 23 17 49.5t13.5 52t9 49.5t3.5 43q0 37 -17.5 58t-53.5 21q-24 0 -44.5 -10.5t-36.5 -35.5q-12 -18 -22.5 -51t-18.5 -69q-6 -29 -10 -53.5t-4 -42.5q0 -17 3 -32.5t11 -27.5t21.5 -19t35.5 -7zM318 656l-151 -104l-32 33l168 146h50l106 -144l-43 -34z" />
<glyph unicode="&#xe3;" horiz-adv-x="447" d="M440 495l-96 -495h-79l9 46q-1 0 -1.5 0.5t-1.5 0.5q-25 -28 -49.5 -40.5t-65.5 -12.5q-61 0 -90.5 40t-29.5 108q0 27 4 57.5t9 56.5q10 50 25 94.5t38 77.5t56 52.5t78 19.5q33 0 61 -13.5t43 -39.5q1 0 1 0.5t1 0.5l10 47h78zM190 73q35 0 58.5 23.5t34.5 51.5 q9 23 17 49.5t13.5 52t9 49.5t3.5 43q0 37 -17.5 58t-53.5 21q-24 0 -44.5 -10.5t-36.5 -35.5q-12 -18 -22.5 -51t-18.5 -69q-6 -29 -10 -53.5t-4 -42.5q0 -17 3 -32.5t11 -27.5t21.5 -19t35.5 -7zM257 689q16 0 31.5 -6.5t30.5 -14t29 -14t27 -6.5q14 0 28 9t32 32l43 -28 q-24 -46 -53 -64t-55 -18q-17 0 -32.5 6t-30.5 13.5t-29 14t-27 6.5q-15 0 -27.5 -10.5t-31.5 -30.5l-45 30q23 39 52 60t58 21z" />
<glyph unicode="&#xe4;" horiz-adv-x="447" d="M440 495l-96 -495h-79l9 46q-1 0 -1.5 0.5t-1.5 0.5q-25 -28 -49.5 -40.5t-65.5 -12.5q-61 0 -90.5 40t-29.5 108q0 27 4 57.5t9 56.5q10 50 25 94.5t38 77.5t56 52.5t78 19.5q33 0 61 -13.5t43 -39.5q1 0 1 0.5t1 0.5l10 47h78zM190 73q35 0 58.5 23.5t34.5 51.5 q9 23 17 49.5t13.5 52t9 49.5t3.5 43q0 37 -17.5 58t-53.5 21q-24 0 -44.5 -10.5t-36.5 -35.5q-12 -18 -22.5 -51t-18.5 -69q-6 -29 -10 -53.5t-4 -42.5q0 -17 3 -32.5t11 -27.5t21.5 -19t35.5 -7zM338 593l17 84h77l-16 -84h-78zM173 593l17 84h77l-16 -84h-78z" />
<glyph unicode="&#xe5;" horiz-adv-x="447" d="M440 495l-96 -495h-79l9 46q-1 0 -1.5 0.5t-1.5 0.5q-25 -28 -49.5 -40.5t-65.5 -12.5q-61 0 -90.5 40t-29.5 108q0 27 4 57.5t9 56.5q10 50 25 94.5t38 77.5t56 52.5t78 19.5q33 0 61 -13.5t43 -39.5q1 0 1 0.5t1 0.5l10 47h78zM190 73q35 0 58.5 23.5t34.5 51.5 q9 23 17 49.5t13.5 52t9 49.5t3.5 43q0 37 -17.5 58t-53.5 21q-24 0 -44.5 -10.5t-36.5 -35.5q-12 -18 -22.5 -51t-18.5 -69q-6 -29 -10 -53.5t-4 -42.5q0 -17 3 -32.5t11 -27.5t21.5 -19t35.5 -7zM293 544q-35 0 -57 22t-22 55q0 22 9 42t24.5 35.5t36 24.5t44.5 9 q35 0 57 -22t22 -55q0 -24 -10 -44.5t-26 -35.5t-36.5 -23t-41.5 -8zM319 689q-24 0 -42.5 -18.5t-18.5 -42.5q0 -19 11.5 -30.5t30.5 -11.5q24 0 43 18t19 44q0 17 -12 29t-31 12z" />
<glyph unicode="&#xe6;" horiz-adv-x="678" d="M526 501q71 0 109 -33.5t38 -90.5q0 -77 -55 -124.5t-169 -50.5q-15 0 -31.5 0.5t-33.5 1.5q-2 -14 -4 -27t-2 -24q0 -45 17.5 -65t58.5 -20q30 0 59 17t43 42l60 -36q-25 -45 -68.5 -71t-104.5 -26q-52 0 -83 19t-45 55q-29 -42 -75 -58t-94 -16q-33 0 -57 9.5t-39 25.5 t-22 37.5t-7 45.5q0 85 54.5 132.5t149.5 47.5q21 -1 41 -3t49 -6l12 70q6 35 -12.5 53.5t-62.5 18.5q-34 0 -60.5 -11.5t-39.5 -35.5l-59 38q23 40 67.5 62.5t100.5 22.5q18 0 38 -3t38.5 -9.5t33.5 -17t24 -24.5q24 23 57 38.5t74 15.5zM301 218q-24 3 -41 5t-35 3 q-25 0 -48 -5.5t-40 -17t-27.5 -30t-10.5 -44.5q0 -27 18.5 -43t57.5 -16q40 0 73 23t41 62zM518 424q-29 0 -48.5 -10t-33.5 -29.5t-23 -47.5t-16 -63q13 -1 25 -1.5t24 -0.5q75 0 110.5 24.5t35.5 69.5q0 26 -20 42t-54 16z" />
<glyph unicode="&#xe7;" horiz-adv-x="381" d="M352 95q-25 -43 -68 -71.5t-103 -29.5l-19 -41q22 -2 37 -8.5t23.5 -16t12 -20.5t3.5 -22q0 -15 -6 -31.5t-19.5 -30t-34.5 -22.5t-50 -9h-14.5t-22 1.5t-25.5 4.5t-24 9l20 42q17 -9 34.5 -11.5t30.5 -2.5q20 0 36 10.5t16 30.5q0 37 -46 37h-10l-15 15l32 68 q-34 6 -55.5 21t-34 35.5t-17 45t-4.5 49.5q0 29 4 58t9 58q9 47 25.5 90t43.5 75.5t65 52t89 19.5q53 0 91 -27t46 -78l-74 -36q-5 33 -24 49t-48 16q-31 0 -53.5 -14t-38.5 -37.5t-26.5 -54t-16.5 -62.5q-5 -23 -8 -46.5t-3 -44.5q0 -50 18 -73t63 -23q29 0 54.5 17 t38.5 46l68 -38v0z" />
<glyph unicode="&#xe8;" horiz-adv-x="414" d="M258 501q69 0 108 -32.5t39 -89.5q0 -40 -14.5 -72.5t-44.5 -56t-76 -36t-109 -12.5q-11 0 -24.5 0.5t-25.5 1.5q-3 -21 -3 -42q0 -18 3.5 -35t11.5 -29.5t22.5 -20t36.5 -7.5q13 0 28 4.5t29.5 12t27 18t20.5 22.5l66 -36q-29 -43 -73 -70t-106 -27q-41 0 -68.5 13.5 t-43.5 36t-22.5 52.5t-6.5 62q0 52 10.5 112.5t36.5 111.5t69 85t109 34zM251 427q-52 0 -82.5 -41t-44.5 -112q11 -1 23 -1.5t23 -0.5q85 0 120.5 27.5t35.5 68.5q0 26 -20 42.5t-55 16.5zM266 550l-96 171l67 28l72 -180z" />
<glyph unicode="&#xe9;" horiz-adv-x="414" d="M258 501q69 0 108 -32.5t39 -89.5q0 -40 -14.5 -72.5t-44.5 -56t-76 -36t-109 -12.5q-11 0 -24.5 0.5t-25.5 1.5q-3 -21 -3 -42q0 -18 3.5 -35t11.5 -29.5t22.5 -20t36.5 -7.5q13 0 28 4.5t29.5 12t27 18t20.5 22.5l66 -36q-29 -43 -73 -70t-106 -27q-41 0 -68.5 13.5 t-43.5 36t-22.5 52.5t-6.5 62q0 52 10.5 112.5t36.5 111.5t69 85t109 34zM251 427q-52 0 -82.5 -41t-44.5 -112q11 -1 23 -1.5t23 -0.5q85 0 120.5 27.5t35.5 68.5q0 26 -20 42.5t-55 16.5zM229 572l104 173l71 -25l-130 -167z" />
<glyph unicode="&#xea;" horiz-adv-x="414" d="M258 501q69 0 108 -32.5t39 -89.5q0 -40 -14.5 -72.5t-44.5 -56t-76 -36t-109 -12.5q-11 0 -24.5 0.5t-25.5 1.5q-3 -21 -3 -42q0 -18 3.5 -35t11.5 -29.5t22.5 -20t36.5 -7.5q13 0 28 4.5t29.5 12t27 18t20.5 22.5l66 -36q-29 -43 -73 -70t-106 -27q-41 0 -68.5 13.5 t-43.5 36t-22.5 52.5t-6.5 62q0 52 10.5 112.5t36.5 111.5t69 85t109 34zM251 427q-52 0 -82.5 -41t-44.5 -112q11 -1 23 -1.5t23 -0.5q85 0 120.5 27.5t35.5 68.5q0 26 -20 42.5t-55 16.5zM300 656l-151 -104l-32 33l168 146h50l106 -144l-43 -34z" />
<glyph unicode="&#xeb;" horiz-adv-x="414" d="M258 501q69 0 108 -32.5t39 -89.5q0 -40 -14.5 -72.5t-44.5 -56t-76 -36t-109 -12.5q-11 0 -24.5 0.5t-25.5 1.5q-3 -21 -3 -42q0 -18 3.5 -35t11.5 -29.5t22.5 -20t36.5 -7.5q13 0 28 4.5t29.5 12t27 18t20.5 22.5l66 -36q-29 -43 -73 -70t-106 -27q-41 0 -68.5 13.5 t-43.5 36t-22.5 52.5t-6.5 62q0 52 10.5 112.5t36.5 111.5t69 85t109 34zM251 427q-52 0 -82.5 -41t-44.5 -112q11 -1 23 -1.5t23 -0.5q85 0 120.5 27.5t35.5 68.5q0 26 -20 42.5t-55 16.5zM329 593l17 84h77l-16 -84h-78zM164 593l17 84h77l-16 -84h-78z" />
<glyph unicode="&#xec;" horiz-adv-x="195" d="M37 0l96 495h80l-96 -495h-80zM165 550l-96 171l67 28l72 -180z" />
<glyph unicode="&#xed;" horiz-adv-x="195" d="M17 0l96 495h80l-96 -495h-80zM134 572l104 173l71 -25l-130 -167z" />
<glyph unicode="&#xee;" horiz-adv-x="256" d="M52 0l96 495h80l-96 -495h-80zM224 656l-151 -104l-32 33l168 146h50l106 -144l-43 -34z" />
<glyph unicode="&#xef;" horiz-adv-x="230" d="M38 0l96 495h80l-96 -495h-80zM233 593l17 84h77l-16 -84h-78zM68 593l17 84h77l-16 -84h-78z" />
<glyph unicode="&#xf0;" horiz-adv-x="441" d="M243 478q15 0 31 -4t31 -11.5t27.5 -18t19.5 -24.5h3q4 18 5 34.5t1 33.5q0 21 -2.5 40.5t-8.5 36.5l-70 -45l-20 32l74 48q-18 28 -46.5 42.5t-64.5 18.5q6 17 11 33t11 33q33 -3 58 -11t44 -19.5t32.5 -25t22.5 -27.5l83 53l20 -33l-86 -55q16 -41 16 -104 q0 -51 -8.5 -129.5t-31.5 -168.5q-12 -48 -30 -87.5t-43.5 -67.5t-60 -43t-81.5 -15q-39 0 -66.5 11.5t-45 30.5t-25.5 44t-8 52q0 29 3 60t8 58q8 52 26 96t39 71q25 32 59 46.5t73 14.5zM247 406q-47 0 -75 -33q-11 -13 -22 -38t-19.5 -55.5t-14 -64t-5.5 -62.5 q0 -41 19 -63.5t61 -22.5q28 0 48 11.5t35 32.5q9 13 18 37t16.5 53t12.5 61.5t5 61.5q0 40 -22.5 61t-56.5 21z" />
<glyph unicode="&#xf1;" horiz-adv-x="440" d="M268 0q11 56 22.5 113t20.5 104.5t15 79t6 35.5q3 18 1.5 34t-9.5 28.5t-23.5 19.5t-40.5 7q-43 0 -71.5 -30t-37.5 -75l-62 -316h-79l96 495h80l-11 -55h3q28 32 60.5 46t65.5 14q28 0 50.5 -9.5t38 -26.5t22.5 -41.5t3 -55.5q0 -5 -6 -39t-16 -85.5t-22.5 -115 t-24.5 -127.5h-81zM235 689q16 0 31.5 -6.5t30.5 -14t29 -14t27 -6.5q14 0 28 9t32 32l43 -28q-24 -46 -53 -64t-55 -18q-17 0 -32.5 6t-30.5 13.5t-29 14t-27 6.5q-15 0 -27.5 -10.5t-31.5 -30.5l-45 30q23 39 52 60t58 21z" />
<glyph unicode="&#xf2;" horiz-adv-x="429" d="M258 500q39 0 67.5 -12t47 -32.5t27.5 -48t9 -58.5q0 -30 -5.5 -65t-11.5 -65q-11 -54 -27 -95.5t-40 -70.5t-58.5 -44t-82.5 -15q-41 0 -69 12t-45.5 32.5t-25.5 46.5t-8 54q0 39 5 75t12 68q10 47 26 87t37 66q54 65 142 65zM252 428q-42 0 -69 -30q-16 -17 -29 -46 t-23 -66q-8 -29 -12.5 -62.5t-6.5 -59.5q-1 -18 1.5 -35.5t11 -31t24.5 -22t42 -8.5q42 0 63 21.5t35 56.5q9 22 16.5 48.5t13 53.5t8.5 52t3 45q0 42 -21.5 63t-56.5 21zM280 550l-96 171l67 28l72 -180z" />
<glyph unicode="&#xf3;" horiz-adv-x="429" d="M258 500q39 0 67.5 -12t47 -32.5t27.5 -48t9 -58.5q0 -30 -5.5 -65t-11.5 -65q-11 -54 -27 -95.5t-40 -70.5t-58.5 -44t-82.5 -15q-41 0 -69 12t-45.5 32.5t-25.5 46.5t-8 54q0 39 5 75t12 68q10 47 26 87t37 66q54 65 142 65zM252 428q-42 0 -69 -30q-16 -17 -29 -46 t-23 -66q-8 -29 -12.5 -62.5t-6.5 -59.5q-1 -18 1.5 -35.5t11 -31t24.5 -22t42 -8.5q42 0 63 21.5t35 56.5q9 22 16.5 48.5t13 53.5t8.5 52t3 45q0 42 -21.5 63t-56.5 21zM255 572l104 173l71 -25l-130 -167z" />
<glyph unicode="&#xf4;" horiz-adv-x="429" d="M258 500q39 0 67.5 -12t47 -32.5t27.5 -48t9 -58.5q0 -30 -5.5 -65t-11.5 -65q-11 -54 -27 -95.5t-40 -70.5t-58.5 -44t-82.5 -15q-41 0 -69 12t-45.5 32.5t-25.5 46.5t-8 54q0 39 5 75t12 68q10 47 26 87t37 66q54 65 142 65zM252 428q-42 0 -69 -30q-16 -17 -29 -46 t-23 -66q-8 -29 -12.5 -62.5t-6.5 -59.5q-1 -18 1.5 -35.5t11 -31t24.5 -22t42 -8.5q42 0 63 21.5t35 56.5q9 22 16.5 48.5t13 53.5t8.5 52t3 45q0 42 -21.5 63t-56.5 21zM310 656l-151 -104l-32 33l168 146h50l106 -144l-43 -34z" />
<glyph unicode="&#xf5;" horiz-adv-x="429" d="M258 500q39 0 67.5 -12t47 -32.5t27.5 -48t9 -58.5q0 -30 -5.5 -65t-11.5 -65q-11 -54 -27 -95.5t-40 -70.5t-58.5 -44t-82.5 -15q-41 0 -69 12t-45.5 32.5t-25.5 46.5t-8 54q0 39 5 75t12 68q10 47 26 87t37 66q54 65 142 65zM252 428q-42 0 -69 -30q-16 -17 -29 -46 t-23 -66q-8 -29 -12.5 -62.5t-6.5 -59.5q-1 -18 1.5 -35.5t11 -31t24.5 -22t42 -8.5q42 0 63 21.5t35 56.5q9 22 16.5 48.5t13 53.5t8.5 52t3 45q0 42 -21.5 63t-56.5 21zM227 689q16 0 31.5 -6.5t30.5 -14t29 -14t27 -6.5q14 0 28 9t32 32l43 -28q-24 -46 -53 -64t-55 -18 q-17 0 -32.5 6t-30.5 13.5t-29 14t-27 6.5q-15 0 -27.5 -10.5t-31.5 -30.5l-45 30q23 39 52 60t58 21z" />
<glyph unicode="&#xf6;" horiz-adv-x="429" d="M258 500q39 0 67.5 -12t47 -32.5t27.5 -48t9 -58.5q0 -30 -5.5 -65t-11.5 -65q-11 -54 -27 -95.5t-40 -70.5t-58.5 -44t-82.5 -15q-41 0 -69 12t-45.5 32.5t-25.5 46.5t-8 54q0 39 5 75t12 68q10 47 26 87t37 66q54 65 142 65zM252 428q-42 0 -69 -30q-16 -17 -29 -46 t-23 -66q-8 -29 -12.5 -62.5t-6.5 -59.5q-1 -18 1.5 -35.5t11 -31t24.5 -22t42 -8.5q42 0 63 21.5t35 56.5q9 22 16.5 48.5t13 53.5t8.5 52t3 45q0 42 -21.5 63t-56.5 21zM330 593l17 84h77l-16 -84h-78zM165 593l17 84h77l-16 -84h-78z" />
<glyph unicode="&#xf7;" horiz-adv-x="440" d="M283 518q20 0 32.5 -12.5t12.5 -32.5q0 -26 -21 -45.5t-46 -19.5q-20 0 -32.5 13t-12.5 32q0 26 20.5 45.5t46.5 19.5zM29 263l13 62h406l-12 -62h-407zM217 179q20 0 32.5 -12.5t12.5 -31.5q0 -13 -6 -25t-15 -21t-21 -14t-24 -5q-20 0 -32.5 12.5t-12.5 31.5 q0 13 5.5 25t14.5 21t21 14t25 5z" />
<glyph unicode="&#xf8;" horiz-adv-x="429" d="M258 500q35 0 60.5 -9t44.5 -26l35 48l34 -23l-43 -58q11 -18 15.5 -39t4.5 -44q0 -30 -5.5 -65t-11.5 -65q-11 -54 -27 -95.5t-40 -70.5t-58.5 -44t-82.5 -15q-33 0 -57.5 7.5t-41.5 21.5l-32 -43l-32 23l37 50q-12 18 -17 40.5t-5 45.5q0 39 5 75t12 68q10 47 26 87 t37 66q54 65 142 65zM252 428q-42 0 -69 -30q-16 -17 -29 -46t-23 -66q-8 -29 -12.5 -62.5t-6.5 -59.5q-2 -21 1 -36l201 272q-21 28 -62 28zM330 352l-198 -265q18 -20 59 -20q42 0 63 21.5t35 56.5q9 22 16.5 48.5t13 53.5t8.5 52t3 45v8z" />
<glyph unicode="&#xf9;" horiz-adv-x="444" d="M270 0l11 53h-3q-28 -32 -60.5 -45.5t-64.5 -13.5q-62 0 -92.5 36t-22.5 97q0 5 6 39t16 85.5t22.5 115t24.5 128.5h80q-11 -56 -22 -113.5t-20 -105t-15 -79t-6 -35.5q-3 -18 -2 -34t7.5 -28.5t21 -20t40.5 -7.5q21 0 40 10t34.5 26.5t26 38t15.5 44.5l60 304h79 l-96 -495h-80zM276 550l-96 171l67 28l72 -180z" />
<glyph unicode="&#xfa;" horiz-adv-x="444" d="M270 0l11 53h-3q-28 -32 -60.5 -45.5t-64.5 -13.5q-62 0 -92.5 36t-22.5 97q0 5 6 39t16 85.5t22.5 115t24.5 128.5h80q-11 -56 -22 -113.5t-20 -105t-15 -79t-6 -35.5q-3 -18 -2 -34t7.5 -28.5t21 -20t40.5 -7.5q21 0 40 10t34.5 26.5t26 38t15.5 44.5l60 304h79 l-96 -495h-80zM246 572l104 173l71 -25l-130 -167z" />
<glyph unicode="&#xfb;" horiz-adv-x="444" d="M270 0l11 53h-3q-28 -32 -60.5 -45.5t-64.5 -13.5q-62 0 -92.5 36t-22.5 97q0 5 6 39t16 85.5t22.5 115t24.5 128.5h80q-11 -56 -22 -113.5t-20 -105t-15 -79t-6 -35.5q-3 -18 -2 -34t7.5 -28.5t21 -20t40.5 -7.5q21 0 40 10t34.5 26.5t26 38t15.5 44.5l60 304h79 l-96 -495h-80zM309 656l-151 -104l-32 33l168 146h50l106 -144l-43 -34z" />
<glyph unicode="&#xfc;" horiz-adv-x="444" d="M270 0l11 53h-3q-28 -32 -60.5 -45.5t-64.5 -13.5q-62 0 -92.5 36t-22.5 97q0 5 6 39t16 85.5t22.5 115t24.5 128.5h80q-11 -56 -22 -113.5t-20 -105t-15 -79t-6 -35.5q-3 -18 -2 -34t7.5 -28.5t21 -20t40.5 -7.5q21 0 40 10t34.5 26.5t26 38t15.5 44.5l60 304h79 l-96 -495h-80zM337 593l17 84h77l-16 -84h-78zM172 593l17 84h77l-16 -84h-78z" />
<glyph unicode="&#xfd;" horiz-adv-x="375" d="M408 495q-30 -89 -57.5 -164t-55.5 -141.5t-57 -126t-63 -115.5q-45 -73 -103.5 -112t-133.5 -38l-3 71q52 7 93.5 33.5t71.5 76.5l-56 516h83l18 -222q4 -43 6.5 -98.5t0.5 -104.5h3q24 44 47 96.5t44.5 108t41.5 112t37 108.5h83zM202 572l104 173l71 -25l-130 -167z " />
<glyph unicode="&#xfe;" horiz-adv-x="433" d="M-31 -197q11 57 25 129.5t29.5 152.5t32 164t32 164t30 152.5t25.5 130.5h79l-48 -247q1 0 1 -0.5t1 -0.5q25 25 53.5 39t68.5 14q52 0 83 -32t31 -97q0 -33 -4 -71.5t-10 -70.5q-9 -49 -23 -91.5t-37 -74.5t-57 -50.5t-83 -18.5q-30 0 -57 13.5t-44 39.5q-1 0 -1 -0.5 t-1 -0.5q-11 -61 -23 -122l-24 -122h-79zM256 422q-38 0 -62.5 -25.5t-34.5 -55.5q-12 -38 -21 -77t-13 -75q-1 -9 -1.5 -18.5t-0.5 -18.5q0 -35 17.5 -56.5t51.5 -21.5q24 0 45 9.5t37 32.5q14 20 25 57t19 78q5 23 7 43.5t3 37.5q0 18 -2.5 34.5t-10.5 29t-22 19.5t-37 7z " />
<glyph unicode="&#xff;" horiz-adv-x="375" d="M408 495q-30 -89 -57.5 -164t-55.5 -141.5t-57 -126t-63 -115.5q-45 -73 -103.5 -112t-133.5 -38l-3 71q52 7 93.5 33.5t71.5 76.5l-56 516h83l18 -222q4 -43 6.5 -98.5t0.5 -104.5h3q24 44 47 96.5t44.5 108t41.5 112t37 108.5h83zM275 593l17 84h77l-16 -84h-78z M110 593l17 84h77l-16 -84h-78z" />
<glyph unicode="&#x100;" horiz-adv-x="491" d="M360 0l-11 158h-221l-73 -158h-87l335 696h75l65 -696h-83zM330 413l-11 159h-3l-69 -157l-86 -182h183zM226 760l14 71h253l-14 -71h-253z" />
<glyph unicode="&#x101;" horiz-adv-x="447" d="M440 495l-96 -495h-79l9 46q-1 0 -1.5 0.5t-1.5 0.5q-25 -28 -49.5 -40.5t-65.5 -12.5q-61 0 -90.5 40t-29.5 108q0 27 4 57.5t9 56.5q10 50 25 94.5t38 77.5t56 52.5t78 19.5q33 0 61 -13.5t43 -39.5q1 0 1 0.5t1 0.5l10 47h78zM190 73q35 0 58.5 23.5t34.5 51.5 q9 23 17 49.5t13.5 52t9 49.5t3.5 43q0 37 -17.5 58t-53.5 21q-24 0 -44.5 -10.5t-36.5 -35.5q-12 -18 -22.5 -51t-18.5 -69q-6 -29 -10 -53.5t-4 -42.5q0 -17 3 -32.5t11 -27.5t21.5 -19t35.5 -7zM164 594l14 71h254l-15 -71h-253z" />
<glyph unicode="&#x102;" horiz-adv-x="491" d="M360 0l-11 158h-221l-73 -158h-87l335 696h75l65 -696h-83zM330 413l-11 159h-3l-69 -157l-86 -182h183zM301 866q-4 -23 8.5 -43t45.5 -20q20 0 34.5 6t25 15.5t16 20.5t7.5 21h69q-4 -22 -15 -44.5t-30.5 -40.5t-48 -29t-66.5 -11t-62 12.5t-37 31t-16 40.5t0 41h69z " />
<glyph unicode="&#x103;" horiz-adv-x="447" d="M440 495l-96 -495h-79l9 46q-1 0 -1.5 0.5t-1.5 0.5q-25 -28 -49.5 -40.5t-65.5 -12.5q-61 0 -90.5 40t-29.5 108q0 27 4 57.5t9 56.5q10 50 25 94.5t38 77.5t56 52.5t78 19.5q33 0 61 -13.5t43 -39.5q1 0 1 0.5t1 0.5l10 47h78zM190 73q35 0 58.5 23.5t34.5 51.5 q9 23 17 49.5t13.5 52t9 49.5t3.5 43q0 37 -17.5 58t-53.5 21q-24 0 -44.5 -10.5t-36.5 -35.5q-12 -18 -22.5 -51t-18.5 -69q-6 -29 -10 -53.5t-4 -42.5q0 -17 3 -32.5t11 -27.5t21.5 -19t35.5 -7zM242 699q-1 -10 1.5 -21.5t9.5 -21.5t18.5 -16.5t28.5 -6.5t31 6t24.5 15.5 t17.5 21.5t9 23h73q-6 -23 -18 -46t-31.5 -41.5t-46.5 -30t-63 -11.5q-37 0 -61.5 10.5t-39 28.5t-19 41.5t-1.5 48.5h67z" />
<glyph unicode="&#x104;" horiz-adv-x="491" d="M380 -180q-35 0 -55 20.5t-20 50.5q0 24 12 49.5t43 60.5l-11 157h-221l-73 -158h-87l335 696h75l65 -696h-28q-46 -53 -46 -91q0 -32 37 -32q21 0 56 18l9 -50q-20 -11 -44 -18t-47 -7zM330 413l-11 159h-3l-69 -157l-86 -182h183z" />
<glyph unicode="&#x105;" horiz-adv-x="447" d="M285 -180q-35 0 -55 20.5t-20 50.5q0 24 12 49.5t43 60.5l9 45q-1 0 -1.5 0.5t-1.5 0.5q-25 -28 -49.5 -40.5t-65.5 -12.5q-61 0 -90.5 40t-29.5 108q0 27 4 57.5t9 56.5q10 50 25 94.5t38 77.5t56 52.5t78 19.5q33 0 61 -13.5t43 -39.5q1 0 1 0.5t1 0.5l10 47h78 l-96 -495h-24q-46 -53 -46 -91q0 -32 37 -32q21 0 56 18l9 -50q-20 -11 -44 -18t-47 -7zM190 73q35 0 58.5 23.5t34.5 51.5q9 23 17 49.5t13.5 52t9 49.5t3.5 43q0 37 -17.5 58t-53.5 21q-24 0 -44.5 -10.5t-36.5 -35.5q-12 -18 -22.5 -51t-18.5 -69q-6 -29 -10 -53.5 t-4 -42.5q0 -17 3 -32.5t11 -27.5t21.5 -19t35.5 -7z" />
<glyph unicode="&#x106;" horiz-adv-x="469" d="M331 701q86 0 129 -42t47 -111l-84 -25q0 45 -24 72t-69 27q-33 0 -55.5 -9.5t-38 -25.5t-25.5 -36t-17 -41q-17 -57 -27.5 -118.5t-22.5 -121.5q-5 -24 -9.5 -50t-4.5 -48t4.5 -40t15.5 -31.5t29 -21t46 -7.5q47 0 82 26.5t52 77.5l80 -31q-26 -73 -81 -112t-136 -39 q-90 0 -133 46.5t-43 119.5q0 19 5 53.5t11 66.5q8 42 17 85t17 85q9 47 24 92t41.5 80.5t67.5 57t102 21.5zM299 766q42 30 84 59t84 59q11 -15 21.5 -30t21.5 -29q-47 -25 -93 -49t-92 -49z" />
<glyph unicode="&#x107;" horiz-adv-x="381" d="M178 -6q-46 0 -75 13.5t-45.5 35.5t-22.5 49.5t-6 55.5q0 29 4 58t9 58q9 47 25.5 90t43.5 75.5t65 52t89 19.5q53 0 91 -27t46 -78l-74 -36q-5 33 -24 49t-48 16q-31 0 -53.5 -14t-38.5 -37.5t-26.5 -54t-16.5 -62.5q-5 -23 -8 -46.5t-3 -44.5q0 -50 18 -73t63 -23 q29 0 54.5 17t38.5 46l68 -38q-25 -43 -69 -72t-105 -29zM225 572l104 173l71 -25l-130 -167z" />
<glyph unicode="&#x108;" horiz-adv-x="469" d="M331 701q86 0 129 -42t47 -111l-84 -25q0 45 -24 72t-69 27q-33 0 -55.5 -9.5t-38 -25.5t-25.5 -36t-17 -41q-17 -57 -27.5 -118.5t-22.5 -121.5q-5 -24 -9.5 -50t-4.5 -48t4.5 -40t15.5 -31.5t29 -21t46 -7.5q47 0 82 26.5t52 77.5l80 -31q-26 -73 -81 -112t-136 -39 q-90 0 -133 46.5t-43 119.5q0 19 5 53.5t11 66.5q8 42 17 85t17 85q9 47 24 92t41.5 80.5t67.5 57t102 21.5zM365 815l-152 -82l-27 33l165 125h50l109 -123l-35 -33z" />
<glyph unicode="&#x109;" horiz-adv-x="381" d="M178 -6q-46 0 -75 13.5t-45.5 35.5t-22.5 49.5t-6 55.5q0 29 4 58t9 58q9 47 25.5 90t43.5 75.5t65 52t89 19.5q53 0 91 -27t46 -78l-74 -36q-5 33 -24 49t-48 16q-31 0 -53.5 -14t-38.5 -37.5t-26.5 -54t-16.5 -62.5q-5 -23 -8 -46.5t-3 -44.5q0 -50 18 -73t63 -23 q29 0 54.5 17t38.5 46l68 -38q-25 -43 -69 -72t-105 -29zM299 656l-151 -104l-32 33l168 146h50l106 -144l-43 -34z" />
<glyph unicode="&#x10a;" horiz-adv-x="469" d="M331 701q86 0 129 -42t47 -111l-84 -25q0 45 -24 72t-69 27q-33 0 -55.5 -9.5t-38 -25.5t-25.5 -36t-17 -41q-17 -57 -27.5 -118.5t-22.5 -121.5q-5 -24 -9.5 -50t-4.5 -48t4.5 -40t15.5 -31.5t29 -21t46 -7.5q47 0 82 26.5t52 77.5l80 -31q-26 -73 -81 -112t-136 -39 q-90 0 -133 46.5t-43 119.5q0 19 5 53.5t11 66.5q8 42 17 85t17 85q9 47 24 92t41.5 80.5t67.5 57t102 21.5zM320 747l16 84h78l-16 -84h-78z" />
<glyph unicode="&#x10b;" horiz-adv-x="381" d="M178 -6q-46 0 -75 13.5t-45.5 35.5t-22.5 49.5t-6 55.5q0 29 4 58t9 58q9 47 25.5 90t43.5 75.5t65 52t89 19.5q53 0 91 -27t46 -78l-74 -36q-5 33 -24 49t-48 16q-31 0 -53.5 -14t-38.5 -37.5t-26.5 -54t-16.5 -62.5q-5 -23 -8 -46.5t-3 -44.5q0 -50 18 -73t63 -23 q29 0 54.5 17t38.5 46l68 -38q-25 -43 -69 -72t-105 -29zM231 587l16 84h78l-16 -84h-78z" />
<glyph unicode="&#x10c;" horiz-adv-x="469" d="M331 701q86 0 129 -42t47 -111l-84 -25q0 45 -24 72t-69 27q-33 0 -55.5 -9.5t-38 -25.5t-25.5 -36t-17 -41q-17 -57 -27.5 -118.5t-22.5 -121.5q-5 -24 -9.5 -50t-4.5 -48t4.5 -40t15.5 -31.5t29 -21t46 -7.5q47 0 82 26.5t52 77.5l80 -31q-26 -73 -81 -112t-136 -39 q-90 0 -133 46.5t-43 119.5q0 19 5 53.5t11 66.5q8 42 17 85t17 85q9 47 24 92t41.5 80.5t67.5 57t102 21.5zM355 811l152 81l25 -34l-161 -124h-50l-113 124l38 32z" />
<glyph unicode="&#x10d;" horiz-adv-x="381" d="M178 -6q-46 0 -75 13.5t-45.5 35.5t-22.5 49.5t-6 55.5q0 29 4 58t9 58q9 47 25.5 90t43.5 75.5t65 52t89 19.5q53 0 91 -27t46 -78l-74 -36q-5 33 -24 49t-48 16q-31 0 -53.5 -14t-38.5 -37.5t-26.5 -54t-16.5 -62.5q-5 -23 -8 -46.5t-3 -44.5q0 -50 18 -73t63 -23 q29 0 54.5 17t38.5 46l68 -38q-25 -43 -69 -72t-105 -29zM433 732l30 -35l-161 -144h-50l-111 146l42 33l104 -102z" />
<glyph unicode="&#x10e;" horiz-adv-x="515" d="M341 696q81 0 129.5 -37t48.5 -116q0 -31 -7 -85t-18 -114q-6 -36 -13.5 -72t-15.5 -67.5t-16 -56t-15 -38.5q-37 -66 -88 -88t-114 -22h-209l135 696h183zM420 398q3 15 6 33t5.5 34.5t4.5 30.5t2 21q3 47 -22 74.5t-87 27.5h-103q-26 -137 -52.5 -271.5t-53.5 -271.5 h103q42 0 70 10.5t47 30t29.5 47.5t17.5 63zM341 811l152 81l25 -34l-161 -124h-50l-113 124l38 32z" />
<glyph unicode="&#x10f;" horiz-adv-x="509" d="M145 -6q-32 0 -53.5 10t-35 28t-19.5 43.5t-6 56.5q0 35 5 72t10 63q9 49 24.5 91.5t39 74t56 49.5t74.5 18q34 0 61 -14t44 -39h2l55 279h79q-35 -183 -70.5 -363t-71.5 -363h-79q2 11 4 22.5t4 23.5q-1 0 -1 0.5t-1 0.5q-25 -25 -53 -39t-68 -14zM187 73q19 0 34.5 7 t27.5 18t20.5 24.5t13.5 27.5q9 24 15 50t11 52q5 23 8.5 45t3.5 42q0 35 -16.5 58t-54.5 23q-32 0 -53 -14.5t-35 -38t-22 -53.5t-14 -61q-5 -27 -8 -52.5t-3 -46.5q0 -35 14.5 -58t57.5 -23zM538 532h-47l48 88h-28l21 105h94l-20 -103z" />
<glyph unicode="&#x110;" horiz-adv-x="515" d="M35 391h64l59 305h183q81 0 129.5 -37t48.5 -116q0 -31 -7 -85t-18 -114q-6 -36 -13.5 -72t-15.5 -67.5t-16 -56t-15 -38.5q-37 -66 -88 -88t-114 -22h-209l64 329h-64zM420 398q3 15 6 33t5.5 34.5t4.5 30.5t2 21q3 47 -22 74.5t-87 27.5h-103l-44 -228h82l-13 -62h-81 l-50 -253h103q42 0 70 10.5t47 30t29.5 47.5t17.5 63z" />
<glyph unicode="&#x111;" horiz-adv-x="428" d="M247 632h136l19 94h79l-18 -94h52l-11 -58h-53q-28 -145 -55.5 -287.5t-56.5 -286.5h-79q2 11 4 22.5t4 23.5q-1 0 -1 0.5t-1 0.5q-25 -25 -53 -39t-68 -14q-32 0 -53.5 10t-35 28t-19.5 43.5t-6 56.5q0 35 5 72t10 63q9 49 24.5 91.5t39 74t56 49.5t74.5 18q34 0 61 -14 t44 -39h2q6 32 12 63.5t13 63.5h-137zM187 73q19 0 34.5 7t27.5 18t20.5 24.5t13.5 27.5q9 24 15 50t11 52q5 23 8.5 45t3.5 42q0 35 -16.5 58t-54.5 23q-32 0 -53 -14.5t-35 -38t-22 -53.5t-14 -61q-5 -27 -8 -52.5t-3 -46.5q0 -35 14.5 -58t57.5 -23z" />
<glyph unicode="&#x112;" horiz-adv-x="449" d="M24 0l135 696h365l-16 -77h-282l-44 -229h242l-14 -75h-242l-47 -238h282l-14 -77h-365zM223 760l14 71h253l-14 -71h-253z" />
<glyph unicode="&#x113;" horiz-adv-x="414" d="M258 501q69 0 108 -32.5t39 -89.5q0 -40 -14.5 -72.5t-44.5 -56t-76 -36t-109 -12.5q-11 0 -24.5 0.5t-25.5 1.5q-3 -21 -3 -42q0 -18 3.5 -35t11.5 -29.5t22.5 -20t36.5 -7.5q13 0 28 4.5t29.5 12t27 18t20.5 22.5l66 -36q-29 -43 -73 -70t-106 -27q-41 0 -68.5 13.5 t-43.5 36t-22.5 52.5t-6.5 62q0 52 10.5 112.5t36.5 111.5t69 85t109 34zM251 427q-52 0 -82.5 -41t-44.5 -112q11 -1 23 -1.5t23 -0.5q85 0 120.5 27.5t35.5 68.5q0 26 -20 42.5t-55 16.5zM150 594l14 71h254l-15 -71h-253z" />
<glyph unicode="&#x114;" horiz-adv-x="449" d="M24 0l135 696h365l-16 -77h-282l-44 -229h242l-14 -75h-242l-47 -238h282l-14 -77h-365zM298 866q-4 -23 8.5 -43t45.5 -20q20 0 34.5 6t25 15.5t16 20.5t7.5 21h69q-4 -22 -15 -44.5t-30.5 -40.5t-48 -29t-66.5 -11t-62 12.5t-37 31t-16 40.5t0 41h69z" />
<glyph unicode="&#x115;" horiz-adv-x="414" d="M258 501q69 0 108 -32.5t39 -89.5q0 -40 -14.5 -72.5t-44.5 -56t-76 -36t-109 -12.5q-11 0 -24.5 0.5t-25.5 1.5q-3 -21 -3 -42q0 -18 3.5 -35t11.5 -29.5t22.5 -20t36.5 -7.5q13 0 28 4.5t29.5 12t27 18t20.5 22.5l66 -36q-29 -43 -73 -70t-106 -27q-41 0 -68.5 13.5 t-43.5 36t-22.5 52.5t-6.5 62q0 52 10.5 112.5t36.5 111.5t69 85t109 34zM251 427q-52 0 -82.5 -41t-44.5 -112q11 -1 23 -1.5t23 -0.5q85 0 120.5 27.5t35.5 68.5q0 26 -20 42.5t-55 16.5zM224 699q-1 -10 1.5 -21.5t9.5 -21.5t18.5 -16.5t28.5 -6.5t31 6t24.5 15.5 t17.5 21.5t9 23h73q-6 -23 -18 -46t-31.5 -41.5t-46.5 -30t-63 -11.5q-37 0 -61.5 10.5t-39 28.5t-19 41.5t-1.5 48.5h67z" />
<glyph unicode="&#x116;" horiz-adv-x="449" d="M24 0l135 696h365l-16 -77h-282l-44 -229h242l-14 -75h-242l-47 -238h282l-14 -77h-365zM306 754l16 84h78l-16 -84h-78z" />
<glyph unicode="&#x117;" horiz-adv-x="414" d="M258 501q69 0 108 -32.5t39 -89.5q0 -40 -14.5 -72.5t-44.5 -56t-76 -36t-109 -12.5q-11 0 -24.5 0.5t-25.5 1.5q-3 -21 -3 -42q0 -18 3.5 -35t11.5 -29.5t22.5 -20t36.5 -7.5q13 0 28 4.5t29.5 12t27 18t20.5 22.5l66 -36q-29 -43 -73 -70t-106 -27q-41 0 -68.5 13.5 t-43.5 36t-22.5 52.5t-6.5 62q0 52 10.5 112.5t36.5 111.5t69 85t109 34zM251 427q-52 0 -82.5 -41t-44.5 -112q11 -1 23 -1.5t23 -0.5q85 0 120.5 27.5t35.5 68.5q0 26 -20 42.5t-55 16.5zM219 587l16 84h78l-16 -84h-78z" />
<glyph unicode="&#x118;" horiz-adv-x="449" d="M353 -180q-35 0 -55 20.5t-20 50.5q0 24 12 49t42 60h-308l135 696h365l-16 -77h-282l-44 -229h242l-14 -75h-242l-47 -238h282l-14 -77h-1q-46 -53 -46 -91q0 -32 37 -32q21 0 56 18l9 -50q-20 -11 -44 -18t-47 -7z" />
<glyph unicode="&#x119;" horiz-adv-x="414" d="M255 -153q-35 0 -55 20.5t-20 50.5q0 18 6.5 37t23.5 42q-18 -3 -36 -3q-41 0 -68.5 13.5t-43.5 36t-22.5 52.5t-6.5 62q0 52 10.5 112.5t36.5 111.5t69 85t109 34q69 0 108 -32.5t39 -89.5q0 -40 -14.5 -72.5t-44.5 -56t-76 -36t-109 -12.5q-11 0 -24.5 0.5t-25.5 1.5 q-3 -21 -3 -42q0 -18 3.5 -35t11.5 -29.5t22.5 -20t36.5 -7.5q13 0 28 4.5t29.5 12t27 18t20.5 22.5l66 -36q-27 -41 -63 -64q-46 -53 -46 -91q0 -32 37 -32q21 0 56 18l9 -50q-20 -11 -44 -18t-47 -7zM251 427q-52 0 -82.5 -41t-44.5 -112q11 -1 23 -1.5t23 -0.5 q85 0 120.5 27.5t35.5 68.5q0 26 -20 42.5t-55 16.5z" />
<glyph unicode="&#x11a;" horiz-adv-x="449" d="M24 0l135 696h365l-16 -77h-282l-44 -229h242l-14 -75h-242l-47 -238h282l-14 -77h-365zM335 811l152 81l25 -34l-161 -124h-50l-113 124l38 32z" />
<glyph unicode="&#x11b;" horiz-adv-x="414" d="M258 501q69 0 108 -32.5t39 -89.5q0 -40 -14.5 -72.5t-44.5 -56t-76 -36t-109 -12.5q-11 0 -24.5 0.5t-25.5 1.5q-3 -21 -3 -42q0 -18 3.5 -35t11.5 -29.5t22.5 -20t36.5 -7.5q13 0 28 4.5t29.5 12t27 18t20.5 22.5l66 -36q-29 -43 -73 -70t-106 -27q-41 0 -68.5 13.5 t-43.5 36t-22.5 52.5t-6.5 62q0 52 10.5 112.5t36.5 111.5t69 85t109 34zM251 427q-52 0 -82.5 -41t-44.5 -112q11 -1 23 -1.5t23 -0.5q85 0 120.5 27.5t35.5 68.5q0 26 -20 42.5t-55 16.5zM422 732l30 -35l-161 -144h-50l-111 146l42 33l104 -102z" />
<glyph unicode="&#x11c;" horiz-adv-x="500" d="M323 701q86 0 129 -42t47 -111l-84 -25q0 45 -24 72t-69 27q-33 0 -55.5 -9.5t-38 -25.5t-25.5 -36t-17 -41q-17 -57 -27.5 -118.5t-22.5 -121.5q-5 -24 -9.5 -50t-4.5 -48t4.5 -40.5t15.5 -32t30.5 -21t48.5 -7.5q40 0 67 15.5t44.5 40.5t27.5 57t16 65l10 51h-112 l14 74h197l-27 -135q-11 -52 -28 -97t-45 -78t-69.5 -51.5t-101.5 -18.5q-90 0 -133 46.5t-43 119.5q0 19 5 53.5t11 66.5q8 42 17 85t17 85q9 47 24 92t41.5 80.5t67.5 57t102 21.5zM352 815l-152 -82l-27 33l165 125h50l109 -123l-35 -33z" />
<glyph unicode="&#x11d;" horiz-adv-x="436" d="M341 0q-8 -41 -20 -78t-33.5 -65t-56.5 -44t-89 -16q-52 0 -92.5 22.5t-53.5 62.5l66 45q11 -25 30.5 -39.5t51.5 -14.5q42 0 66 21t35 53q8 25 14.5 51.5t11.5 53.5h-2q-26 -30 -58 -43t-64 -13q-33 0 -55 10t-35.5 28t-19 42.5t-5.5 53.5q0 27 3.5 59.5t10.5 67.5 t17.5 69.5t23.5 65.5t31 51.5t38.5 33.5t43 18.5t43.5 5.5q33 0 60.5 -13.5t42.5 -39.5q1 0 1 0.5t1 0.5l10 46h79zM254 422q-30 0 -50.5 -12t-35 -34t-24.5 -53t-17 -70q-9 -50 -12 -90q-2 -38 12.5 -63t58.5 -25q39 0 64.5 26t37.5 59q13 37 20.5 77t11.5 77 q1 18 0.5 37.5t-6.5 35t-20.5 25.5t-39.5 10zM297 656l-151 -104l-32 33l168 146h50l106 -144l-43 -34z" />
<glyph unicode="&#x11e;" horiz-adv-x="500" d="M323 701q86 0 129 -42t47 -111l-84 -25q0 45 -24 72t-69 27q-33 0 -55.5 -9.5t-38 -25.5t-25.5 -36t-17 -41q-17 -57 -27.5 -118.5t-22.5 -121.5q-5 -24 -9.5 -50t-4.5 -48t4.5 -40.5t15.5 -32t30.5 -21t48.5 -7.5q40 0 67 15.5t44.5 40.5t27.5 57t16 65l10 51h-112 l14 74h197l-27 -135q-11 -52 -28 -97t-45 -78t-69.5 -51.5t-101.5 -18.5q-90 0 -133 46.5t-43 119.5q0 19 5 53.5t11 66.5q8 42 17 85t17 85q9 47 24 92t41.5 80.5t67.5 57t102 21.5zM300 866q-4 -23 8.5 -43t45.5 -20q20 0 34.5 6t25 15.5t16 20.5t7.5 21h69 q-4 -22 -15 -44.5t-30.5 -40.5t-48 -29t-66.5 -11t-62 12.5t-37 31t-16 40.5t0 41h69z" />
<glyph unicode="&#x11f;" horiz-adv-x="436" d="M341 0q-8 -41 -20 -78t-33.5 -65t-56.5 -44t-89 -16q-52 0 -92.5 22.5t-53.5 62.5l66 45q11 -25 30.5 -39.5t51.5 -14.5q42 0 66 21t35 53q8 25 14.5 51.5t11.5 53.5h-2q-26 -30 -58 -43t-64 -13q-33 0 -55 10t-35.5 28t-19 42.5t-5.5 53.5q0 27 3.5 59.5t10.5 67.5 t17.5 69.5t23.5 65.5t31 51.5t38.5 33.5t43 18.5t43.5 5.5q33 0 60.5 -13.5t42.5 -39.5q1 0 1 0.5t1 0.5l10 46h79zM254 422q-30 0 -50.5 -12t-35 -34t-24.5 -53t-17 -70q-9 -50 -12 -90q-2 -38 12.5 -63t58.5 -25q39 0 64.5 26t37.5 59q13 37 20.5 77t11.5 77 q1 18 0.5 37.5t-6.5 35t-20.5 25.5t-39.5 10zM231 699q-1 -10 1.5 -21.5t9.5 -21.5t18.5 -16.5t28.5 -6.5t31 6t24.5 15.5t17.5 21.5t9 23h73q-6 -23 -18 -46t-31.5 -41.5t-46.5 -30t-63 -11.5q-37 0 -61.5 10.5t-39 28.5t-19 41.5t-1.5 48.5h67z" />
<glyph unicode="&#x120;" horiz-adv-x="500" d="M323 701q86 0 129 -42t47 -111l-84 -25q0 45 -24 72t-69 27q-33 0 -55.5 -9.5t-38 -25.5t-25.5 -36t-17 -41q-17 -57 -27.5 -118.5t-22.5 -121.5q-5 -24 -9.5 -50t-4.5 -48t4.5 -40.5t15.5 -32t30.5 -21t48.5 -7.5q40 0 67 15.5t44.5 40.5t27.5 57t16 65l10 51h-112 l14 74h197l-27 -135q-11 -52 -28 -97t-45 -78t-69.5 -51.5t-101.5 -18.5q-90 0 -133 46.5t-43 119.5q0 19 5 53.5t11 66.5q8 42 17 85t17 85q9 47 24 92t41.5 80.5t67.5 57t102 21.5zM305 747l16 84h78l-16 -84h-78z" />
<glyph unicode="&#x121;" horiz-adv-x="436" d="M341 0q-8 -41 -20 -78t-33.5 -65t-56.5 -44t-89 -16q-52 0 -92.5 22.5t-53.5 62.5l66 45q11 -25 30.5 -39.5t51.5 -14.5q42 0 66 21t35 53q8 25 14.5 51.5t11.5 53.5h-2q-26 -30 -58 -43t-64 -13q-33 0 -55 10t-35.5 28t-19 42.5t-5.5 53.5q0 27 3.5 59.5t10.5 67.5 t17.5 69.5t23.5 65.5t31 51.5t38.5 33.5t43 18.5t43.5 5.5q33 0 60.5 -13.5t42.5 -39.5q1 0 1 0.5t1 0.5l10 46h79zM254 422q-30 0 -50.5 -12t-35 -34t-24.5 -53t-17 -70q-9 -50 -12 -90q-2 -38 12.5 -63t58.5 -25q39 0 64.5 26t37.5 59q13 37 20.5 77t11.5 77 q1 18 0.5 37.5t-6.5 35t-20.5 25.5t-39.5 10zM240 587l16 84h78l-16 -84h-78z" />
<glyph unicode="&#x122;" horiz-adv-x="500" d="M323 701q86 0 129 -42t47 -111l-84 -25q0 45 -24 72t-69 27q-33 0 -55.5 -9.5t-38 -25.5t-25.5 -36t-17 -41q-17 -57 -27.5 -118.5t-22.5 -121.5q-5 -24 -9.5 -50t-4.5 -48t4.5 -40.5t15.5 -32t30.5 -21t48.5 -7.5q40 0 67 15.5t44.5 40.5t27.5 57t16 65l10 51h-112 l14 74h197l-27 -135q-11 -52 -28 -97t-45 -78t-69.5 -51.5t-101.5 -18.5q-90 0 -133 46.5t-43 119.5q0 19 5 53.5t11 66.5q8 42 17 85t17 85q9 47 24 92t41.5 80.5t67.5 57t102 21.5zM160 -254h-47l48 88h-28l21 105h94l-20 -103z" />
<glyph unicode="&#x123;" horiz-adv-x="436" d="M341 0q-8 -41 -20 -78t-33.5 -65t-56.5 -44t-89 -16q-52 0 -92.5 22.5t-53.5 62.5l66 45q11 -25 30.5 -39.5t51.5 -14.5q42 0 66 21t35 53q8 25 14.5 51.5t11.5 53.5h-2q-26 -30 -58 -43t-64 -13q-33 0 -55 10t-35.5 28t-19 42.5t-5.5 53.5q0 27 3.5 59.5t10.5 67.5 t17.5 69.5t23.5 65.5t31 51.5t38.5 33.5t43 18.5t43.5 5.5q33 0 60.5 -13.5t42.5 -39.5q1 0 1 0.5t1 0.5l10 46h79zM254 422q-30 0 -50.5 -12t-35 -34t-24.5 -53t-17 -70q-9 -50 -12 -90q-2 -38 12.5 -63t58.5 -25q39 0 64.5 26t37.5 59q13 37 20.5 77t11.5 77 q1 18 0.5 37.5t-6.5 35t-20.5 25.5t-39.5 10zM325 757h47l-48 -89h28l-21 -104h-94l19 102z" />
<glyph unicode="&#x124;" horiz-adv-x="525" d="M339 0l61 317h-232l-61 -317h-83l135 696h83l-60 -306h232l60 306h82l-135 -696h-82zM384 815l-152 -82l-27 33l165 125h50l109 -123l-35 -33z" />
<glyph unicode="&#x125;" horiz-adv-x="444" d="M271 0q11 56 22.5 113t20.5 104.5t15 79t6 35.5q5 36 -8.5 62t-58.5 26q-43 0 -74 -28.5t-40 -75.5l-62 -316h-79l140 727h80l-56 -288h3q29 32 61.5 46.5t65.5 14.5q56 0 88.5 -36t23.5 -103q0 -5 -6 -38t-15.5 -83.5t-21.5 -113t-24 -126.5h-81zM208 815l-152 -82 l-27 33l165 125h50l109 -123l-35 -33z" />
<glyph unicode="&#x126;" horiz-adv-x="525" d="M339 0l61 317h-232l-61 -317h-83l104 537h-54l11 58h54l20 101h83l-20 -101h232l20 101h82l-20 -101h51l-11 -58h-51l-104 -537h-82zM414 390l29 147h-232l-29 -147h232z" />
<glyph unicode="&#x127;" horiz-adv-x="444" d="M271 0q11 56 22.5 113t20.5 104.5t15 79t6 35.5q5 36 -8.5 62t-58.5 26q-43 0 -74 -28.5t-40 -75.5l-62 -316h-79l112 582h-57l12 58h56l17 87h80l-17 -87h172l-12 -58h-171l-28 -143h3q29 32 61.5 46.5t65.5 14.5q56 0 88.5 -36t23.5 -103q0 -5 -6 -38t-15.5 -83.5 t-21.5 -113t-24 -126.5h-81z" />
<glyph unicode="&#x128;" horiz-adv-x="214" d="M25 0l136 696h83l-135 -696h-84zM165 854q16 0 31.5 -6.5t30.5 -14t29 -14t27 -6.5q14 0 28 9t32 32l43 -28q-24 -46 -53 -64t-55 -18q-17 0 -32.5 6t-30.5 13.5t-29 14t-27 6.5q-15 0 -27.5 -10.5t-31.5 -30.5l-45 30q23 39 52 60t58 21z" />
<glyph unicode="&#x129;" horiz-adv-x="264" d="M61 0l96 495h80l-96 -495h-80zM159 689q16 0 31.5 -6.5t30.5 -14t29 -14t27 -6.5q14 0 28 9t32 32l43 -28q-24 -46 -53 -64t-55 -18q-17 0 -32.5 6t-30.5 13.5t-29 14t-27 6.5q-15 0 -27.5 -10.5t-31.5 -30.5l-45 30q23 39 52 60t58 21z" />
<glyph unicode="&#x12a;" horiz-adv-x="214" d="M25 0l136 696h83l-135 -696h-84zM83 760l14 71h253l-14 -71h-253z" />
<glyph unicode="&#x12b;" horiz-adv-x="242" d="M37 0l96 495h80l-96 -495h-80zM69 594l14 71h254l-15 -71h-253z" />
<glyph unicode="&#x12c;" horiz-adv-x="252" d="M35 0l136 696h83l-135 -696h-84zM182 866q-4 -23 8.5 -43t45.5 -20q20 0 34.5 6t25 15.5t16 20.5t7.5 21h69q-4 -22 -15 -44.5t-30.5 -40.5t-48 -29t-66.5 -11t-62 12.5t-37 31t-16 40.5t0 41h69z" />
<glyph unicode="&#x12d;" horiz-adv-x="250" d="M54 0l96 495h80l-96 -495h-80zM149 705q-1 -10 1.5 -21.5t9.5 -21.5t18.5 -16.5t28.5 -6.5t31 6t24.5 15.5t17.5 21.5t9 23h73q-6 -23 -18 -46t-31.5 -41.5t-46.5 -30t-63 -11.5q-37 0 -61.5 10.5t-39 28.5t-19 41.5t-1.5 48.5h67z" />
<glyph unicode="&#x12e;" horiz-adv-x="214" d="M61 -179q-35 0 -55 20.5t-20 50.5q0 24 12 49t41 59h-14l136 696h83l-135 -696h-14q-45 -51 -45 -90q0 -32 37 -32q21 0 56 18l9 -50q-20 -11 -44 -18t-47 -7z" />
<glyph unicode="&#x12f;" horiz-adv-x="195" d="M51 -179q-35 0 -55 20.5t-20 50.5q0 24 12 49t41 59h-12l96 495h80l-96 -495h-12q-45 -51 -45 -90q0 -32 37 -32q21 0 56 18l9 -50q-20 -11 -44 -18t-47 -7zM136 615l16 81h80l-16 -81h-80z" />
<glyph unicode="&#x130;" horiz-adv-x="214" d="M25 0l136 696h83l-135 -696h-84zM171 747l16 84h78l-16 -84h-78z" />
<glyph unicode="&#x131;" horiz-adv-x="195" d="M17 0l96 495h80l-96 -495h-80z" />
<glyph unicode="&#x132;" horiz-adv-x="608" d="M25 0l136 696h83l-135 -696h-84zM537 182q-11 -53 -29.5 -89t-45.5 -58t-61 -31.5t-74 -9.5q-48 0 -84.5 18.5t-56.5 52.5l64 48q12 -19 34 -31t45 -12q46 0 79 25t47 91l99 510h83z" />
<glyph unicode="&#x133;" horiz-adv-x="421" d="M136 615l16 81h80l-16 -81h-80zM17 0l96 495h80l-96 -495h-80zM357 615l16 81h81l-16 -81h-81zM305 -66q-5 -27 -16 -51.5t-29 -42.5t-43 -29t-58 -11h-18.5t-17.5 1l14 75q3 0 11.5 -0.5t10.5 0.5q32 1 47 21.5t22 54.5l106 543h81z" />
<glyph unicode="&#x134;" horiz-adv-x="401" d="M330 183q-11 -53 -29.5 -89t-45.5 -58t-61 -31.5t-74 -9.5q-48 0 -84.5 18.5t-56.5 52.5l64 48q12 -19 34 -31t45 -12q46 0 79 25t47 91l99 510h83zM410 817l-152 -82l-27 33l165 125h50l109 -123l-35 -33z" />
<glyph unicode="&#x135;" horiz-adv-x="268" d="M126 -71q-5 -27 -16 -51.5t-28.5 -42.5t-42.5 -29t-59 -11h-17.5t-18.5 1l14 75q4 0 12 -0.5t11 0.5q32 1 46.5 21.5t21.5 54.5l107 548h81zM228 656l-151 -104l-32 33l169 146h50l105 -144l-42 -34z" />
<glyph unicode="&#x136;" horiz-adv-x="510" d="M374 0q-24 87 -49 173t-49 173l-132 -150l-38 -196h-83l136 696h82l-67 -352h2l123 146l177 206h94l-231 -276l122 -420h-87zM197 -237h-47l48 88h-28l21 105h94l-20 -103z" />
<glyph unicode="&#x137;" horiz-adv-x="435" d="M304 0l-84 243l-101 -112l-25 -131h-79l141 727h79l-92 -468h3l218 236h94l-177 -194l111 -301h-88zM146 -254h-47l48 88h-28l21 105h94l-20 -103z" />
<glyph unicode="&#x138;" horiz-adv-x="432" d="M303 0l-83 242l-101 -111l-25 -131h-79l96 494h79l-47 -230h3l216 231h96l-178 -193l109 -302h-86z" />
<glyph unicode="&#x139;" horiz-adv-x="436" d="M177 767l168 117l43 -59l-185 -97zM24 0l135 696h83l-121 -619h274l-14 -77h-357z" />
<glyph unicode="&#x13a;" horiz-adv-x="224" d="M239 726q-29 -149 -58 -297t-58 -297q-2 -6 -2 -11v-10q0 -18 10 -28.5t32 -10.5h16l-15 -75h-13q-50 0 -82.5 19.5t-32.5 66.5q0 19 3 37l120 606h80zM168 781q42 30 84 59t84 59l42 -59q-46 -25 -92 -49t-93 -49z" />
<glyph unicode="&#x13b;" horiz-adv-x="436" d="M24 0l135 696h83l-121 -619h274l-14 -77h-357zM157 -254h-47l48 88h-28l21 105h94l-20 -103z" />
<glyph unicode="&#x13c;" horiz-adv-x="224" d="M239 726q-29 -149 -58 -297t-58 -297q-2 -6 -2 -11v-10q0 -18 10 -28.5t32 -10.5h16l-15 -75h-13q-50 0 -82.5 19.5t-32.5 66.5q0 19 3 37l120 606h80zM48 -254h-47l48 88h-28l21 105h94l-20 -103z" />
<glyph unicode="&#x13d;" horiz-adv-x="436" d="M24 0l135 696h83l-121 -619h274l-14 -77h-357zM328 503h-47l48 88h-28l21 105h94l-20 -103z" />
<glyph unicode="&#x13e;" horiz-adv-x="294" d="M239 726q-29 -149 -58 -297t-58 -297q-2 -6 -2 -11v-10q0 -18 10 -28.5t32 -10.5h16l-15 -75h-13q-50 0 -82.5 19.5t-32.5 66.5q0 19 3 37l120 606h80zM290 534h-47l48 88h-28l21 105h94l-20 -103z" />
<glyph unicode="&#x13f;" horiz-adv-x="436" d="M24 0l135 696h83l-121 -619h274l-14 -77h-357zM299 305l16 84h78l-16 -84h-78z" />
<glyph unicode="&#x140;" horiz-adv-x="300" d="M239 726q-29 -149 -58 -297t-58 -297q-2 -6 -2 -11v-10q0 -18 10 -28.5t32 -10.5h16l-15 -75h-13q-50 0 -82.5 19.5t-32.5 66.5q0 19 3 37l120 606h80zM228 333l16 84h78l-16 -84h-78z" />
<glyph unicode="&#x141;" horiz-adv-x="472" d="M61 0l45 235l-84 -48l-21 51l119 68l76 390h83l-66 -337l124 71l22 -51l-160 -91l-41 -211h274l-14 -77h-357z" />
<glyph unicode="&#x142;" horiz-adv-x="246" d="M253 726l-64 -323l79 45l21 -51l-114 -66l-38 -199q-2 -6 -2 -11v-10q0 -18 10 -28.5t32 -10.5h16l-15 -75h-13q-50 0 -82.5 19.5t-32.5 66.5q0 19 3 37l31 158l-68 -39l-20 52l102 59l75 376h80z" />
<glyph unicode="&#x143;" horiz-adv-x="555" d="M345 767l168 117l42 -59l-185 -97zM375 0l-124 378l-44 139h-3l-99 -517h-83l136 696h80l121 -370l46 -142h3l99 512h82l-135 -696h-79z" />
<glyph unicode="&#x144;" horiz-adv-x="440" d="M268 0q11 56 22.5 113t20.5 104.5t15 79t6 35.5q3 18 1.5 34t-9.5 28.5t-23.5 19.5t-40.5 7q-43 0 -71.5 -30t-37.5 -75l-62 -316h-79l96 495h80l-11 -55h3q28 32 60.5 46t65.5 14q28 0 50.5 -9.5t38 -26.5t22.5 -41.5t3 -55.5q0 -5 -6 -39t-16 -85.5t-22.5 -115 t-24.5 -127.5h-81zM228 572l104 173l71 -25l-130 -167z" />
<glyph unicode="&#x145;" horiz-adv-x="555" d="M375 0l-124 378l-44 139h-3l-99 -517h-83l136 696h80l121 -370l46 -142h3l99 512h82l-135 -696h-79zM206 -234h-47l48 88h-28l21 105h94l-20 -103z" />
<glyph unicode="&#x146;" horiz-adv-x="440" d="M268 0q11 56 22.5 113t20.5 104.5t15 79t6 35.5q3 18 1.5 34t-9.5 28.5t-23.5 19.5t-40.5 7q-43 0 -71.5 -30t-37.5 -75l-62 -316h-79l96 495h80l-11 -55h3q28 32 60.5 46t65.5 14q28 0 50.5 -9.5t38 -26.5t22.5 -41.5t3 -55.5q0 -5 -6 -39t-16 -85.5t-22.5 -115 t-24.5 -127.5h-81zM131 -254h-47l48 88h-28l21 105h94l-20 -103z" />
<glyph unicode="&#x147;" horiz-adv-x="555" d="M375 0l-124 378l-44 139h-3l-99 -517h-83l136 696h80l121 -370l46 -142h3l99 512h82l-135 -696h-79zM388 811l152 81l25 -34l-161 -124h-50l-113 124l38 32z" />
<glyph unicode="&#x148;" horiz-adv-x="440" d="M268 0q11 56 22.5 113t20.5 104.5t15 79t6 35.5q3 18 1.5 34t-9.5 28.5t-23.5 19.5t-40.5 7q-43 0 -71.5 -30t-37.5 -75l-62 -316h-79l96 495h80l-11 -55h3q28 32 60.5 46t65.5 14q28 0 50.5 -9.5t38 -26.5t22.5 -41.5t3 -55.5q0 -5 -6 -39t-16 -85.5t-22.5 -115 t-24.5 -127.5h-81zM432 732l30 -35l-161 -144h-50l-111 146l42 33l104 -102z" />
<glyph unicode="&#x149;" horiz-adv-x="509" d="M337 0q11 56 22.5 113t20.5 104.5t15 79t6 35.5q3 18 1.5 34t-9.5 28.5t-23.5 19.5t-40.5 7q-43 0 -71.5 -30t-37.5 -75l-62 -316h-79l96 495h80l-11 -55h3q28 32 60.5 46t65.5 14q28 0 50.5 -9.5t38 -26.5t22.5 -41.5t3 -55.5q0 -5 -6 -39t-16 -85.5t-22.5 -115 t-24.5 -127.5h-81zM105 473h-47l48 88h-28l21 105h94l-20 -103z" />
<glyph unicode="&#x14a;" horiz-adv-x="555" d="M441 -64q-11 -55 -39 -80t-68 -25q-17 0 -36.5 4t-38.5 12l24 58q12 -3 22 -5t18 -2q15 0 24.5 9t14.5 31l13 68l-124 372l-43 139h-3l-99 -517h-83l135 696h80l121 -370l46 -142h4l98 512h82z" />
<glyph unicode="&#x14b;" horiz-adv-x="435" d="M175 440h3q28 32 60.5 46t65.5 14q36 0 60 -13t36.5 -35t15.5 -50.5t-2 -59.5l-79 -405q-11 -56 -39 -81t-68 -25q-17 0 -36.5 4t-38.5 13l24 58q12 -3 21.5 -5.5t17.5 -2.5q31 0 39 41q3 17 10 50t14.5 72.5t16 82t16 79t12.5 62.5t6 33q3 19 3 37.5t-7 33t-22.5 23.5 t-43.5 9q-26 0 -45 -11t-33 -29t-23 -42t-14 -51q-2 -8 -6.5 -30.5t-10 -51.5t-12 -62t-12 -62t-10 -51.5t-5.5 -30.5h-80l96 494h80z" />
<glyph unicode="&#x14c;" horiz-adv-x="497" d="M454 203q-19 -101 -75 -155t-147 -54q-57 0 -96 18.5t-61 49.5t-28 71.5t2 84.5l54 276q7 35 21.5 72t41 67t66 49t95.5 19q54 0 91 -19t58.5 -49t28.5 -67.5t0 -75.5zM425 490q3 16 1.5 38.5t-12.5 43.5t-34.5 35.5t-64.5 14.5q-34 0 -57 -13.5t-38.5 -33t-23.5 -42.5 t-12 -42l-52 -275q-6 -28 -4 -54t13 -46.5t33.5 -32.5t58.5 -12q53 0 88.5 33t46.5 91zM233 760l14 71h253l-14 -71h-253z" />
<glyph unicode="&#x14d;" horiz-adv-x="429" d="M258 500q39 0 67.5 -12t47 -32.5t27.5 -48t9 -58.5q0 -30 -5.5 -65t-11.5 -65q-11 -54 -27 -95.5t-40 -70.5t-58.5 -44t-82.5 -15q-41 0 -69 12t-45.5 32.5t-25.5 46.5t-8 54q0 39 5 75t12 68q10 47 26 87t37 66q54 65 142 65zM252 428q-42 0 -69 -30q-16 -17 -29 -46 t-23 -66q-8 -29 -12.5 -62.5t-6.5 -59.5q-1 -18 1.5 -35.5t11 -31t24.5 -22t42 -8.5q42 0 63 21.5t35 56.5q9 22 16.5 48.5t13 53.5t8.5 52t3 45q0 42 -21.5 63t-56.5 21zM155 594l14 71h254l-15 -71h-253z" />
<glyph unicode="&#x14e;" horiz-adv-x="497" d="M454 203q-19 -101 -75 -155t-147 -54q-57 0 -96 18.5t-61 49.5t-28 71.5t2 84.5l54 276q7 35 21.5 72t41 67t66 49t95.5 19q54 0 91 -19t58.5 -49t28.5 -67.5t0 -75.5zM425 490q3 16 1.5 38.5t-12.5 43.5t-34.5 35.5t-64.5 14.5q-34 0 -57 -13.5t-38.5 -33t-23.5 -42.5 t-12 -42l-52 -275q-6 -28 -4 -54t13 -46.5t33.5 -32.5t58.5 -12q53 0 88.5 33t46.5 91zM305 866q-4 -23 8.5 -43t45.5 -20q20 0 34.5 6t25 15.5t16 20.5t7.5 21h69q-4 -22 -15 -44.5t-30.5 -40.5t-48 -29t-66.5 -11t-62 12.5t-37 31t-16 40.5t0 41h69z" />
<glyph unicode="&#x14f;" horiz-adv-x="429" d="M258 500q39 0 67.5 -12t47 -32.5t27.5 -48t9 -58.5q0 -30 -5.5 -65t-11.5 -65q-11 -54 -27 -95.5t-40 -70.5t-58.5 -44t-82.5 -15q-41 0 -69 12t-45.5 32.5t-25.5 46.5t-8 54q0 39 5 75t12 68q10 47 26 87t37 66q54 65 142 65zM252 428q-42 0 -69 -30q-16 -17 -29 -46 t-23 -66q-8 -29 -12.5 -62.5t-6.5 -59.5q-1 -18 1.5 -35.5t11 -31t24.5 -22t42 -8.5q42 0 63 21.5t35 56.5q9 22 16.5 48.5t13 53.5t8.5 52t3 45q0 42 -21.5 63t-56.5 21zM235 699q-1 -10 1.5 -21.5t9.5 -21.5t18.5 -16.5t28.5 -6.5t31 6t24.5 15.5t17.5 21.5t9 23h73 q-6 -23 -18 -46t-31.5 -41.5t-46.5 -30t-63 -11.5q-37 0 -61.5 10.5t-39 28.5t-19 41.5t-1.5 48.5h67z" />
<glyph unicode="&#x150;" horiz-adv-x="497" d="M454 203q-19 -101 -75 -155t-147 -54q-57 0 -96 18.5t-61 49.5t-28 71.5t2 84.5l54 276q7 35 21.5 72t41 67t66 49t95.5 19q54 0 91 -19t58.5 -49t28.5 -67.5t0 -75.5zM425 490q3 16 1.5 38.5t-12.5 43.5t-34.5 35.5t-64.5 14.5q-34 0 -57 -13.5t-38.5 -33t-23.5 -42.5 t-12 -42l-52 -275q-6 -28 -4 -54t13 -46.5t33.5 -32.5t58.5 -12q53 0 88.5 33t46.5 91zM228 767l151 117l48 -59l-170 -97zM384 767l163 117l43 -59l-180 -97z" />
<glyph unicode="&#x151;" horiz-adv-x="429" d="M258 500q39 0 67.5 -12t47 -32.5t27.5 -48t9 -58.5q0 -30 -5.5 -65t-11.5 -65q-11 -54 -27 -95.5t-40 -70.5t-58.5 -44t-82.5 -15q-41 0 -69 12t-45.5 32.5t-25.5 46.5t-8 54q0 39 5 75t12 68q10 47 26 87t37 66q54 65 142 65zM252 428q-42 0 -69 -30q-16 -17 -29 -46 t-23 -66q-8 -29 -12.5 -62.5t-6.5 -59.5q-1 -18 1.5 -35.5t11 -31t24.5 -22t42 -8.5q42 0 63 21.5t35 56.5q9 22 16.5 48.5t13 53.5t8.5 52t3 45q0 42 -21.5 63t-56.5 21zM297 572l104 173l71 -25l-130 -167zM182 572l104 173l71 -25l-131 -167z" />
<glyph unicode="&#x152;" horiz-adv-x="697" d="M285 0q-29 -6 -63 -6q-50 0 -86 16t-57 43t-28 63.5t0 77.5l52 297q8 44 26.5 82.5t46.5 67.5t66 45.5t86 16.5q38 0 73 -8q93 0 179 0.5t179 0.5l-15 -77h-270q-11 -58 -22 -115l-22 -114h242l-15 -75h-242q-11 -60 -23 -119.5t-24 -119.5h282q-3 -19 -6.5 -38t-7.5 -38 h-351zM232 70q15 0 29 2.5t26 8.5l103 530q-24 16 -61 16t-62.5 -12.5t-43 -35t-28 -53t-17.5 -66.5l-41 -225q-6 -34 -7 -64t8 -52.5t31 -35.5t63 -13z" />
<glyph unicode="&#x153;" horiz-adv-x="689" d="M538 501q69 0 108 -32.5t39 -89.5q0 -40 -14.5 -72.5t-44.5 -56t-76 -36t-109 -12.5q-11 0 -24.5 0.5t-25.5 1.5q-3 -24 -3 -47.5t7 -43t22.5 -31.5t44.5 -12q13 0 28 4.5t29.5 12t27 18t20.5 22.5l66 -36q-29 -43 -73 -70t-106 -27q-51 0 -80 19t-43 51 q-25 -34 -60.5 -52t-88.5 -18q-41 0 -69 12t-45.5 32.5t-25.5 46.5t-8 54q0 39 5 75t12 68q10 47 26 87t37 66q54 65 142 65q51 0 83 -19t49 -51q26 32 63 51.5t87 19.5zM250 428q-42 0 -69 -30q-16 -17 -29 -46t-23 -66q-8 -29 -12.5 -62.5t-6.5 -59.5q-1 -18 1.5 -35.5 t11 -31t24.5 -22t42 -8.5q42 0 63 21.5t35 56.5q9 22 16.5 48.5t13 53.5t8.5 52t3 45q0 42 -21.5 63t-56.5 21zM531 427q-52 0 -82.5 -41t-44.5 -112q11 -1 23 -1.5t23 -0.5q85 0 120.5 27.5t35.5 68.5q0 26 -20 42.5t-55 16.5z" />
<glyph unicode="&#x154;" horiz-adv-x="500" d="M284 767l168 117l43 -59l-185 -97zM346 0l-65 306h-115l-59 -306h-83l135 696h207q78 0 118.5 -44t35.5 -123q-5 -85 -44.5 -136.5t-111.5 -74.5l72 -318h-90zM437 523q4 49 -22.5 73.5t-78.5 24.5h-109l-47 -242h120q58 0 96 39.5t41 104.5z" />
<glyph unicode="&#x155;" horiz-adv-x="310" d="M327 403q-10 6 -23.5 8.5t-23.5 2.5q-46 0 -79 -29t-44 -86l-59 -299h-80l96 495h81l-14 -67h3q26 42 61 58t75 15q12 -1 23 -3.5t16 -6.5zM184 572l104 173l71 -25l-130 -167z" />
<glyph unicode="&#x156;" horiz-adv-x="500" d="M346 0l-65 306h-115l-59 -306h-83l135 696h207q78 0 118.5 -44t35.5 -123q-5 -85 -44.5 -136.5t-111.5 -74.5l72 -318h-90zM437 523q4 49 -22.5 73.5t-78.5 24.5h-109l-47 -242h120q58 0 96 39.5t41 104.5zM187 -234h-47l48 88h-28l21 105h94l-20 -103z" />
<glyph unicode="&#x157;" horiz-adv-x="310" d="M327 403q-10 6 -23.5 8.5t-23.5 2.5q-46 0 -79 -29t-44 -86l-59 -299h-80l96 495h81l-14 -67h3q26 42 61 58t75 15q12 -1 23 -3.5t16 -6.5zM9 -254h-47l48 88h-28l21 105h94l-20 -103z" />
<glyph unicode="&#x158;" horiz-adv-x="500" d="M346 0l-65 306h-115l-59 -306h-83l135 696h207q78 0 118.5 -44t35.5 -123q-5 -85 -44.5 -136.5t-111.5 -74.5l72 -318h-90zM437 523q4 49 -22.5 73.5t-78.5 24.5h-109l-47 -242h120q58 0 96 39.5t41 104.5zM325 811l152 81l25 -34l-161 -124h-50l-113 124l38 32z" />
<glyph unicode="&#x159;" horiz-adv-x="310" d="M327 403q-10 6 -23.5 8.5t-23.5 2.5q-46 0 -79 -29t-44 -86l-59 -299h-80l96 495h81l-14 -67h3q26 42 61 58t75 15q12 -1 23 -3.5t16 -6.5zM373 732l30 -35l-161 -144h-50l-111 146l42 33l104 -102z" />
<glyph unicode="&#x15a;" horiz-adv-x="472" d="M321 702q35 0 63.5 -9t50 -24.5t36 -35t21.5 -40.5l-75 -45q-13 35 -42 54t-66 19q-30 0 -53 -10.5t-38.5 -28t-23.5 -41t-8 -49.5q0 -25 10 -41t27.5 -27.5t42 -20t53.5 -18.5q72 -25 100.5 -63.5t28.5 -97.5q0 -49 -15.5 -91.5t-46 -73.5t-75 -48.5t-101.5 -17.5 q-81 0 -129 35t-64 92l78 39q14 -35 42.5 -60t82.5 -25q36 0 61.5 12.5t42 32.5t24.5 44.5t8 49.5q0 23 -6.5 39t-19 27t-31 19.5t-42.5 16.5q-44 14 -74 29.5t-49 35t-27.5 43.5t-8.5 56q0 51 15.5 92.5t45 70.5t70.5 44.5t92 15.5zM269 766q42 30 84 59t84 59l42 -59 q-46 -25 -92 -49t-93 -49z" />
<glyph unicode="&#x15b;" horiz-adv-x="401" d="M248 501q58 0 96.5 -25.5t52.5 -70.5l-70 -37q-9 28 -29.5 42.5t-58.5 14.5q-41 0 -66.5 -22.5t-25.5 -56.5q0 -24 24 -35.5t66 -22.5q27 -7 49 -16t38 -23t25 -34t9 -47q0 -42 -14.5 -74.5t-40 -54.5t-60.5 -33.5t-77 -11.5q-60 0 -103 26.5t-56 77.5l67 36 q12 -30 35.5 -47.5t63.5 -17.5q19 0 38 5.5t33 16.5t23 27.5t9 37.5q0 17 -8.5 27t-23 17t-33.5 11.5t-41 10.5q-51 17 -77 41.5t-26 71.5q0 38 14 69t38 52.5t57 33t72 11.5zM223 572l104 173l71 -25l-130 -167z" />
<glyph unicode="&#x15c;" horiz-adv-x="472" d="M321 702q35 0 63.5 -9t50 -24.5t36 -35t21.5 -40.5l-75 -45q-13 35 -42 54t-66 19q-30 0 -53 -10.5t-38.5 -28t-23.5 -41t-8 -49.5q0 -25 10 -41t27.5 -27.5t42 -20t53.5 -18.5q72 -25 100.5 -63.5t28.5 -97.5q0 -49 -15.5 -91.5t-46 -73.5t-75 -48.5t-101.5 -17.5 q-81 0 -129 35t-64 92l78 39q14 -35 42.5 -60t82.5 -25q36 0 61.5 12.5t42 32.5t24.5 44.5t8 49.5q0 23 -6.5 39t-19 27t-31 19.5t-42.5 16.5q-44 14 -74 29.5t-49 35t-27.5 43.5t-8.5 56q0 51 15.5 92.5t45 70.5t70.5 44.5t92 15.5zM347 815l-152 -82l-27 33l165 125h50 l109 -123l-35 -33z" />
<glyph unicode="&#x15d;" horiz-adv-x="401" d="M248 501q58 0 96.5 -25.5t52.5 -70.5l-70 -37q-9 28 -29.5 42.5t-58.5 14.5q-41 0 -66.5 -22.5t-25.5 -56.5q0 -24 24 -35.5t66 -22.5q27 -7 49 -16t38 -23t25 -34t9 -47q0 -42 -14.5 -74.5t-40 -54.5t-60.5 -33.5t-77 -11.5q-60 0 -103 26.5t-56 77.5l67 36 q12 -30 35.5 -47.5t63.5 -17.5q19 0 38 5.5t33 16.5t23 27.5t9 37.5q0 17 -8.5 27t-23 17t-33.5 11.5t-41 10.5q-51 17 -77 41.5t-26 71.5q0 38 14 69t38 52.5t57 33t72 11.5zM279 656l-151 -104l-32 33l168 146h50l106 -144l-43 -34z" />
<glyph unicode="&#x15e;" horiz-adv-x="472" d="M321 702q35 0 63.5 -9t50 -24.5t36 -35t21.5 -40.5l-75 -45q-13 35 -42 54t-66 19q-30 0 -53 -10.5t-38.5 -28t-23.5 -41t-8 -49.5q0 -25 10 -41t27.5 -27.5t42 -20t53.5 -18.5q72 -25 100.5 -63.5t28.5 -97.5q0 -48 -15.5 -90t-45 -73t-72.5 -49t-99 -19l-18 -40 q22 -2 37 -8.5t23.5 -16t12 -20.5t3.5 -22q0 -15 -6 -31.5t-19.5 -30t-34.5 -22.5t-50 -9h-14.5t-22 1.5t-25.5 4.5t-24 9l20 42q17 -9 34.5 -11.5t30.5 -2.5q20 0 36 10.5t16 30.5q0 37 -46 37h-10l-15 15l31 66q-65 8 -104.5 41t-53.5 84l78 39q14 -35 42.5 -60t82.5 -25 q36 0 61.5 12.5t42 32.5t24.5 44.5t8 49.5q0 23 -6.5 39t-19 27t-31 19.5t-42.5 16.5q-44 14 -74 29.5t-49 35t-27.5 43.5t-8.5 56q0 51 15.5 92.5t45 70.5t70.5 44.5t92 15.5z" />
<glyph unicode="&#x15f;" horiz-adv-x="401" d="M248 501q58 0 96.5 -25.5t52.5 -70.5l-70 -37q-9 28 -29.5 42.5t-58.5 14.5q-41 0 -66.5 -22.5t-25.5 -56.5q0 -24 24 -35.5t66 -22.5q27 -7 49 -16t38 -23t25 -34t9 -47q0 -81 -50 -125t-128 -48l-19 -42q22 -2 37 -8.5t23.5 -16t12 -20.5t3.5 -22q0 -15 -6 -31.5 t-19.5 -30t-34.5 -22.5t-50 -9h-14.5t-22 1.5t-25.5 4.5t-24 9l20 42q17 -9 34.5 -11.5t30.5 -2.5q20 0 36 10.5t16 30.5q0 37 -46 37h-10l-15 15l32 67q-50 5 -85.5 31t-46.5 71l67 36q12 -30 35.5 -47.5t63.5 -17.5q19 0 38 5.5t33 16.5t23 27.5t9 37.5q0 17 -8.5 27 t-23 17t-33.5 11.5t-41 10.5q-51 17 -77 41.5t-26 71.5q0 38 14 69t38 52.5t57 33t72 11.5z" />
<glyph unicode="&#x160;" horiz-adv-x="472" d="M321 702q35 0 63.5 -9t50 -24.5t36 -35t21.5 -40.5l-75 -45q-13 35 -42 54t-66 19q-30 0 -53 -10.5t-38.5 -28t-23.5 -41t-8 -49.5q0 -25 10 -41t27.5 -27.5t42 -20t53.5 -18.5q72 -25 100.5 -63.5t28.5 -97.5q0 -49 -15.5 -91.5t-46 -73.5t-75 -48.5t-101.5 -17.5 q-81 0 -129 35t-64 92l78 39q14 -35 42.5 -60t82.5 -25q36 0 61.5 12.5t42 32.5t24.5 44.5t8 49.5q0 23 -6.5 39t-19 27t-31 19.5t-42.5 16.5q-44 14 -74 29.5t-49 35t-27.5 43.5t-8.5 56q0 51 15.5 92.5t45 70.5t70.5 44.5t92 15.5zM345 811l152 81l25 -34l-161 -124h-50 l-113 124l38 32z" />
<glyph unicode="&#x161;" horiz-adv-x="401" d="M248 501q58 0 96.5 -25.5t52.5 -70.5l-70 -37q-9 28 -29.5 42.5t-58.5 14.5q-41 0 -66.5 -22.5t-25.5 -56.5q0 -24 24 -35.5t66 -22.5q27 -7 49 -16t38 -23t25 -34t9 -47q0 -42 -14.5 -74.5t-40 -54.5t-60.5 -33.5t-77 -11.5q-60 0 -103 26.5t-56 77.5l67 36 q12 -30 35.5 -47.5t63.5 -17.5q19 0 38 5.5t33 16.5t23 27.5t9 37.5q0 17 -8.5 27t-23 17t-33.5 11.5t-41 10.5q-51 17 -77 41.5t-26 71.5q0 38 14 69t38 52.5t57 33t72 11.5zM420 732l30 -35l-161 -144h-50l-111 146l42 33l104 -102z" />
<glyph unicode="&#x162;" horiz-adv-x="398" d="M321 621l-121 -621h-82l120 621h-157l15 75h396l-15 -75h-156zM109 -254h-47l48 88h-28l21 105h94l-20 -103z" />
<glyph unicode="&#x163;" horiz-adv-x="250" d="M205 494h70q-4 -17 -7 -33t-6 -33h-70l-57 -293q-3 -13 -3.5 -24t3.5 -19.5t13 -13t26 -4.5h26l-15 -75h-38q-32 0 -52.5 9.5t-31.5 25t-14 36t2 43.5l61 315h-55q3 17 6 33t7 33h55l25 128h80zM45 -254h-47l48 88h-28l21 105h94l-20 -103z" />
<glyph unicode="&#x164;" horiz-adv-x="398" d="M321 621l-121 -621h-82l120 621h-157l15 75h396l-15 -75h-156zM309 811l152 81l25 -34l-161 -124h-50l-113 124l38 32z" />
<glyph unicode="&#x165;" horiz-adv-x="296" d="M205 494h70q-4 -17 -7 -33t-6 -33h-70l-57 -293q-3 -13 -3.5 -24t3.5 -19.5t13 -13t26 -4.5h26l-15 -75h-38q-32 0 -52.5 9.5t-31.5 25t-14 36t2 43.5l61 315h-55q3 17 6 33t7 33h55l25 128h80zM319 544h-47l48 88h-28l21 105h94l-20 -103z" />
<glyph unicode="&#x166;" horiz-adv-x="398" d="M321 621l-42 -213h123l-12 -62h-123l-67 -346h-82l67 346h-122l12 62h122l41 213h-157l15 75h396l-15 -75h-156z" />
<glyph unicode="&#x167;" horiz-adv-x="250" d="M205 494h70q-4 -17 -7 -33t-6 -33h-70l-23 -117h67l-12 -61h-67l-22 -115q-3 -13 -3.5 -24t3.5 -19.5t13 -13t26 -4.5h26l-15 -75h-38q-32 0 -52.5 9.5t-31.5 25t-14 36t2 43.5l26 137h-60l12 61h60l23 117h-55q3 17 6 33t7 33h55l25 128h80z" />
<glyph unicode="&#x168;" horiz-adv-x="513" d="M552 696q-23 -116 -45 -230t-44 -229q-9 -52 -27 -96.5t-46.5 -77t-69 -51t-95.5 -18.5q-59 0 -94.5 18.5t-53.5 49.5t-21.5 70.5t3.5 81.5q10 54 22.5 118.5t25 130t24 126t20.5 107.5h82q-9 -45 -21 -107.5t-25 -130t-25.5 -132t-21.5 -113.5q-5 -24 -5 -48.5t9 -44 t28.5 -31.5t52.5 -12q39 0 66 13.5t45 36.5t28.5 53.5t16.5 63.5l88 452h83zM304 854q16 0 31.5 -6.5t30.5 -14t29 -14t27 -6.5q14 0 28 9t32 32l43 -28q-24 -46 -53 -64t-55 -18q-17 0 -32.5 6t-30.5 13.5t-29 14t-27 6.5q-15 0 -27.5 -10.5t-31.5 -30.5l-45 30 q23 39 52 60t58 21z" />
<glyph unicode="&#x169;" horiz-adv-x="444" d="M270 0l11 53h-3q-28 -32 -60.5 -45.5t-64.5 -13.5q-62 0 -92.5 36t-22.5 97q0 5 6 39t16 85.5t22.5 115t24.5 128.5h80q-11 -56 -22 -113.5t-20 -105t-15 -79t-6 -35.5q-3 -18 -2 -34t7.5 -28.5t21 -20t40.5 -7.5q21 0 40 10t34.5 26.5t26 38t15.5 44.5l60 304h79 l-96 -495h-80zM236 689q16 0 31.5 -6.5t30.5 -14t29 -14t27 -6.5q14 0 28 9t32 32l43 -28q-24 -46 -53 -64t-55 -18q-17 0 -32.5 6t-30.5 13.5t-29 14t-27 6.5q-15 0 -27.5 -10.5t-31.5 -30.5l-45 30q23 39 52 60t58 21z" />
<glyph unicode="&#x16a;" horiz-adv-x="513" d="M552 696q-23 -116 -45 -230t-44 -229q-9 -52 -27 -96.5t-46.5 -77t-69 -51t-95.5 -18.5q-59 0 -94.5 18.5t-53.5 49.5t-21.5 70.5t3.5 81.5q10 54 22.5 118.5t25 130t24 126t20.5 107.5h82q-9 -45 -21 -107.5t-25 -130t-25.5 -132t-21.5 -113.5q-5 -24 -5 -48.5t9 -44 t28.5 -31.5t52.5 -12q39 0 66 13.5t45 36.5t28.5 53.5t16.5 63.5l88 452h83zM226 760l14 71h253l-14 -71h-253z" />
<glyph unicode="&#x16b;" horiz-adv-x="444" d="M270 0l11 53h-3q-28 -32 -60.5 -45.5t-64.5 -13.5q-62 0 -92.5 36t-22.5 97q0 5 6 39t16 85.5t22.5 115t24.5 128.5h80q-11 -56 -22 -113.5t-20 -105t-15 -79t-6 -35.5q-3 -18 -2 -34t7.5 -28.5t21 -20t40.5 -7.5q21 0 40 10t34.5 26.5t26 38t15.5 44.5l60 304h79 l-96 -495h-80zM159 594l14 71h254l-15 -71h-253z" />
<glyph unicode="&#x16c;" horiz-adv-x="513" d="M552 696q-23 -116 -45 -230t-44 -229q-9 -52 -27 -96.5t-46.5 -77t-69 -51t-95.5 -18.5q-59 0 -94.5 18.5t-53.5 49.5t-21.5 70.5t3.5 81.5q10 54 22.5 118.5t25 130t24 126t20.5 107.5h82q-9 -45 -21 -107.5t-25 -130t-25.5 -132t-21.5 -113.5q-5 -24 -5 -48.5t9 -44 t28.5 -31.5t52.5 -12q39 0 66 13.5t45 36.5t28.5 53.5t16.5 63.5l88 452h83zM310 859q0 -2 -0.5 -4.5t-0.5 -4.5q0 -20 13 -38t44 -18q38 0 58.5 21t25.5 44h70q-6 -23 -17.5 -46t-31 -41t-47 -29.5t-64.5 -11.5q-33 0 -55.5 8.5t-36.5 23t-20.5 34t-6.5 40.5v11t1 11h68z " />
<glyph unicode="&#x16d;" horiz-adv-x="444" d="M270 0l11 53h-3q-28 -32 -60.5 -45.5t-64.5 -13.5q-62 0 -92.5 36t-22.5 97q0 5 6 39t16 85.5t22.5 115t24.5 128.5h80q-11 -56 -22 -113.5t-20 -105t-15 -79t-6 -35.5q-3 -18 -2 -34t7.5 -28.5t21 -20t40.5 -7.5q21 0 40 10t34.5 26.5t26 38t15.5 44.5l60 304h79 l-96 -495h-80zM238 699q-1 -10 1.5 -21.5t9.5 -21.5t18.5 -16.5t28.5 -6.5t31 6t24.5 15.5t17.5 21.5t9 23h73q-6 -23 -18 -46t-31.5 -41.5t-46.5 -30t-63 -11.5q-37 0 -61.5 10.5t-39 28.5t-19 41.5t-1.5 48.5h67z" />
<glyph unicode="&#x16e;" horiz-adv-x="513" d="M552 696q-23 -116 -45 -230t-44 -229q-9 -52 -27 -96.5t-46.5 -77t-69 -51t-95.5 -18.5q-59 0 -94.5 18.5t-53.5 49.5t-21.5 70.5t3.5 81.5q10 54 22.5 118.5t25 130t24 126t20.5 107.5h82q-9 -45 -21 -107.5t-25 -130t-25.5 -132t-21.5 -113.5q-5 -24 -5 -48.5t9 -44 t28.5 -31.5t52.5 -12q39 0 66 13.5t45 36.5t28.5 53.5t16.5 63.5l88 452h83zM350 706q-35 0 -57 22t-22 55q0 22 9 42t24.5 35.5t36 24.5t44.5 9q35 0 57 -22t22 -55q0 -24 -10 -44.5t-26 -35.5t-36.5 -23t-41.5 -8zM376 851q-24 0 -42.5 -18.5t-18.5 -42.5 q0 -19 11.5 -30.5t30.5 -11.5q24 0 43 18t19 44q0 17 -12 29t-31 12z" />
<glyph unicode="&#x16f;" horiz-adv-x="444" d="M270 0l11 53h-3q-28 -32 -60.5 -45.5t-64.5 -13.5q-62 0 -92.5 36t-22.5 97q0 5 6 39t16 85.5t22.5 115t24.5 128.5h80q-11 -56 -22 -113.5t-20 -105t-15 -79t-6 -35.5q-3 -18 -2 -34t7.5 -28.5t21 -20t40.5 -7.5q21 0 40 10t34.5 26.5t26 38t15.5 44.5l60 304h79 l-96 -495h-80zM289 544q-35 0 -57 22t-22 55q0 22 9 42t24.5 35.5t36 24.5t44.5 9q35 0 57 -22t22 -55q0 -24 -10 -44.5t-26 -35.5t-36.5 -23t-41.5 -8zM315 689q-24 0 -42.5 -18.5t-18.5 -42.5q0 -19 11.5 -30.5t30.5 -11.5q24 0 43 18t19 44q0 17 -12 29t-31 12z" />
<glyph unicode="&#x170;" horiz-adv-x="513" d="M552 696q-23 -116 -45 -230t-44 -229q-9 -52 -27 -96.5t-46.5 -77t-69 -51t-95.5 -18.5q-59 0 -94.5 18.5t-53.5 49.5t-21.5 70.5t3.5 81.5q10 54 22.5 118.5t25 130t24 126t20.5 107.5h82q-9 -45 -21 -107.5t-25 -130t-25.5 -132t-21.5 -113.5q-5 -24 -5 -48.5t9 -44 t28.5 -31.5t52.5 -12q39 0 66 13.5t45 36.5t28.5 53.5t16.5 63.5l88 452h83zM398 767l163 117l43 -59l-180 -97zM242 767l151 117l48 -59l-170 -97z" />
<glyph unicode="&#x171;" horiz-adv-x="444" d="M270 0l11 53h-3q-28 -32 -60.5 -45.5t-64.5 -13.5q-62 0 -92.5 36t-22.5 97q0 5 6 39t16 85.5t22.5 115t24.5 128.5h80q-11 -56 -22 -113.5t-20 -105t-15 -79t-6 -35.5q-3 -18 -2 -34t7.5 -28.5t21 -20t40.5 -7.5q21 0 40 10t34.5 26.5t26 38t15.5 44.5l60 304h79 l-96 -495h-80zM319 572l104 173l71 -25l-130 -167zM204 572l104 173l71 -25l-131 -167z" />
<glyph unicode="&#x172;" horiz-adv-x="513" d="M220 -178q-35 0 -55 20.5t-20 50.5q0 23 11 47t38 56q-48 5 -77.5 25t-44.5 50t-17 67t4 76q10 54 22.5 118.5t25 130t24 126t20.5 107.5h82q-9 -45 -21 -107.5t-25 -130t-25.5 -132t-21.5 -113.5q-5 -24 -5 -48.5t9 -44t28.5 -31.5t52.5 -12q39 0 66 13.5t45 36.5 t28.5 53.5t16.5 63.5l88 452h83q-23 -116 -45 -230t-44 -229q-9 -49 -25.5 -91.5t-42 -74.5t-61.5 -52t-85 -24q-40 -47 -40 -84q0 -32 37 -32q21 0 56 18l9 -50q-20 -11 -44 -18t-47 -7z" />
<glyph unicode="&#x173;" horiz-adv-x="444" d="M290 -179q-35 0 -55 20.5t-20 50.5q0 24 12.5 49.5t42.5 60.5l11 51h-3q-28 -32 -60.5 -45.5t-64.5 -13.5q-62 0 -92.5 36t-22.5 97q0 5 6 39t16 85.5t22.5 115t24.5 128.5h80q-11 -56 -22 -113.5t-20 -105t-15 -79t-6 -35.5q-3 -18 -2 -34t7.5 -28.5t21 -20t40.5 -7.5 q21 0 40 10t34.5 26.5t26 38t15.5 44.5l60 304h79l-96 -495h-26q-45 -51 -45 -90q0 -32 37 -32q21 0 56 18l9 -50q-20 -11 -44 -18t-47 -7z" />
<glyph unicode="&#x174;" horiz-adv-x="694" d="M497 0h-75l-8 314l-6 218h-3l-87 -215l-130 -317h-75v696h84l-6 -265l-8 -251h4l88 211l127 305h75l8 -311l6 -207h4l66 196l119 322h88zM465 815l-152 -82l-27 33l165 125h50l109 -123l-35 -33z" />
<glyph unicode="&#x175;" horiz-adv-x="628" d="M328 376q-19 -58 -37 -106t-38 -91.5t-42.5 -86.5t-49.5 -92h-80l-37 495h83l11 -240q1 -17 1.5 -33t1 -32.5t0.5 -35.5t-1 -41h4q47 85 85.5 181.5t75.5 200.5h90l13 -212q2 -37 2.5 -76t-1.5 -90h3q25 45 46 87.5t40.5 87.5t37.5 94.5t38 108.5h83q-23 -71 -47.5 -134 t-53 -122.5t-61 -118.5t-69.5 -120h-79l-13 238q-1 26 -2 63.5t1 74.5h-5zM386 656l-151 -104l-32 33l168 146h50l106 -144l-43 -34z" />
<glyph unicode="&#x176;" horiz-adv-x="437" d="M253 386l72 123q27 48 54.5 94t54.5 93h89l-249 -405l-57 -291h-80l57 291q-23 102 -46 202.5t-46 202.5h81l48 -235q4 -14 8.5 -35.5t8.5 -38.5zM336 815l-152 -82l-27 33l165 125h50l109 -123l-35 -33z" />
<glyph unicode="&#x177;" horiz-adv-x="375" d="M408 495q-30 -89 -57.5 -164t-55.5 -141.5t-57 -126t-63 -115.5q-45 -73 -103.5 -112t-133.5 -38l-3 71q52 7 93.5 33.5t71.5 76.5l-56 516h83l18 -222q4 -43 6.5 -98.5t0.5 -104.5h3q24 44 47 96.5t44.5 108t41.5 112t37 108.5h83zM251 656l-151 -104l-32 33l168 146h50 l106 -144l-43 -34z" />
<glyph unicode="&#x178;" horiz-adv-x="437" d="M253 386l72 123q27 48 54.5 94t54.5 93h89l-249 -405l-57 -291h-80l57 291q-23 102 -46 202.5t-46 202.5h81l48 -235q4 -14 8.5 -35.5t8.5 -38.5zM195 748l16 84h78l-16 -84h-78zM362 748l16 84h78l-16 -84h-78z" />
<glyph unicode="&#x179;" horiz-adv-x="408" d="M262 767l168 117l42 -59l-185 -97zM-14 0l15 77l374 544h-257l15 75h345l-14 -72l-374 -548h267l-14 -76h-357z" />
<glyph unicode="&#x17a;" horiz-adv-x="366" d="M-19 0l14 71l287 352h-205l13 71h296l-13 -69l-284 -349h216l-15 -76h-309zM215 572l104 173l71 -25l-130 -167z" />
<glyph unicode="&#x17b;" horiz-adv-x="408" d="M-14 0l15 77l374 544h-257l15 75h345l-14 -72l-374 -548h267l-14 -76h-357zM275 747l16 84h78l-16 -84h-78z" />
<glyph unicode="&#x17c;" horiz-adv-x="366" d="M-19 0l14 71l287 352h-205l13 71h296l-13 -69l-284 -349h216l-15 -76h-309zM208 587l16 84h78l-16 -84h-78z" />
<glyph unicode="&#x17d;" horiz-adv-x="408" d="M-14 0l15 77l374 544h-257l15 75h345l-14 -72l-374 -548h267l-14 -76h-357zM329 811l152 81l25 -34l-161 -124h-50l-113 124l38 32z" />
<glyph unicode="&#x17e;" horiz-adv-x="366" d="M-19 0l14 71l287 352h-205l13 71h296l-13 -69l-284 -349h216l-15 -76h-309zM403 732l30 -35l-161 -144h-50l-111 146l42 33l104 -102z" />
<glyph unicode="&#x192;" horiz-adv-x="440" d="M136 421h88l18 79q7 34 20 69.5t34 64t52.5 46.5t75.5 18q41 0 70 -13q-2 -5 -5.5 -15t-7 -21.5t-7 -21.5t-4.5 -15q-12 5 -28 7.5t-29 2.5q-20 0 -35 -9.5t-26 -25t-18.5 -37t-12.5 -45.5l-19 -84h94l-6 -71h-104l-51 -236q-10 -48 -23.5 -85.5t-33 -64t-46.5 -40.5 t-64 -14q-19 0 -42 5t-40 13q2 5 5.5 14t7.5 18.5t8 18t6 13.5q14 -6 27.5 -8.5t24.5 -2.5q38 0 57.5 34.5t33.5 97.5l52 237h-78z" />
<glyph unicode="&#x1a0;" horiz-adv-x="528" d="M454 203q-19 -101 -75 -155t-147 -54q-57 0 -96 18.5t-61 49.5t-28 71.5t2 84.5l54 276q7 35 21.5 72t41 67t66 49t95.5 19q46 0 79.5 -14t56.5 -37q32 2 47.5 21t25.5 70l7 34h70l-6 -37q-12 -65 -36 -102.5t-72 -49.5q15 -46 6 -96zM425 490q3 16 1.5 38.5t-12.5 43.5 t-34.5 35.5t-64.5 14.5q-34 0 -57 -13.5t-38.5 -33t-23.5 -42.5t-12 -42l-52 -275q-6 -28 -4 -54t13 -46.5t33.5 -32.5t58.5 -12q53 0 88.5 33t46.5 91z" />
<glyph unicode="&#x1a1;" horiz-adv-x="471" d="M258 500q41 0 69.5 -12.5t47.5 -34.5q31 2 47 21t25 70l7 34h70l-6 -37q-13 -67 -37.5 -104.5t-75.5 -48.5q4 -17 4 -39q0 -30 -5.5 -65t-11.5 -65q-11 -54 -27 -95.5t-40 -70.5t-58.5 -44t-82.5 -15q-41 0 -69 12t-45.5 32.5t-25.5 46.5t-8 54q0 39 5 75t12 68 q10 47 26 87t37 66q54 65 142 65zM252 428q-42 0 -69 -30q-16 -17 -29 -46t-23 -66q-8 -29 -12.5 -62.5t-6.5 -59.5q-1 -18 1.5 -35.5t11 -31t24.5 -22t42 -8.5q42 0 63 21.5t35 56.5q9 22 16.5 48.5t13 53.5t8.5 52t3 45q0 42 -21.5 63t-56.5 21z" />
<glyph unicode="&#x1af;" horiz-adv-x="568" d="M552 696l-9 -46q31 2 46.5 21.5t24.5 69.5l7 34h71q-2 -10 -3.5 -19t-3.5 -18q-8 -40 -19.5 -69.5t-29.5 -49t-44 -29t-63 -9.5q-17 -87 -33.5 -172.5t-32.5 -171.5q-9 -52 -27 -96.5t-46.5 -77t-69 -51t-95.5 -18.5q-59 0 -94.5 18.5t-53.5 49.5t-21.5 70.5t3.5 81.5 q10 54 22.5 118.5t25 130t24 126t20.5 107.5h82q-9 -45 -21 -107.5t-25 -130t-25.5 -132t-21.5 -113.5q-5 -24 -5 -48.5t9 -44t28.5 -31.5t52.5 -12q39 0 66 13.5t45 36.5t28.5 53.5t16.5 63.5l88 452h83z" />
<glyph unicode="&#x1b0;" horiz-adv-x="516" d="M270 0l11 53h-3q-28 -32 -60.5 -45.5t-64.5 -13.5q-62 0 -92.5 36t-22.5 97q0 5 6 39t16 85.5t22.5 115t24.5 128.5h80q-11 -56 -22 -113.5t-20 -105t-15 -79t-6 -35.5q-3 -18 -2 -34t7.5 -28.5t21 -20t40.5 -7.5q21 0 40 10t34.5 26.5t26 38t15.5 44.5l60 304h79l-8 -41 q31 2 46.5 21.5t24.5 69.5l7 33h71l-7 -36q-8 -40 -19.5 -69.5t-29.5 -49t-44 -29t-63 -9.5l-74 -385h-80z" />
<glyph unicode="&#x1fc;" horiz-adv-x="801" d="M397 193h-207l-122 -193h-86q110 175 220 348t220 348h415l-11 -78h-285l-33 -228h245l-10 -75h-245l-33 -235h286l-11 -80h-370zM238 268h169l52 351h-2zM543 766q42 30 84 59t84 59l42 -59q-46 -25 -92 -49t-93 -49z" />
<glyph unicode="&#x1fd;" horiz-adv-x="678" d="M526 501q71 0 109 -33.5t38 -90.5q0 -77 -55 -124.5t-169 -50.5q-15 0 -31.5 0.5t-33.5 1.5q-2 -14 -4 -27t-2 -24q0 -45 17.5 -65t58.5 -20q30 0 59 17t43 42l60 -36q-25 -45 -68.5 -71t-104.5 -26q-52 0 -83 19t-45 55q-29 -42 -75 -58t-94 -16q-33 0 -57 9.5t-39 25.5 t-22 37.5t-7 45.5q0 85 54.5 132.5t149.5 47.5q21 -1 41 -3t49 -6l12 70q6 35 -12.5 53.5t-62.5 18.5q-34 0 -60.5 -11.5t-39.5 -35.5l-59 38q23 40 67.5 62.5t100.5 22.5q18 0 38 -3t38.5 -9.5t33.5 -17t24 -24.5q24 23 57 38.5t74 15.5zM301 218q-24 3 -41 5t-35 3 q-25 0 -48 -5.5t-40 -17t-27.5 -30t-10.5 -44.5q0 -27 18.5 -43t57.5 -16q40 0 73 23t41 62zM518 424q-29 0 -48.5 -10t-33.5 -29.5t-23 -47.5t-16 -63q13 -1 25 -1.5t24 -0.5q75 0 110.5 24.5t35.5 69.5q0 26 -20 42t-54 16zM392 572l104 173l71 -25l-130 -167z" />
<glyph unicode="&#x1fe;" horiz-adv-x="497" d="M454 203q-19 -101 -75 -155t-147 -54q-49 0 -84 13t-58 36l-35 -50l-33 25l42 61q-31 60 -15 139l54 276q7 35 21.5 72t41 67t66 49t95.5 19q46 0 79 -13.5t56 -36.5l35 51l36 -25l-44 -64q14 -28 17.5 -59.5t-1.5 -63.5zM425 490q3 16 2 35l-286 -410q11 -20 33.5 -32 t58.5 -12q53 0 88.5 33t46.5 91zM132 216q-2 -12 -3.5 -24t-1.5 -23l284 409q-12 19 -35 31.5t-61 12.5q-34 0 -57 -13.5t-38.5 -33t-23.5 -42.5t-12 -42zM301 767l168 117l43 -59l-185 -97z" />
<glyph unicode="&#x1ff;" horiz-adv-x="429" d="M258 500q34 0 59.5 -9t43.5 -25l35 47l33 -23l-41 -55q21 -38 21 -86q0 -30 -5.5 -65t-11.5 -65q-11 -54 -27 -95.5t-40 -70.5t-58.5 -44t-82.5 -15q-34 0 -59 8.5t-42 22.5l-33 -45l-31 23l38 52q-11 18 -16 39.5t-5 44.5q0 39 5 75t12 68q10 47 26 87t37 66 q54 65 142 65zM252 428q-42 0 -69 -30q-16 -17 -29 -46t-23 -66q-8 -29 -12.5 -62.5t-6.5 -59.5q-2 -19 1 -33q50 68 99.5 135t100.5 135q-21 27 -61 27zM130 89q9 -11 23.5 -16.5t37.5 -5.5q42 0 63 21.5t35 56.5q9 22 16.5 48.5t13 53.5t8.5 52t3 45q0 8 -1 12zM258 572 l104 173l71 -25l-130 -167z" />
<glyph unicode="&#x218;" horiz-adv-x="472" d="M321 702q35 0 63.5 -9t50 -24.5t36 -35t21.5 -40.5l-75 -45q-13 35 -42 54t-66 19q-30 0 -53 -10.5t-38.5 -28t-23.5 -41t-8 -49.5q0 -25 10 -41t27.5 -27.5t42 -20t53.5 -18.5q72 -25 100.5 -63.5t28.5 -97.5q0 -49 -15.5 -91.5t-46 -73.5t-75 -48.5t-101.5 -17.5 q-81 0 -129 35t-64 92l78 39q14 -35 42.5 -60t82.5 -25q36 0 61.5 12.5t42 32.5t24.5 44.5t8 49.5q0 23 -6.5 39t-19 27t-31 19.5t-42.5 16.5q-44 14 -74 29.5t-49 35t-27.5 43.5t-8.5 56q0 51 15.5 92.5t45 70.5t70.5 44.5t92 15.5zM142 -254h-47l48 88h-28l21 105h94 l-20 -103z" />
<glyph unicode="&#x219;" horiz-adv-x="401" d="M248 501q58 0 96.5 -25.5t52.5 -70.5l-70 -37q-9 28 -29.5 42.5t-58.5 14.5q-41 0 -66.5 -22.5t-25.5 -56.5q0 -24 24 -35.5t66 -22.5q27 -7 49 -16t38 -23t25 -34t9 -47q0 -42 -14.5 -74.5t-40 -54.5t-60.5 -33.5t-77 -11.5q-60 0 -103 26.5t-56 77.5l67 36 q12 -30 35.5 -47.5t63.5 -17.5q19 0 38 5.5t33 16.5t23 27.5t9 37.5q0 17 -8.5 27t-23 17t-33.5 11.5t-41 10.5q-51 17 -77 41.5t-26 71.5q0 38 14 69t38 52.5t57 33t72 11.5zM105 -254h-47l48 88h-28l21 105h94l-20 -103z" />
<glyph unicode="&#x259;" horiz-adv-x="414" d="M181 -6q-69 0 -108.5 32.5t-39.5 89.5q0 40 16.5 72.5t47 56t73.5 36.5t97 13q14 0 28 -1t28 -3q6 25 6 53q0 33 -15 57t-56 24q-27 0 -58 -15t-49 -41l-61 35q25 45 69 71.5t105 26.5q39 0 66 -11.5t44 -32.5t24.5 -49.5t7.5 -62.5q0 -58 -11 -120t-37.5 -113.5 t-69.5 -84.5t-107 -33zM187 67q55 0 82.5 41t41.5 112q-13 2 -25.5 3t-24.5 1q-33 0 -60 -7.5t-47 -20t-31 -30.5t-11 -39q0 -26 20.5 -43t54.5 -17z" />
<glyph unicode="&#x2b9;" horiz-adv-x="250" d="M325 670l-183 -266l-52 18l145 272z" />
<glyph unicode="&#x2c6;" horiz-adv-x="431" d="M314 656l-151 -104l-32 33l168 146h50l106 -144l-43 -34z" />
<glyph unicode="&#x2c7;" horiz-adv-x="431" d="M446 732l30 -35l-161 -144h-50l-111 146l42 33l104 -102z" />
<glyph unicode="&#x2d8;" horiz-adv-x="441" d="M238 699q-1 -10 1.5 -21.5t9.5 -21.5t18.5 -16.5t28.5 -6.5t31 6t24.5 15.5t17.5 21.5t9 23h73q-6 -23 -18 -46t-31.5 -41.5t-46.5 -30t-63 -11.5q-37 0 -61.5 10.5t-39 28.5t-19 41.5t-1.5 48.5h67z" />
<glyph unicode="&#x2d9;" horiz-adv-x="414" d="M224 587l16 84h78l-16 -84h-78z" />
<glyph unicode="&#x2da;" horiz-adv-x="428" d="M293 544q-35 0 -57 22t-22 55q0 22 9 42t24.5 35.5t36 24.5t44.5 9q35 0 57 -22t22 -55q0 -24 -10 -44.5t-26 -35.5t-36.5 -23t-41.5 -8zM319 689q-24 0 -42.5 -18.5t-18.5 -42.5q0 -19 11.5 -30.5t30.5 -11.5q24 0 43 18t19 44q0 17 -12 29t-31 12z" />
<glyph unicode="&#x2db;" horiz-adv-x="338" d="M210 -180q-35 0 -55 20.5t-20 50.5q0 24 12.5 50t43.5 61h53l1 -2q-46 -53 -46 -91q0 -32 37 -32q21 0 56 18l9 -50q-20 -11 -44 -18t-47 -7z" />
<glyph unicode="&#x2dc;" horiz-adv-x="427" d="M247 689q16 0 31.5 -6.5t30.5 -14t29 -14t27 -6.5q14 0 28 9t32 32l43 -28q-24 -46 -53 -64t-55 -18q-17 0 -32.5 6t-30.5 13.5t-29 14t-27 6.5q-15 0 -27.5 -10.5t-31.5 -30.5l-45 30q23 39 52 60t58 21z" />
<glyph unicode="&#x2dd;" horiz-adv-x="428" d="M298 572l104 173l71 -25l-130 -167zM183 572l104 173l71 -25l-131 -167z" />
<glyph unicode="&#x384;" horiz-adv-x="424" d="M235 572l104 173l71 -25l-130 -167z" />
<glyph unicode="&#x385;" horiz-adv-x="373" d="M335 589l16 85h77l-17 -85h-76zM109 589l17 85h77l-16 -85h-78zM195 572l104 173l71 -25l-130 -167z" />
<glyph unicode="&#x386;" horiz-adv-x="491" d="M360 0l-11 158h-221l-73 -158h-87l335 696h75l65 -696h-83zM330 413l-11 159h-3l-69 -157l-86 -182h183zM8 552l104 173l71 -25l-130 -167z" />
<glyph unicode="&#x387;" horiz-adv-x="216" d="M75 292l19 102h95l-19 -102h-95z" />
<glyph unicode="&#x388;" horiz-adv-x="449" d="M24 0l135 696h365l-16 -77h-282l-44 -229h242l-14 -75h-242l-47 -238h282l-14 -77h-365zM-61 552l104 173l71 -25l-130 -167z" />
<glyph unicode="&#x389;" horiz-adv-x="525" d="M339 0l61 317h-232l-61 -317h-83l135 696h83l-60 -306h232l60 306h82l-135 -696h-82zM-60 552l104 173l71 -25l-130 -167z" />
<glyph unicode="&#x38a;" horiz-adv-x="214" d="M25 0l136 696h83l-135 -696h-84zM-63 552l104 173l71 -25l-130 -167z" />
<glyph unicode="&#x38c;" horiz-adv-x="497" d="M454 203q-19 -101 -75 -155t-147 -54q-57 0 -96 18.5t-61 49.5t-28 71.5t2 84.5l54 276q7 35 21.5 72t41 67t66 49t95.5 19q54 0 91 -19t58.5 -49t28.5 -67.5t0 -75.5zM425 490q3 16 1.5 38.5t-12.5 43.5t-34.5 35.5t-64.5 14.5q-34 0 -57 -13.5t-38.5 -33t-23.5 -42.5 t-12 -42l-52 -275q-6 -28 -4 -54t13 -46.5t33.5 -32.5t58.5 -12q53 0 88.5 33t46.5 91zM-51 552l104 173l71 -25l-130 -167z" />
<glyph unicode="&#x38e;" horiz-adv-x="437" d="M253 386l72 123q27 48 54.5 94t54.5 93h89l-249 -405l-57 -291h-80l57 291q-23 102 -46 202.5t-46 202.5h81l48 -235q4 -14 8.5 -35.5t8.5 -38.5zM-93 552l104 173l71 -25l-130 -167z" />
<glyph unicode="&#x38f;" horiz-adv-x="491" d="M82 78q-22 17 -30.5 41.5t-8.5 54.5q0 16 2.5 40t8.5 58l31 161q5 29 13 58t19 60q25 69 79 110t134 41q44 0 76.5 -13t54 -35.5t32 -54.5t10.5 -69q0 -10 -2 -34.5t-7 -48.5q-6 -34 -13.5 -71.5t-15.5 -79.5q-5 -29 -12 -59.5t-17 -62.5q-11 -31 -27.5 -54.5 t-39.5 -40.5v-1h67l-15 -78h-172l19 92q26 8 45 26t30 42q13 33 22 65t15 63l31 158q5 20 6.5 36t1.5 33q0 46 -23.5 78.5t-78.5 32.5q-42 0 -71.5 -21.5t-44.5 -53.5q-22 -57 -32 -109l-37 -191q-5 -20 -6.5 -35.5t-1.5 -26.5q0 -31 12 -58.5t44 -38.5l-18 -92h-171 q4 19 7 38.5t7 39.5h77zM-57 552l104 173l71 -25l-130 -167z" />
<glyph unicode="&#x390;" horiz-adv-x="215" d="M132 -1q-8 -1 -11 -1h-8q-30 0 -47 7.5t-25 21t-8.5 32.5t3.5 42l78 393h79l-74 -379q-2 -8 -3 -15.5t1.5 -13.5t9.5 -10t21 -6zM118 572l104 173l71 -25l-130 -167zM32 589l17 85h77l-16 -85h-78zM258 589l16 85h77l-17 -85h-76z" />
<glyph unicode="&#x391;" horiz-adv-x="491" d="M360 0l-11 158h-221l-73 -158h-87l335 696h75l65 -696h-83zM330 413l-11 159h-3l-69 -157l-86 -182h183z" />
<glyph unicode="&#x392;" horiz-adv-x="500" d="M386 362q0 -1 -0.5 -1.5t-0.5 -1.5q42 -14 59.5 -49t17.5 -83q-4 -65 -25.5 -108.5t-56 -70t-79.5 -37.5t-96 -11h-182l136 696h186q78 0 121.5 -35.5t43.5 -110.5q0 -77 -32 -123t-92 -65zM169 325q-12 -63 -24 -124.5t-25 -124.5h124q33 0 59 13.5t43 35.5t26 51t9 60 q0 43 -26 66t-73 23h-113zM227 621l-44 -224h80q33 0 63 7t53 23.5t36.5 43.5t13.5 66q0 43 -28 63.5t-73 20.5h-101z" />
<glyph unicode="&#x393;" horiz-adv-x="436" d="M226 618l-119 -618h-83l135 696h357l-16 -78h-274z" />
<glyph unicode="&#x394;" horiz-adv-x="491" d="M-30 0q83 175 166 348t167 348h75l64 -696h-472zM314 554q-14 -29 -33 -70.5t-41 -89.5q-5 -9 -16.5 -34t-26.5 -58t-32 -69t-32.5 -68.5t-27 -57t-15.5 -32.5h264l-26 324q0 7 -1.5 29.5t-3.5 48t-3.5 48t-2.5 29.5h-3z" />
<glyph unicode="&#x395;" horiz-adv-x="449" d="M24 0l135 696h365l-16 -77h-282l-44 -229h242l-14 -75h-242l-47 -238h282l-14 -77h-365z" />
<glyph unicode="&#x396;" horiz-adv-x="408" d="M-14 0l15 77l374 544h-257l15 75h345l-14 -72l-374 -548h267l-14 -76h-357z" />
<glyph unicode="&#x397;" horiz-adv-x="525" d="M339 0l61 317h-232l-61 -317h-83l135 696h83l-60 -306h232l60 306h82l-135 -696h-82z" />
<glyph unicode="&#x398;" horiz-adv-x="497" d="M454 203q-19 -101 -75 -155t-147 -54q-57 0 -96 18.5t-61 49.5t-28 71.5t2 84.5l54 276q7 35 21.5 72t41 67t66 49t95.5 19q54 0 91 -19t58.5 -49t28.5 -67.5t0 -75.5zM425 490q3 16 1.5 38.5t-12.5 43.5t-34.5 35.5t-64.5 14.5q-34 0 -57 -13.5t-38.5 -33t-23.5 -42.5 t-12 -42l-52 -275q-6 -28 -4 -54t13 -46.5t33.5 -32.5t58.5 -12q53 0 88.5 33t46.5 91zM191 389h181l-14 -74h-181z" />
<glyph unicode="&#x399;" horiz-adv-x="214" d="M25 0l136 696h83l-135 -696h-84z" />
<glyph unicode="&#x39a;" horiz-adv-x="510" d="M374 0q-24 87 -49 173t-49 173l-132 -150l-38 -196h-83l136 696h82l-67 -352h2l123 146l177 206h94l-231 -276l122 -420h-87z" />
<glyph unicode="&#x39b;" horiz-adv-x="491" d="M360 0l-24 347l-15 229h-4l-103 -227l-159 -349h-86l335 696h74l65 -696h-83z" />
<glyph unicode="&#x39c;" horiz-adv-x="649" d="M468 0l94 485h-4l-80 -134l-137 -215h-56l-53 219l-28 130h-3l-94 -485h-83l135 696h82l60 -269l35 -161h3l98 163l164 267h85l-136 -696h-82z" />
<glyph unicode="&#x39d;" horiz-adv-x="555" d="M375 0l-124 378l-44 139h-3l-99 -517h-83l136 696h80l121 -370l46 -142h3l99 512h82l-135 -696h-79z" />
<glyph unicode="&#x39e;" horiz-adv-x="458" d="M126 618l15 78h366l-15 -78h-366zM107 315l14 75h287l-14 -75h-287zM6 0l16 81h366l-16 -81h-366z" />
<glyph unicode="&#x39f;" horiz-adv-x="497" d="M454 203q-19 -101 -75 -155t-147 -54q-57 0 -96 18.5t-61 49.5t-28 71.5t2 84.5l54 276q7 35 21.5 72t41 67t66 49t95.5 19q54 0 91 -19t58.5 -49t28.5 -67.5t0 -75.5zM425 490q3 16 1.5 38.5t-12.5 43.5t-34.5 35.5t-64.5 14.5q-34 0 -57 -13.5t-38.5 -33t-23.5 -42.5 t-12 -42l-52 -275q-6 -28 -4 -54t13 -46.5t33.5 -32.5t58.5 -12q53 0 88.5 33t46.5 91z" />
<glyph unicode="&#x3a0;" horiz-adv-x="519" d="M333 0l120 623h-226l-120 -623h-83l135 696h391l-135 -696h-82z" />
<glyph unicode="&#x3a1;" horiz-adv-x="478" d="M107 0h-83l135 696h192q80 0 124.5 -39t44.5 -114q0 -56 -15 -104t-45 -83.5t-74.5 -55.5t-102.5 -20h-122zM435 524q0 45 -25.5 70t-77.5 25h-106l-50 -261h111q37 0 65 13t46.5 35.5t27.5 52.5t9 65z" />
<glyph unicode="&#x3a3;" horiz-adv-x="403" d="M-16 0l15 72l188 286l-82 269l14 69h346l-15 -76h-256l84 -262l-188 -281h267l-15 -77h-358z" />
<glyph unicode="&#x3a4;" horiz-adv-x="398" d="M321 621l-121 -621h-82l120 621h-157l15 75h396l-15 -75h-156z" />
<glyph unicode="&#x3a5;" horiz-adv-x="437" d="M253 386l72 123q27 48 54.5 94t54.5 93h89l-249 -405l-57 -291h-80l57 291q-23 102 -46 202.5t-46 202.5h81l48 -235q4 -14 8.5 -35.5t8.5 -38.5z" />
<glyph unicode="&#x3a6;" horiz-adv-x="606" d="M232 56h-1q-91 12 -131.5 62t-40.5 138q0 54 7 102t21 90q32 99 97.5 154t163.5 59l8 35h83l-7 -35q43 -3 75.5 -19t54.5 -43t33 -63t11 -77q0 -50 -5 -90.5t-15 -79.5q-29 -111 -100.5 -169.5t-170.5 -63.5l-11 -56h-83zM334 587q-42 -2 -77.5 -26t-61 -66t-40 -100 t-14.5 -129q0 -63 23.5 -96.5t80.5 -39.5zM331 130q42 3 78 22t62.5 57.5t41 97t14.5 141.5q0 65 -28 100.5t-79 38.5z" />
<glyph unicode="&#x3a7;" horiz-adv-x="445" d="M316 0l-74 282l-184 -282h-92l245 361l-97 335h86l66 -258l167 258h92l-229 -335l106 -361h-86z" />
<glyph unicode="&#x3a8;" horiz-adv-x="601" d="M574 340q-17 -87 -79.5 -142t-165.5 -59l-27 -139h-82l26 139q-48 5 -82.5 24t-55.5 49.5t-27 71t3 88.5l65 324h82l-63 -324q-13 -66 9 -106t85 -46l93 476h82l-92 -476q56 1 96.5 36t52.5 96l67 344h83l-70 -356v0z" />
<glyph unicode="&#x3a9;" horiz-adv-x="491" d="M82 78q-22 17 -30.5 41.5t-8.5 54.5q0 16 2.5 40t8.5 58l31 161q5 29 13 58t19 60q25 69 79 110t134 41q44 0 76.5 -13t54 -35.5t32 -54.5t10.5 -69q0 -10 -2 -34.5t-7 -48.5q-6 -34 -13.5 -71.5t-15.5 -79.5q-5 -29 -12 -59.5t-17 -62.5q-11 -31 -27.5 -54.5 t-39.5 -40.5v-1h67l-15 -78h-172l19 92q26 8 45 26t30 42q13 33 22 65t15 63l31 158q5 20 6.5 36t1.5 33q0 46 -23.5 78.5t-78.5 32.5q-42 0 -71.5 -21.5t-44.5 -53.5q-22 -57 -32 -109l-37 -191q-5 -20 -6.5 -35.5t-1.5 -26.5q0 -31 12 -58.5t44 -38.5l-18 -92h-171 q4 19 7 38.5t7 39.5h77v0z" />
<glyph unicode="&#x3aa;" horiz-adv-x="214" d="M25 0l136 696h83l-135 -696h-84zM258 748l16 84h78l-16 -84h-78zM91 748l16 84h78l-16 -84h-78z" />
<glyph unicode="&#x3ab;" horiz-adv-x="437" d="M253 386l72 123q27 48 54.5 94t54.5 93h89l-249 -405l-57 -291h-80l57 291q-23 102 -46 202.5t-46 202.5h81l48 -235q4 -14 8.5 -35.5t8.5 -38.5zM199 748l16 84h78l-16 -84h-78zM366 748l16 84h78l-16 -84h-78z" />
<glyph unicode="&#x3ac;" horiz-adv-x="447" d="M440 495l-96 -495h-79l9 46q-1 0 -1.5 0.5t-1.5 0.5q-25 -28 -49.5 -40.5t-65.5 -12.5q-61 0 -90.5 40t-29.5 108q0 27 4 57.5t9 56.5q10 50 25 94.5t38 77.5t56 52.5t78 19.5q33 0 61 -13.5t43 -39.5q1 0 1 0.5t1 0.5l10 47h78zM190 73q35 0 58.5 23.5t34.5 51.5 q9 23 17 49.5t13.5 52t9 49.5t3.5 43q0 37 -17.5 58t-53.5 21q-24 0 -44.5 -10.5t-36.5 -35.5q-12 -18 -22.5 -51t-18.5 -69q-6 -29 -10 -53.5t-4 -42.5q0 -17 3 -32.5t11 -27.5t21.5 -19t35.5 -7zM231 572l104 173l71 -25l-130 -167z" />
<glyph unicode="&#x3ad;" horiz-adv-x="388" d="M175 -5q-29 0 -55.5 7t-46.5 21t-32.5 36.5t-12.5 54.5q0 23 6 46t18 43t30.5 35t42.5 23v1q-25 9 -38.5 31.5t-13.5 49.5q0 37 14 66t38 49.5t56 31t67 10.5q58 0 99 -29t52 -73l-66 -34q-10 26 -29.5 44t-52.5 18q-44 0 -69 -24.5t-25 -58.5q0 -16 6.5 -25.5t17 -14 t22.5 -6t24 -1.5h59l-13 -72h-72q-16 0 -32.5 -6t-29.5 -18t-21.5 -30t-8.5 -41q0 -29 19.5 -43t49.5 -14q33 0 60.5 16t45.5 43l66 -37q-29 -52 -74.5 -75.5t-100.5 -23.5zM230 572l104 173l71 -25l-130 -167z" />
<glyph unicode="&#x3ae;" horiz-adv-x="440" d="M243 -133q7 37 17 85.5t19.5 99t19 99.5t17 88.5t12 64.5t4.5 28q3 18 1.5 34t-9.5 28.5t-23.5 19.5t-40.5 7q-43 0 -71.5 -30t-37.5 -75l-62 -316h-79l96 495h80l-11 -55h3q28 32 60.5 46t65.5 14q28 0 50.5 -9.5t38 -26.5t22.5 -41.5t3 -55.5q0 -3 -4.5 -29.5 t-12.5 -68t-18 -93.5t-20 -106.5t-20.5 -107t-18.5 -95.5h-81zM222 572l104 173l71 -25l-130 -167z" />
<glyph unicode="&#x3af;" horiz-adv-x="215" d="M132 -1q-8 -1 -11 -1h-8q-30 0 -47 7.5t-25 21t-8.5 32.5t3.5 42l78 393h79l-74 -379q-2 -8 -3 -15.5t1.5 -13.5t9.5 -10t21 -6zM127 572l104 173l71 -25l-130 -167z" />
<glyph unicode="&#x3b0;" horiz-adv-x="440" d="M446 494l-66 -333q-16 -78 -61.5 -122.5t-126.5 -44.5q-47 0 -78.5 14.5t-48.5 40t-21.5 58.5t2.5 71l61 316h79q-14 -71 -28 -141.5t-28 -142.5l-6 -34t-3 -33q0 -29 18 -50t56 -21q27 0 46 8t32.5 25t23 43t15.5 63q1 8 5.5 30t10 51t12 61t12 60.5t9.5 50.5t6 30h79z M229 572l104 173l71 -25l-130 -167zM143 589l17 85h77l-16 -85h-78zM369 589l16 85h77l-17 -85h-76z" />
<glyph unicode="&#x3b1;" horiz-adv-x="447" d="M440 495l-96 -495h-79l9 46q-1 0 -1.5 0.5t-1.5 0.5q-25 -28 -49.5 -40.5t-65.5 -12.5q-61 0 -90.5 40t-29.5 108q0 27 4 57.5t9 56.5q10 50 25 94.5t38 77.5t56 52.5t78 19.5q33 0 61 -13.5t43 -39.5q1 0 1 0.5t1 0.5l10 47h78zM190 73q35 0 58.5 23.5t34.5 51.5 q9 23 17 49.5t13.5 52t9 49.5t3.5 43q0 37 -17.5 58t-53.5 21q-24 0 -44.5 -10.5t-36.5 -35.5q-12 -18 -22.5 -51t-18.5 -69q-6 -29 -10 -53.5t-4 -42.5q0 -17 3 -32.5t11 -27.5t21.5 -19t35.5 -7z" />
<glyph unicode="&#x3b2;" horiz-adv-x="438" d="M115 522q8 40 20.5 76.5t34.5 64.5t54.5 44t80.5 16q36 0 62 -11.5t43.5 -31t26 -46t8.5 -56.5q0 -64 -25.5 -107t-72.5 -64v-1q32 -12 46 -38.5t14 -68.5q0 -45 -14 -104q-10 -44 -25 -81t-38 -63.5t-55 -41.5t-74 -15q-32 0 -57.5 14.5t-39.5 45.5q-1 0 -1 -0.5 t-1 -0.5l-36 -184h-80zM125 169q-4 -19 -2 -37t10.5 -32t24 -22.5t39.5 -8.5q47 0 74 38.5t43 103.5q5 22 7.5 41.5t2.5 35.5q0 25 -7 41t-19.5 25t-30.5 12.5t-40 3.5h-19l14 70h20q60 0 91.5 34.5t31.5 91.5q0 35 -17 59.5t-55 24.5q-23 0 -39 -8.5t-27 -21.5t-17.5 -29 t-9.5 -32z" />
<glyph unicode="&#x3b3;" horiz-adv-x="369" d="M185 157q25 43 46 84.5t40.5 82.5t38 83.5t38.5 88.5h86q-29 -67 -57 -126t-56.5 -115t-59.5 -112.5t-66 -118.5l-43 -221h-80l41 211q-3 51 -6 96t-7.5 88.5t-10 87.5t-11.5 93q-2 15 -4.5 24t-6 13t-9 5t-14.5 1h-4l6 69q27 9 46 9q32 0 44.5 -20t17.5 -50 q8 -51 14 -120.5t11 -152.5h6z" />
<glyph unicode="&#x3b4;" horiz-adv-x="422" d="M263 426q-31 -2 -52 -15.5t-36 -32.5q-13 -15 -24.5 -42t-19.5 -58t-13 -64t-5 -60q0 -38 18 -62.5t63 -24.5q23 0 40 9t31 25q13 12 25 36.5t21 55t14.5 64t5.5 63.5q0 38 -16 65t-52 41zM200 473q-26 19 -38.5 43.5t-12.5 52.5q0 40 15 69t40 48.5t57.5 29t68.5 9.5 q23 0 53.5 -3.5t67.5 -17.5l-25 -69q-25 10 -49 14t-41 4q-45 0 -76 -17t-31 -55q0 -19 11.5 -35t28.5 -29.5t38 -26.5t39 -26q26 -20 43.5 -51t17.5 -77q0 -36 -5.5 -76t-16.5 -79t-27 -73t-37 -57q-25 -27 -58.5 -42t-72.5 -15q-43 0 -72.5 12t-48 33.5t-27 51.5t-8.5 66 q0 21 3.5 47.5t8.5 50.5q8 35 19.5 70t29.5 64.5t43.5 51.5t61.5 32z" />
<glyph unicode="&#x3b5;" horiz-adv-x="388" d="M175 -5q-29 0 -55.5 7t-46.5 21t-32.5 36.5t-12.5 54.5q0 23 6 46t18 43t30.5 35t42.5 23v1q-25 9 -38.5 31.5t-13.5 49.5q0 37 14 66t38 49.5t56 31t67 10.5q58 0 99 -29t52 -73l-66 -34q-10 26 -29.5 44t-52.5 18q-44 0 -69 -24.5t-25 -58.5q0 -16 6.5 -25.5t17 -14 t22.5 -6t24 -1.5h59l-13 -72h-72q-16 0 -32.5 -6t-29.5 -18t-21.5 -30t-8.5 -41q0 -29 19.5 -43t49.5 -14q33 0 60.5 16t45.5 43l66 -37q-29 -52 -74.5 -75.5t-100.5 -23.5z" />
<glyph unicode="&#x3b6;" horiz-adv-x="363" d="M473 626q-78 -55 -143.5 -115t-113 -119.5t-74 -114.5t-26.5 -100q0 -23 8 -39.5t21.5 -29t31 -22t35.5 -18.5q54 -25 80 -48t26 -55q0 -18 -8 -37t-21 -38t-28.5 -37t-30.5 -34l-54 37l34 48q7 10 11 19t4 17q0 11 -7.5 20t-22 18t-34.5 19t-45 22q-87 43 -87 135 q0 106 80 220t247 248h-217l15 76h333z" />
<glyph unicode="&#x3b7;" horiz-adv-x="440" d="M243 -133q7 37 17 85.5t19.5 99t19 99.5t17 88.5t12 64.5t4.5 28q3 18 1.5 34t-9.5 28.5t-23.5 19.5t-40.5 7q-43 0 -71.5 -30t-37.5 -75l-62 -316h-79l96 495h80l-11 -55h3q28 32 60.5 46t65.5 14q28 0 50.5 -9.5t38 -26.5t22.5 -41.5t3 -55.5q0 -3 -4.5 -29.5 t-12.5 -68t-18 -93.5t-20 -106.5t-20.5 -107t-18.5 -95.5h-81z" />
<glyph unicode="&#x3b8;" horiz-adv-x="422" d="M390 236q-4 -20 -7.5 -35.5t-7.5 -29t-8 -26t-9 -26.5q-26 -68 -69.5 -97t-109.5 -29q-74 0 -112.5 38t-38.5 102q0 23 4 53.5t10 59.5l44 220q12 58 28.5 107.5t36.5 77.5q25 35 61 54t90 19q70 0 108 -38t38 -98q0 -32 -4 -64t-10 -64zM107 141q1 -13 5.5 -26.5 t13.5 -24t23 -17.5t35 -7q28 0 47.5 10.5t33.5 30.5q17 23 27.5 63.5t21.5 84.5l17 85h-191l-21 -106q-5 -26 -8.5 -50t-3.5 -43zM357 466q5 26 8 50.5t3 44.5q0 15 -2 27t-5 21q-17 42 -68 42q-23 0 -42 -9t-35 -29q-17 -22 -28.5 -60.5t-23.5 -94.5l-11 -52h191z" />
<glyph unicode="&#x3b9;" horiz-adv-x="215" d="M132 -1q-8 -1 -11 -1h-8q-30 0 -47 7.5t-25 21t-8.5 32.5t3.5 42l78 393h79l-74 -379q-2 -8 -3 -15.5t1.5 -13.5t9.5 -10t21 -6z" />
<glyph unicode="&#x3ba;" horiz-adv-x="432" d="M303 0l-83 242l-101 -111l-25 -131h-79l96 494h79l-47 -230h3l216 231h96l-178 -193l109 -302h-86z" />
<glyph unicode="&#x3bb;" horiz-adv-x="380" d="M354 -2q-12 -2 -22 -2.5t-18 -0.5q-60 0 -64 64l-13 144l-11 148h-2l-78 -159l-97 -192h-87l250 480l-6 121q-2 25 -10.5 38t-36.5 13h-7t-8 -1l4 72q14 3 27.5 4t23.5 1q42 0 61.5 -23.5t23.5 -74.5l40 -512q1 -17 2.5 -27t5 -15.5t9.5 -7.5t17 -2z" />
<glyph unicode="&#x3bc;" horiz-adv-x="449" d="M-21 -196q33 174 66.5 345t67.5 345h80l-64 -323q-4 -21 -3 -38.5t9 -31t24 -21t42 -7.5q49 0 75.5 36t37.5 88l58 297h79l-95 -494h-80q2 13 4.5 26t5.5 26h-3q-22 -28 -54.5 -42t-65.5 -14q-17 0 -32.5 4.5t-28.5 14.5q-1 0 -1 -0.5t-1 -0.5l-42 -210h-79z" />
<glyph unicode="&#x3bd;" horiz-adv-x="383" d="M429 494q-28 -66 -56 -127.5t-58 -121.5t-62.5 -120.5t-68.5 -124.5h-80l-52 494h82l18 -205q4 -42 6.5 -85.5t1.5 -97.5h3q51 98 94 190.5t85 197.5h87z" />
<glyph unicode="&#x3be;" horiz-adv-x="359" d="M311 722q59 0 94 -23t58 -66l-67 -42q-12 23 -30.5 39t-55.5 16q-25 0 -46.5 -10t-38 -29t-26 -45t-9.5 -59q0 -38 27 -55.5t75 -17.5h73l-13 -70h-88q-39 0 -67.5 -19t-47 -47t-27.5 -60.5t-9 -59.5q0 -29 15 -49t37.5 -34.5t49 -25.5t49 -23.5t37.5 -29t15 -40.5 q0 -19 -8.5 -39t-21 -39.5t-27.5 -38.5t-28 -35l-58 33q7 10 16 23.5t17 26.5t13 25.5t5 21.5q0 11 -7 18.5t-19 13.5t-28 11.5t-34 12.5q-48 20 -76.5 55t-28.5 95q0 39 8 77.5t25 70.5t43.5 57t64.5 37q-39 15 -52 44t-13 67q0 46 15 85t42 67.5t64.5 44.5t82.5 16z" />
<glyph unicode="&#x3bf;" horiz-adv-x="429" d="M258 500q39 0 67.5 -12t47 -32.5t27.5 -48t9 -58.5q0 -30 -5.5 -65t-11.5 -65q-11 -54 -27 -95.5t-40 -70.5t-58.5 -44t-82.5 -15q-41 0 -69 12t-45.5 32.5t-25.5 46.5t-8 54q0 39 5 75t12 68q10 47 26 87t37 66q54 65 142 65zM252 428q-42 0 -69 -30q-16 -17 -29 -46 t-23 -66q-8 -29 -12.5 -62.5t-6.5 -59.5q-1 -18 1.5 -35.5t11 -31t24.5 -22t42 -8.5q42 0 63 21.5t35 56.5q9 22 16.5 48.5t13 53.5t8.5 52t3 45q0 42 -21.5 63t-56.5 21z" />
<glyph unicode="&#x3c0;" horiz-adv-x="453" d="M276 0l83 423h-180l-82 -423h-79l96 495h338l-96 -495h-80z" />
<glyph unicode="&#x3c1;" horiz-adv-x="433" d="M-33 -196q23 116 44.5 231t43.5 231q5 25 13 53t19.5 55t27.5 50.5t36 39.5q44 36 111 36q42 0 71.5 -12.5t48 -33.5t27 -48t8.5 -56q0 -37 -6.5 -76.5t-14.5 -71.5q-23 -103 -69 -155t-127 -52q-32 0 -59.5 14t-44.5 38q-1 0 -3 -2q-11 -60 -23 -120.5t-24 -120.5h-79z M259 428q-30 0 -51.5 -14.5t-36.5 -40.5q-10 -18 -19.5 -45.5t-16.5 -57.5t-11 -59t-4 -50q0 -18 2.5 -35t10.5 -30t23 -21t40 -8q31 0 51.5 12t34 33.5t23 51t18.5 65.5q7 26 10.5 53t5.5 50q4 40 -17 68t-63 28z" />
<glyph unicode="&#x3c2;" horiz-adv-x="376" d="M268 501q68 0 101.5 -28.5t45.5 -76.5l-76 -35q-4 29 -23.5 46.5t-45.5 17.5q-36 0 -62.5 -19t-44.5 -50.5t-26.5 -74t-8.5 -88.5q0 -24 5.5 -41t18 -31t32 -26.5t46.5 -25.5q42 -20 59.5 -38t17.5 -45q0 -17 -7.5 -36.5t-20.5 -40t-29 -41t-32 -39.5q-14 10 -30 21.5 t-30 21.5q24 33 37 54t13 33t-7 20.5t-27 19.5q-71 30 -100.5 74t-29.5 111q0 81 18 140.5t48.5 99t71 58.5t86.5 19z" />
<glyph unicode="&#x3c3;" horiz-adv-x="437" d="M406 350q0 -32 -6 -71t-14 -74q-12 -49 -27.5 -88t-39 -66.5t-55.5 -42t-76 -14.5q-8 0 -17 0.5t-17 1.5q-32 3 -55 15.5t-37.5 31t-21.5 42t-7 47.5q0 31 2.5 62.5t8.5 60.5q11 55 26.5 97t38.5 74q51 68 139 68h227l-12 -66h-84q0 -1 -0.5 -1t-0.5 -1q17 -17 22.5 -36 t5.5 -40zM247 422q-48 0 -76 -35q-11 -14 -22 -40t-19.5 -57t-14 -63.5t-6.5 -60.5q-1 -19 2 -37t11.5 -31.5t24 -22t39.5 -8.5q26 0 42 7t31 23q12 13 23 40t20 59.5t15 66.5t9 63q4 40 -16.5 68t-62.5 28z" />
<glyph unicode="&#x3c4;" horiz-adv-x="283" d="M220 423l-55 -287q-6 -31 2.5 -45.5t35.5 -14.5h19l-14 -76h-37q-56 0 -78 33t-13 80l60 310h-87l14 72h265l-14 -72h-98z" />
<glyph unicode="&#x3c5;" horiz-adv-x="440" d="M446 494l-66 -333q-16 -78 -61.5 -122.5t-126.5 -44.5q-47 0 -78.5 14.5t-48.5 40t-21.5 58.5t2.5 71l61 316h79q-14 -71 -28 -141.5t-28 -142.5l-6 -34t-3 -33q0 -29 18 -50t56 -21q27 0 46 8t32.5 25t23 43t15.5 63q1 8 5.5 30t10 51t12 61t12 60.5t9.5 50.5t6 30h79z " />
<glyph unicode="&#x3c6;" horiz-adv-x="531" d="M359 501q42 0 71 -12.5t47 -33t26 -47t8 -54.5q0 -29 -3.5 -59t-8.5 -56q-10 -60 -26.5 -105.5t-44 -76.5t-68.5 -47t-100 -16l-36 -190h-80l36 190q-40 4 -67.5 17t-44.5 32.5t-24.5 45t-7.5 55.5q0 23 2 47.5t6 47.5q8 50 20.5 92.5t31 75.5t45.5 55.5t63 31.5l18 -69 q-25 -11 -41.5 -27.5t-28 -39.5t-18.5 -52.5t-14 -66.5q-3 -17 -5 -35t-3 -35q0 -20 3 -38t11.5 -32t25 -23t43.5 -10l84 435h80zM276 65q41 0 66.5 15.5t40.5 40.5q10 16 19 42.5t15.5 56.5t10 60.5t3.5 56.5q0 39 -20 64t-67 26z" />
<glyph unicode="&#x3c7;" horiz-adv-x="390" d="M254 0l-57 181q-9 -11 -27 -36.5t-37.5 -54t-37.5 -54t-27 -36.5h-96l193 254q-5 10 -12 29t-15.5 42.5t-17.5 49t-17.5 49t-16 42.5t-11.5 29h89l54 -174q8 11 25 35.5t35 52t35 51.5t25 35h96l-186 -243q7 -15 20 -50.5t27.5 -75.5t27.5 -75.5t20 -50.5h-89z" />
<glyph unicode="&#x3c8;" horiz-adv-x="540" d="M152 -196l37 190q-66 5 -106 42.5t-40 99.5q0 16 2.5 31t5.5 31q2 9 6.5 32.5t10.5 53t12 63t12 63t10 52.5t6 32h79q-14 -73 -28.5 -146.5t-28.5 -147.5q-2 -12 -5 -25t-3 -25q0 -35 21 -57t61 -25q22 109 42.5 218t42.5 218h79l-84 -436q44 0 78.5 28.5t43.5 75.5 l63 322h79q-14 -77 -29.5 -153t-29.5 -153q-8 -42 -24 -76.5t-42.5 -59.5t-64.5 -40t-89 -18q-10 -48 -19 -95t-18 -95h-80z" />
<glyph unicode="&#x3c9;" horiz-adv-x="640" d="M407 -6q-35 1 -68 15.5t-47 46.5h-3q-25 -31 -58 -46.5t-68 -15.5q-36 0 -60.5 10.5t-40.5 28.5t-23 41.5t-7 49.5q0 33 4 69t10 68q11 56 26 99t37.5 73t54.5 47t77 20l-5 -73q-22 -2 -38.5 -13t-29.5 -32t-23.5 -53.5t-20.5 -78.5q-5 -24 -8.5 -50t-3.5 -51 q0 -38 15.5 -60t48.5 -22q34 0 56 19.5t31 49.5q5 17 8 33.5t7 34.5l31 157h79l-34 -173q-4 -21 -5 -42t5.5 -38.5t22 -28.5t43.5 -11q44 0 67.5 35t37.5 106q10 48 16 91.5t1 69.5q-4 24 -19.5 37t-37.5 18l18 73q63 -10 90.5 -44t27.5 -89q0 -33 -3.5 -69t-9.5 -68 q-9 -49 -21.5 -92t-34.5 -74.5t-56 -49.5t-85 -18h-4v0z" />
<glyph unicode="&#x3ca;" horiz-adv-x="215" d="M132 -1q-8 -1 -11 -1h-8q-30 0 -47 7.5t-25 21t-8.5 32.5t3.5 42l78 393h79l-74 -379q-2 -8 -3 -15.5t1.5 -13.5t9.5 -10t21 -6zM55 593l17 84h77l-16 -84h-78zM220 593l17 84h77l-16 -84h-78z" />
<glyph unicode="&#x3cb;" horiz-adv-x="440" d="M446 494l-66 -333q-16 -78 -61.5 -122.5t-126.5 -44.5q-47 0 -78.5 14.5t-48.5 40t-21.5 58.5t2.5 71l61 316h79q-14 -71 -28 -141.5t-28 -142.5l-6 -34t-3 -33q0 -29 18 -50t56 -21q27 0 46 8t32.5 25t23 43t15.5 63q1 8 5.5 30t10 51t12 61t12 60.5t9.5 50.5t6 30h79z M169 593l17 84h77l-16 -84h-78zM334 593l17 84h77l-16 -84h-78z" />
<glyph unicode="&#x3cc;" horiz-adv-x="429" d="M258 500q39 0 67.5 -12t47 -32.5t27.5 -48t9 -58.5q0 -30 -5.5 -65t-11.5 -65q-11 -54 -27 -95.5t-40 -70.5t-58.5 -44t-82.5 -15q-41 0 -69 12t-45.5 32.5t-25.5 46.5t-8 54q0 39 5 75t12 68q10 47 26 87t37 66q54 65 142 65zM252 428q-42 0 -69 -30q-16 -17 -29 -46 t-23 -66q-8 -29 -12.5 -62.5t-6.5 -59.5q-1 -18 1.5 -35.5t11 -31t24.5 -22t42 -8.5q42 0 63 21.5t35 56.5q9 22 16.5 48.5t13 53.5t8.5 52t3 45q0 42 -21.5 63t-56.5 21zM247 572l104 173l71 -25l-130 -167z" />
<glyph unicode="&#x3cd;" horiz-adv-x="440" d="M446 494l-66 -333q-16 -78 -61.5 -122.5t-126.5 -44.5q-47 0 -78.5 14.5t-48.5 40t-21.5 58.5t2.5 71l61 316h79q-14 -71 -28 -141.5t-28 -142.5l-6 -34t-3 -33q0 -29 18 -50t56 -21q27 0 46 8t32.5 25t23 43t15.5 63q1 8 5.5 30t10 51t12 61t12 60.5t9.5 50.5t6 30h79z M235 572l104 173l71 -25l-130 -167z" />
<glyph unicode="&#x3ce;" horiz-adv-x="640" d="M407 -6q-35 1 -68 15.5t-47 46.5h-3q-25 -31 -58 -46.5t-68 -15.5q-36 0 -60.5 10.5t-40.5 28.5t-23 41.5t-7 49.5q0 33 4 69t10 68q11 56 26 99t37.5 73t54.5 47t77 20l-5 -73q-22 -2 -38.5 -13t-29.5 -32t-23.5 -53.5t-20.5 -78.5q-5 -24 -8.5 -50t-3.5 -51 q0 -38 15.5 -60t48.5 -22q34 0 56 19.5t31 49.5q5 17 8 33.5t7 34.5l31 157h79l-34 -173q-4 -21 -5 -42t5.5 -38.5t22 -28.5t43.5 -11q44 0 67.5 35t37.5 106q10 48 16 91.5t1 69.5q-4 24 -19.5 37t-37.5 18l18 73q63 -10 90.5 -44t27.5 -89q0 -33 -3.5 -69t-9.5 -68 q-9 -49 -21.5 -92t-34.5 -74.5t-56 -49.5t-85 -18h-4zM337 572l104 173l71 -25l-130 -167z" />
<glyph unicode="&#x401;" horiz-adv-x="449" d="M24 0l135 696h365l-16 -77h-282l-44 -229h242l-14 -75h-242l-47 -238h282l-14 -77h-365zM395 748l16 84h78l-16 -84h-78zM228 748l16 84h78l-16 -84h-78z" />
<glyph unicode="&#x402;" horiz-adv-x="569" d="M261 413q27 26 66 41.5t76 15.5q72 0 109 -44.5t31 -127.5q-5 -73 -19 -131t-42 -98t-71.5 -61.5t-108.5 -21.5h-13.5t-14.5 1l14 70h8q49 0 79 19t47 51t24.5 73t12.5 86q2 23 -1 43t-12.5 34.5t-27 23t-43.5 8.5q-47 0 -83.5 -32t-56.5 -77l-55 -286h-84l121 621h-154 l14 74h440l-14 -74h-202l-43 -208h3z" />
<glyph unicode="&#x403;" horiz-adv-x="436" d="M226 618l-119 -618h-83l135 696h357l-16 -78h-274zM273 767l168 117l43 -59l-185 -97z" />
<glyph unicode="&#x404;" horiz-adv-x="464" d="M331 701q86 0 129 -42t47 -111l-84 -25q0 45 -24 72t-69 27q-33 0 -55.5 -9.5t-38 -25.5t-25.5 -36t-17 -41q-9 -29 -16 -59t-12 -61h201l-14 -77h-201q-2 -11 -4 -21.5t-4 -21.5q-5 -24 -9.5 -50t-4.5 -48t4.5 -40t15.5 -31.5t29 -21t46 -7.5q47 0 82 26.5t52 77.5 l80 -31q-26 -73 -81 -112t-136 -39q-90 0 -133 46.5t-43 119.5q0 19 5 53.5t11 66.5q8 42 17 85t17 85q9 47 24 92t41.5 80.5t67.5 57t102 21.5z" />
<glyph unicode="&#x405;" horiz-adv-x="472" d="M321 702q35 0 63.5 -9t50 -24.5t36 -35t21.5 -40.5l-75 -45q-13 35 -42 54t-66 19q-30 0 -53 -10.5t-38.5 -28t-23.5 -41t-8 -49.5q0 -25 10 -41t27.5 -27.5t42 -20t53.5 -18.5q72 -25 100.5 -63.5t28.5 -97.5q0 -49 -15.5 -91.5t-46 -73.5t-75 -48.5t-101.5 -17.5 q-81 0 -129 35t-64 92l78 39q14 -35 42.5 -60t82.5 -25q36 0 61.5 12.5t42 32.5t24.5 44.5t8 49.5q0 23 -6.5 39t-19 27t-31 19.5t-42.5 16.5q-44 14 -74 29.5t-49 35t-27.5 43.5t-8.5 56q0 51 15.5 92.5t45 70.5t70.5 44.5t92 15.5z" />
<glyph unicode="&#x406;" horiz-adv-x="214" d="M25 0l136 696h83l-135 -696h-84z" />
<glyph unicode="&#x407;" horiz-adv-x="217" d="M258 759l16 84h78l-16 -84h-78zM91 759l16 84h79l-17 -84h-78zM25 0l136 696h83l-135 -696h-84z" />
<glyph unicode="&#x408;" horiz-adv-x="401" d="M330 182q-11 -53 -29.5 -89t-45.5 -58t-61 -31.5t-74 -9.5q-48 0 -84.5 18.5t-56.5 52.5l64 48q12 -19 34 -31t45 -12q46 0 79 25t47 91l99 510h83z" />
<glyph unicode="&#x409;" horiz-adv-x="752" d="M215 328q-17 -89 -39 -148.5t-49 -98.5t-60.5 -61t-73.5 -36l-23 66q26 12 50 28t44 44t37 70.5t30 108.5l77 395h307l-56 -291h104q85 0 130 -41t45 -113q0 -52 -15.5 -98t-45 -80t-72.5 -53.5t-98 -19.5h-209l120 620h-147zM655 239q0 43 -25.5 67t-76.5 24h-109 l-49 -252h113q37 0 64.5 14t46 36.5t27.5 51.5t9 59z" />
<glyph unicode="&#x40a;" horiz-adv-x="757" d="M743 244q0 -52 -15 -96.5t-43.5 -77.5t-71 -51.5t-97.5 -18.5h-211l62 323h-212l-62 -323h-83l135 696h83l-58 -298h212l58 298h82l-58 -298h104q85 0 130 -41t45 -113zM660 232q0 42 -25.5 66t-76.5 24h-109l-47 -244h112q37 0 64.5 12.5t45.5 34t27 49.5t9 58z" />
<glyph unicode="&#x40b;" horiz-adv-x="589" d="M399 0l56 289q4 21 4 40t-8 33.5t-25.5 22.5t-47.5 8q-24 0 -46 -8.5t-40 -22.5t-32 -32t-22 -38l-58 -292h-84l121 622h-155l14 74h444l-14 -74h-205l-40 -209h3q16 15 35 26t38.5 18t38.5 10t35 3q74 0 110.5 -41t22.5 -113l-61 -316h-84z" />
<glyph unicode="&#x40c;" horiz-adv-x="494" d="M21 0l134 695h82l-58 -303h72q15 0 32.5 3t35.5 13.5t36 31t34 54.5l94 201h81l-94 -204q-23 -51 -52.5 -85.5t-63.5 -45.5q38 -14 53 -49.5t19 -87.5l14 -223h-80l-12 209q-2 35 -11 56.5t-23.5 33t-32 15t-36.5 3.5h-81l-61 -317h-82zM308 767l168 117l43 -59l-185 -97 z" />
<glyph unicode="&#x40e;" horiz-adv-x="453" d="M236 271q1 0 2 0.5t2 0.5l81 162l126 261h86l-277 -539q-27 -54 -50 -85.5t-45 -48.5t-43 -22t-43 -5h-56q3 17 7 35t7 36h46q21 0 41 14.5t41 52.5l17 33q-19 133 -37.5 264t-36.5 265h83q8 -57 14 -113.5t14 -113.5q5 -50 10 -98.5t11 -98.5zM264 836q-1 -10 1.5 -21.5 t9.5 -21.5t18.5 -16.5t28.5 -6.5t31 6t24.5 15.5t17.5 21.5t9 23h73q-6 -23 -18 -46t-31.5 -41.5t-46.5 -30t-63 -11.5q-37 0 -61.5 10.5t-39 28.5t-19 41.5t-1.5 48.5h67z" />
<glyph unicode="&#x40f;" horiz-adv-x="519" d="M549 696l-134 -696h-153l-29 -149h-84l29 149h-154l134 696h82l-119 -618h226l119 618h83z" />
<glyph unicode="&#x410;" horiz-adv-x="491" d="M360 0l-11 158h-221l-73 -158h-87l335 696h75l65 -696h-83zM330 413l-11 159h-3l-69 -157l-86 -182h183z" />
<glyph unicode="&#x411;" horiz-adv-x="494" d="M471 618h-245l-41 -213h107q39 0 71 -11t54 -31.5t34 -48t12 -60.5q0 -52 -15 -98t-44 -80.5t-71 -55t-97 -20.5h-213l135 696h328zM380 239q0 39 -25.5 65t-76.5 26h-108l-49 -252h112q73 0 109 44t38 117z" />
<glyph unicode="&#x412;" horiz-adv-x="500" d="M386 362q0 -1 -0.5 -1.5t-0.5 -1.5q42 -14 59.5 -49t17.5 -83q-4 -65 -25.5 -108.5t-56 -70t-79.5 -37.5t-96 -11h-182l136 696h186q78 0 121.5 -35.5t43.5 -110.5q0 -77 -32 -123t-92 -65zM169 325q-12 -63 -24 -124.5t-25 -124.5h124q33 0 59 13.5t43 35.5t26 51t9 60 q0 43 -26 66t-73 23h-113zM227 621l-44 -224h80q33 0 63 7t53 23.5t36.5 43.5t13.5 66q0 43 -28 63.5t-73 20.5h-101z" />
<glyph unicode="&#x413;" horiz-adv-x="436" d="M226 618l-119 -618h-83l135 696h357l-16 -78h-274z" />
<glyph unicode="&#x414;" horiz-adv-x="569" d="M19 -141h-75q9 52 19 103t19 102l41 9q22 14 38 31.5t29.5 43t24.5 60t22 81.5l93 407h366q-30 -157 -60 -312t-61 -312h48q-10 -54 -20 -106.5t-21 -106.5h-76q8 35 14 70.5t14 70.5h-388zM393 72q26 139 53 275.5t54 275.5h-211l-77 -338q-18 -75 -37 -126.5t-50 -86.5 h268z" />
<glyph unicode="&#x415;" horiz-adv-x="449" d="M24 0l135 696h365l-16 -77h-282l-44 -229h242l-14 -75h-242l-47 -238h282l-14 -77h-365z" />
<glyph unicode="&#x416;" horiz-adv-x="762" d="M300 0l60 317h-41q-23 0 -44.5 -2t-42.5 -12t-41 -32t-38 -62l-91 -209h-84l98 223q23 52 51.5 87.5t72.5 49.5q-29 11 -46 45.5t-19 85.5l-15 204h77l17 -201q2 -35 12 -55t24.5 -30.5t31 -13.5t31.5 -3h62l57 304h82l-57 -304h38q14 0 34 0.5t42 9.5t44 30t41 62 l92 201h78q-23 -50 -45.5 -104t-47.5 -101.5t-52.5 -83t-60.5 -46.5q37 -14 51.5 -49.5t18.5 -87.5l15 -223h-83l-12 209q-2 35 -11 56t-23 32.5t-31.5 15.5t-35.5 4h-67l-60 -317h-82z" />
<glyph unicode="&#x417;" horiz-adv-x="448" d="M282 701q83 0 129 -38t46 -106q0 -24 -4 -51.5t-15.5 -53.5t-32.5 -49t-55 -36q0 -1 0.5 -1.5t0.5 -2.5q35 -17 46.5 -47.5t11.5 -62.5q0 -49 -14 -95.5t-43.5 -83t-74.5 -58.5t-106 -22q-36 0 -66.5 8.5t-53.5 26.5t-37 45.5t-17 65.5l78 27q4 -51 31 -73t76 -22 q20 0 44 9.5t45 30t35 53t14 78.5q0 37 -19.5 61t-61.5 24h-65q3 18 6.5 36.5t7.5 36.5h62q27 0 49 10.5t37.5 29.5t24.5 45t9 56q0 21 -8 36t-21.5 24.5t-30.5 14t-35 4.5q-45 0 -79 -23t-54 -65l-71 34q30 72 86 103t125 31z" />
<glyph unicode="&#x418;" horiz-adv-x="553" d="M466 508q-1 0 -1.5 0.5t-1.5 0.5q-20 -29 -41.5 -57.5t-41.5 -57.5l-277 -394h-79l135 696h82l-99 -511q1 0 1.5 -0.5t1.5 -0.5q29 41 58 81.5t58 82.5q62 88 124 174t124 174h75l-135 -696h-82l99 508v0z" />
<glyph unicode="&#x419;" horiz-adv-x="553" d="M466 508q-1 0 -1.5 0.5t-1.5 0.5q-20 -29 -41.5 -57.5t-41.5 -57.5l-277 -394h-79l135 696h82l-99 -511q1 0 1.5 -0.5t1.5 -0.5q29 41 58 81.5t58 82.5q62 88 124 174t124 174h75l-135 -696h-82zM329 859q-1 -10 1.5 -21.5t9.5 -21.5t18.5 -16.5t28.5 -6.5t31 6 t24.5 15.5t17.5 21.5t9 23h73q-6 -23 -18 -46t-31.5 -41.5t-46.5 -30t-63 -11.5q-37 0 -61.5 10.5t-39 28.5t-19 41.5t-1.5 48.5h67z" />
<glyph unicode="&#x41a;" horiz-adv-x="493" d="M21 0l134 695h82l-58 -303h72q15 0 32.5 3t35.5 13.5t36 31t34 54.5l94 201h81l-94 -204q-23 -51 -52.5 -85.5t-63.5 -45.5q38 -14 53 -49.5t19 -87.5l14 -223h-80l-12 209q-2 35 -11 56.5t-23.5 33t-32 15t-36.5 3.5h-81l-61 -317h-82z" />
<glyph unicode="&#x41b;" horiz-adv-x="527" d="M205 318q-17 -89 -38 -147t-47 -94.5t-58 -57t-72 -34.5l-24 64q26 12 49 26.5t42.5 40.5t36 67t28.5 107l80 406h353l-135 -696h-82l120 620h-194z" />
<glyph unicode="&#x41c;" horiz-adv-x="649" d="M468 0l94 485h-4l-80 -134l-137 -215h-56l-53 219l-28 130h-3l-94 -485h-83l135 696h82l60 -269l35 -161h3l98 163l164 267h85l-136 -696h-82z" />
<glyph unicode="&#x41d;" horiz-adv-x="525" d="M339 0l61 317h-232l-61 -317h-83l135 696h83l-60 -306h232l60 306h82l-135 -696h-82z" />
<glyph unicode="&#x41e;" horiz-adv-x="497" d="M454 203q-19 -101 -75 -155t-147 -54q-57 0 -96 18.5t-61 49.5t-28 71.5t2 84.5l54 276q7 35 21.5 72t41 67t66 49t95.5 19q54 0 91 -19t58.5 -49t28.5 -67.5t0 -75.5zM425 490q3 16 1.5 38.5t-12.5 43.5t-34.5 35.5t-64.5 14.5q-34 0 -57 -13.5t-38.5 -33t-23.5 -42.5 t-12 -42l-52 -275q-6 -28 -4 -54t13 -46.5t33.5 -32.5t58.5 -12q53 0 88.5 33t46.5 91z" />
<glyph unicode="&#x41f;" horiz-adv-x="519" d="M333 0l120 623h-226l-120 -623h-83l135 696h391l-135 -696h-82z" />
<glyph unicode="&#x420;" horiz-adv-x="478" d="M107 0h-83l135 696h192q80 0 124.5 -39t44.5 -114q0 -56 -15 -104t-45 -83.5t-74.5 -55.5t-102.5 -20h-122zM435 524q0 45 -25.5 70t-77.5 25h-106l-50 -261h111q37 0 65 13t46.5 35.5t27.5 52.5t9 65z" />
<glyph unicode="&#x421;" horiz-adv-x="469" d="M331 701q86 0 129 -42t47 -111l-84 -25q0 45 -24 72t-69 27q-33 0 -55.5 -9.5t-38 -25.5t-25.5 -36t-17 -41q-17 -57 -27.5 -118.5t-22.5 -121.5q-5 -24 -9.5 -50t-4.5 -48t4.5 -40t15.5 -31.5t29 -21t46 -7.5q47 0 82 26.5t52 77.5l80 -31q-26 -73 -81 -112t-136 -39 q-90 0 -133 46.5t-43 119.5q0 19 5 53.5t11 66.5q8 42 17 85t17 85q9 47 24 92t41.5 80.5t67.5 57t102 21.5z" />
<glyph unicode="&#x422;" horiz-adv-x="398" d="M321 621l-121 -621h-82l120 621h-157l15 75h396l-15 -75h-156z" />
<glyph unicode="&#x423;" horiz-adv-x="453" d="M236 271q1 0 2 0.5t2 0.5l81 162l126 261h86l-277 -539q-27 -54 -50 -85.5t-45 -48.5t-43 -22t-43 -5h-56q3 17 7 35t7 36h46q21 0 41 14.5t41 52.5l17 33q-19 133 -37.5 264t-36.5 265h83q8 -57 14 -113.5t14 -113.5q5 -50 10 -98.5t11 -98.5z" />
<glyph unicode="&#x424;" horiz-adv-x="606" d="M232 56h-1q-91 12 -131.5 62t-40.5 138q0 54 7 102t21 90q32 99 97.5 154t163.5 59l8 35h83l-7 -35q43 -3 75.5 -19t54.5 -43t33 -63t11 -77q0 -50 -5 -90.5t-15 -79.5q-29 -111 -100.5 -169.5t-170.5 -63.5l-11 -56h-83zM334 587q-42 -2 -77.5 -26t-61 -66t-40 -100 t-14.5 -129q0 -63 23.5 -96.5t80.5 -39.5zM331 130q42 3 78 22t62.5 57.5t41 97t14.5 141.5q0 65 -28 100.5t-79 38.5z" />
<glyph unicode="&#x425;" horiz-adv-x="445" d="M316 0l-74 282l-184 -282h-92l245 361l-97 335h86l66 -258l167 258h92l-229 -335l106 -361h-86z" />
<glyph unicode="&#x426;" horiz-adv-x="535" d="M392 0h-368l134 696h82l-119 -618h226l119 618h83l-119 -619h54l-42 -218h-77z" />
<glyph unicode="&#x427;" horiz-adv-x="491" d="M212 696l-38 -200q-6 -30 -8.5 -57.5t4 -48.5t25.5 -33.5t56 -12.5q28 0 67 10t67 28l62 314h82l-135 -696h-82q14 76 29.5 152t29.5 152q-17 -8 -36.5 -14.5t-38.5 -11t-36 -7t-29 -2.5q-52 0 -83.5 16t-46.5 44t-17 64t6 77l41 226h81z" />
<glyph unicode="&#x428;" horiz-adv-x="743" d="M642 0h-622l135 696h81l-120 -617h188l120 617h82l-120 -617h189l120 617h82z" />
<glyph unicode="&#x429;" horiz-adv-x="762" d="M620 0h-600l133 696h82l-119 -618h188l119 618h81l-119 -618h189l120 618h82l-120 -619h55l-42 -217h-77z" />
<glyph unicode="&#x42a;" horiz-adv-x="590" d="M574 251q0 -52 -15 -98t-44.5 -80t-72 -53.5t-97.5 -19.5h-211l120 618h-176l15 78h258l-56 -291h104q85 0 130 -41t45 -113zM490 239q0 43 -25 67t-76 24h-109l-49 -252h113q37 0 64.5 14t45.5 36.5t27 51.5t9 59z" />
<glyph unicode="&#x42b;" horiz-adv-x="658" d="M24 0q1 6 7 37t15.5 77.5t20.5 105t23 119.5t23.5 120.5t21 108.5t16 83t8.5 45h82q-14 -73 -28 -145.5t-28 -145.5h103q86 0 131 -41t45 -113q0 -64 -19 -111t-53.5 -78t-83.5 -46.5t-108 -15.5h-176zM478 0l135 696h83l-135 -696h-83zM121 77h112q34 0 61 11t46 31 t28.5 47.5t9.5 59.5q0 23 -5 42t-16.5 33t-30.5 21.5t-48 7.5h-108z" />
<glyph unicode="&#x42c;" horiz-adv-x="463" d="M9 0q1 6 7 37t15.5 77.5t20.5 105t23 119.5t23.5 120.5t21 108.5t16 83t8.5 45h82q-14 -73 -28 -145.5t-28 -145.5h103q86 0 131 -41t45 -113q0 -64 -18 -111t-50.5 -78t-77.5 -46.5t-98 -15.5h-196zM106 77h110q34 0 61.5 11t46.5 31t29 47.5t10 59.5q0 23 -5 42 t-16.5 33t-30.5 21.5t-48 7.5h-108z" />
<glyph unicode="&#x42d;" horiz-adv-x="450" d="M162 395h199l6 31q5 24 8.5 50t3.5 48q0 44 -26 72t-82 28q-81 0 -116 -91l-81 30q28 68 81.5 103.5t131.5 35.5q90 0 133 -46.5t43 -119.5q0 -19 -5 -53.5t-11 -66.5q-8 -42 -17 -85t-17 -85q-9 -47 -24 -92t-41.5 -80.5t-67.5 -57t-102 -21.5q-83 0 -125.5 39.5 t-49.5 103.5l83 26q2 -41 26.5 -65.5t66.5 -24.5q30 0 52 9.5t38.5 25.5t27.5 36t18 41q9 32 16.5 64.5t14.5 66.5h-199z" />
<glyph unicode="&#x42e;" horiz-adv-x="663" d="M499 701q44 0 77 -13t55 -35.5t33 -53t11 -66.5q0 -17 -3 -43.5t-8 -52.5q-2 -8 -6.5 -35.5t-10.5 -59t-11.5 -59.5t-7.5 -37q-14 -53 -28 -99t-38 -80t-63 -53.5t-102 -19.5q-51 0 -87 16t-57 43t-27.5 63.5t-0.5 78.5q5 31 9.5 59t11.5 63h-84l-62 -317h-82l135 696h82 l-59 -306h86q7 33 14.5 66t15.5 64q10 36 24.5 69t38 58t58.5 39.5t86 14.5zM538 217q14 70 29.5 144.5t23.5 140.5q3 23 0 45.5t-13.5 40t-30 28t-49.5 10.5q-35 0 -57 -12t-36 -30t-22 -40t-15 -41q-5 -17 -9 -33t-7 -33q-2 -6 -5 -23t-7.5 -39t-9.5 -46t-8.5 -45.5 t-6.5 -38t-3 -21.5q-5 -29 -7 -57t6 -50t29.5 -35.5t63.5 -13.5q57 0 87.5 38t46.5 111z" />
<glyph unicode="&#x42f;" horiz-adv-x="508" d="M328 620q-63 0 -100.5 -36.5t-37.5 -105.5q0 -48 27.5 -72t74.5 -24h106l46 238h-116zM383 309h-82q-16 0 -35 -4t-38 -16t-37 -34t-32 -58l-75 -197h-88l81 209q9 23 19 43t22 36.5t27.5 29t35.5 19.5q-22 10 -36 24.5t-22.5 31.5t-12 36.5t-3.5 39.5q0 53 16 95 t44.5 71.5t69 45t90.5 15.5h213l-134 -696h-82z" />
<glyph unicode="&#x430;" horiz-adv-x="447" d="M440 495l-96 -495h-79l9 46q-1 0 -1.5 0.5t-1.5 0.5q-25 -28 -49.5 -40.5t-65.5 -12.5q-61 0 -90.5 40t-29.5 108q0 27 4 57.5t9 56.5q10 50 25 94.5t38 77.5t56 52.5t78 19.5q33 0 61 -13.5t43 -39.5q1 0 1 0.5t1 0.5l10 47h78zM190 73q35 0 58.5 23.5t34.5 51.5 q9 23 17 49.5t13.5 52t9 49.5t3.5 43q0 37 -17.5 58t-53.5 21q-24 0 -44.5 -10.5t-36.5 -35.5q-12 -18 -22.5 -51t-18.5 -69q-6 -29 -10 -53.5t-4 -42.5q0 -17 3 -32.5t11 -27.5t21.5 -19t35.5 -7z" />
<glyph unicode="&#x431;" horiz-adv-x="434" d="M254 407q-37 0 -62.5 -19.5t-40.5 -53.5q-3 -7 -6 -15t-6.5 -19.5t-7 -27.5t-7.5 -39t-6.5 -43t-2.5 -39q0 -18 3 -33.5t11.5 -27t23.5 -18t39 -6.5t41 6.5t31 23.5q17 17 29.5 52t20.5 75q5 23 8.5 51t3.5 52q0 35 -18 58t-54 23zM274 478q27 0 48 -7.5t36.5 -19.5 t25 -28t14.5 -33q10 -38 7 -77.5t-9 -77.5q-9 -55 -24.5 -100t-40.5 -76.5t-61.5 -48.5t-87.5 -17h-1q-147 3 -147 154q0 10 1 23t3 33.5t6 50t11 72.5q8 52 21 107.5t34 115.5q19 56 48 89t67.5 51t87.5 24.5t108 10.5l4 -66q-46 -5 -83 -9t-66 -16t-52 -35.5t-41 -67.5 q-7 -17 -15 -40.5t-16 -60.5q1 -1 3 -1q25 29 58.5 39.5t60.5 10.5z" />
<glyph unicode="&#x432;" horiz-adv-x="430" d="M186 67q34 0 58 11.5t39.5 28.5t23 36.5t7.5 36.5q0 29 -20.5 44.5t-69.5 15.5h-28l14 69h22q41 0 61.5 17t22.5 44q0 9 -2.5 19t-9 18t-19.5 13t-34 5q-30 0 -50 -11.5t-32.5 -29.5t-19 -39t-10.5 -39l-25 -127q-2 -9 -4.5 -22t-2.5 -23q0 -25 17.5 -46t61.5 -21z M257 500q41 0 69 -10.5t45 -27t24.5 -36.5t7.5 -38q0 -38 -20 -69.5t-53 -42.5q36 -14 50.5 -39t14.5 -57q0 -25 -10.5 -57.5t-35 -61t-65 -48t-100.5 -19.5q-30 0 -58 6.5t-50 22t-35 40t-13 60.5q0 25 3 45.5t8 41.5l28 126q7 31 20 60.5t35.5 52.5t55.5 37t79 14z" />
<glyph unicode="&#x433;" horiz-adv-x="401" d="M169 -7q-32 0 -59.5 7t-47.5 21t-31.5 36t-11.5 52q0 38 12.5 66.5t35 49.5t55 36.5t72.5 27.5q58 17 88 36t30 52q0 25 -18.5 36.5t-47.5 11.5q-34 0 -63.5 -14t-50.5 -42l-61 39q29 44 72 68t103 25q30 0 57 -6.5t47 -20t32 -35t12 -51.5q0 -34 -12.5 -59.5t-35 -45.5 t-53.5 -35t-69 -27q-25 -8 -47.5 -16t-39.5 -19t-27 -26.5t-10 -38.5q0 -53 80 -53q29 0 61 14t53 40l59 -41q-31 -44 -74 -66t-110 -22z" />
<glyph unicode="&#x434;" horiz-adv-x="433" d="M246 405q-25 0 -43.5 -10t-33.5 -28q-12 -15 -23 -40.5t-19 -55.5t-13 -61t-5 -55q0 -18 3.5 -34t12.5 -28.5t24 -19.5t39 -7q26 0 43 10.5t31 27.5q12 14 23.5 39t20 54t14 59.5t7.5 55.5q2 40 -15.5 66.5t-65.5 26.5zM184 -7q-43 0 -72 13.5t-47 34.5t-25.5 48t-7.5 54 q0 29 4.5 59.5t10.5 58.5q11 51 27.5 90t33.5 60q25 32 56.5 50t77.5 18q24 0 54.5 -12t48.5 -43q4 2 4 5q5 28 7 52.5t2 32.5q0 26 -4.5 49.5t-16.5 41t-34 28t-56 11.5q-18 0 -39 -3.5t-41 -11.5l-16 65q29 10 55 14t52 4q88 0 129.5 -50t41.5 -149q0 -21 -2 -52.5t-7 -69 t-12.5 -81t-18.5 -88.5q-12 -50 -29 -92t-41.5 -72.5t-57.5 -47.5t-77 -17z" />
<glyph unicode="&#x435;" horiz-adv-x="414" d="M258 501q69 0 108 -32.5t39 -89.5q0 -40 -14.5 -72.5t-44.5 -56t-76 -36t-109 -12.5q-11 0 -24.5 0.5t-25.5 1.5q-3 -21 -3 -42q0 -18 3.5 -35t11.5 -29.5t22.5 -20t36.5 -7.5q13 0 28 4.5t29.5 12t27 18t20.5 22.5l66 -36q-29 -43 -73 -70t-106 -27q-41 0 -68.5 13.5 t-43.5 36t-22.5 52.5t-6.5 62q0 52 10.5 112.5t36.5 111.5t69 85t109 34zM251 427q-52 0 -82.5 -41t-44.5 -112q11 -1 23 -1.5t23 -0.5q85 0 120.5 27.5t35.5 68.5q0 26 -20 42.5t-55 16.5z" />
<glyph unicode="&#x436;" horiz-adv-x="839" d="M323 282q1 0 2 -0.5t2 -0.5q31 48 58 103.5t55 109.5h60q-15 -78 -30 -154.5t-29 -154.5q1 -1 3 -1q12 23 27 48t30 53q25 45 47.5 84t48 68t57 46t75.5 17q43 0 74.5 -19t46.5 -57l-56 -39q-10 23 -30.5 34t-40.5 11q-29 0 -46 -12t-28 -28q-10 -15 -21 -39.5t-20.5 -56 t-15.5 -69.5t-6 -79q0 -82 73 -82q21 0 45 14.5t39 36.5q14 -10 26 -19.5t25 -19.5q-19 -34 -56 -58t-91 -24q-38 0 -64.5 10t-43 29t-23.5 44.5t-7 57.5v6t0.5 10t2 18.5t3.5 31.5h-3q-29 -51 -55.5 -100.5t-50.5 -100.5h-64l61 307l-3 2q-17 -31 -29.5 -54.5t-25 -44.5 t-25.5 -42t-31 -47q-15 -26 -30.5 -49.5t-35.5 -41t-47.5 -27.5t-64.5 -10q-51 0 -79 21.5t-42 59.5l59 39q9 -21 26 -34.5t40 -13.5q27 0 46.5 12t33.5 31q10 13 20 38t18.5 56t14 66t5.5 69q0 88 -64 88q-45 0 -76 -37l-45 46q20 26 52 45.5t81 19.5q62 0 96 -36.5 t34 -105.5q0 -11 -2 -31.5t-6 -43.5z" />
<glyph unicode="&#x437;" horiz-adv-x="395" d="M295 259q24 -12 37.5 -36t13.5 -50q0 -89 -54 -133.5t-143 -44.5q-57 2 -95 25t-56 71l67 34q8 -26 30.5 -41.5t58.5 -15.5q53 0 79 27.5t26 72.5q0 27 -17.5 41t-46.5 14h-52l14 68h52q38 0 61 21t23 60q0 26 -20 39.5t-52 13.5t-58 -12.5t-43 -39.5l-58 38 q27 45 72.5 67t99.5 22q72 0 108 -29.5t36 -80.5q0 -16 -4 -35.5t-13.5 -38t-25.5 -34t-40 -23.5z" />
<glyph unicode="&#x438;" horiz-adv-x="444" d="M270 0l11 53h-3q-28 -32 -60.5 -45.5t-64.5 -13.5q-62 0 -92.5 36t-22.5 97q0 5 6 39t16 85.5t22.5 115t24.5 128.5h80q-11 -56 -22 -113.5t-20 -105t-15 -79t-6 -35.5q-3 -18 -2 -34t7.5 -28.5t21 -20t40.5 -7.5q21 0 40 10t34.5 26.5t26 38t15.5 44.5l60 304h79 l-96 -495h-80z" />
<glyph unicode="&#x439;" horiz-adv-x="444" d="M235 699q-1 -10 1.5 -21.5t9.5 -21.5t18.5 -16.5t28.5 -6.5t31 6t24.5 15.5t17.5 21.5t9 23h73q-6 -23 -18 -46t-31.5 -41.5t-46.5 -30t-63 -11.5q-37 0 -61.5 10.5t-39 28.5t-19 41.5t-1.5 48.5h67zM270 0l11 53h-3q-28 -32 -60.5 -45.5t-64.5 -13.5q-62 0 -92.5 36 t-22.5 97q0 5 6 39t16 85.5t22.5 115t24.5 128.5h80q-11 -56 -22 -113.5t-20 -105t-15 -79t-6 -35.5q-3 -18 -2 -34t7.5 -28.5t21 -20t40.5 -7.5q21 0 40 10t34.5 26.5t26 38t15.5 44.5l60 304h79l-96 -495h-80z" />
<glyph unicode="&#x43a;" horiz-adv-x="421" d="M6 0l96 495h80l-41 -215h51q13 0 27.5 2t28 9.5t26.5 22t25 38.5l68 143h82l-69 -144q-18 -36 -39.5 -60.5t-49.5 -32.5q32 -8 42.5 -34t14.5 -63l14 -161h-77l-9 137q-5 48 -26.5 62.5t-54.5 14.5h-67l-42 -214h-80z" />
<glyph unicode="&#x43b;" horiz-adv-x="445" d="M-5 -15q-5 16 -11 31.5t-11 32.5q22 10 38.5 21t29.5 25.5t23 35.5t19 53q9 33 17 71.5t15.5 79l15 81t15.5 79.5h296l-94 -495h-80l40 212l40 212h-142q-21 -120 -38.5 -198t-39.5 -126.5t-53.5 -74t-79.5 -40.5z" />
<glyph unicode="&#x43c;" horiz-adv-x="548" d="M435 317l-83 -122l-73 -102h-51l-35 106l-36 113h-3l-60 -312h-81l96 494h73l52 -162l38 -129h1l98 139l107 152h77l-96 -494h-81l60 317h-3z" />
<glyph unicode="&#x43d;" horiz-adv-x="442" d="M351 0h-81l42 218h-177l-42 -218h-81l96 495h81l-41 -211h177l41 211h81z" />
<glyph unicode="&#x43e;" horiz-adv-x="429" d="M258 500q39 0 67.5 -12t47 -32.5t27.5 -48t9 -58.5q0 -30 -5.5 -65t-11.5 -65q-11 -54 -27 -95.5t-40 -70.5t-58.5 -44t-82.5 -15q-41 0 -69 12t-45.5 32.5t-25.5 46.5t-8 54q0 39 5 75t12 68q10 47 26 87t37 66q54 65 142 65zM252 428q-42 0 -69 -30q-16 -17 -29 -46 t-23 -66q-8 -29 -12.5 -62.5t-6.5 -59.5q-1 -18 1.5 -35.5t11 -31t24.5 -22t42 -8.5q42 0 63 21.5t35 56.5q9 22 16.5 48.5t13 53.5t8.5 52t3 45q0 42 -21.5 63t-56.5 21z" />
<glyph unicode="&#x43f;" horiz-adv-x="440" d="M268 0q11 56 22.5 113t20.5 104.5t15 79t6 35.5q3 18 1.5 34t-9.5 28.5t-23.5 19.5t-40.5 7q-43 0 -71.5 -30t-37.5 -75l-62 -316h-79l96 495h80l-11 -55h3q28 32 60.5 46t65.5 14q28 0 50.5 -9.5t38 -26.5t22.5 -41.5t3 -55.5q0 -5 -6 -39t-16 -85.5t-22.5 -115 t-24.5 -127.5h-81z" />
<glyph unicode="&#x440;" horiz-adv-x="433" d="M-31 -197q33 174 67 346t68 346h79l-9 -46q1 0 1 -0.5t1 -0.5q25 25 53.5 39t68.5 14q52 0 83 -32t31 -97q0 -33 -4 -71.5t-10 -70.5q-9 -49 -23 -91.5t-37 -74.5t-57 -50.5t-83 -18.5q-30 0 -57 13.5t-44 39.5q-1 0 -1 -0.5t-1 -0.5q-11 -61 -23 -122l-24 -122h-79z M256 422q-38 0 -62.5 -25.5t-34.5 -55.5q-12 -38 -21 -77t-13 -75q-1 -9 -1.5 -18.5t-0.5 -18.5q0 -35 17.5 -56.5t51.5 -21.5q24 0 45 9.5t37 32.5q14 20 25 57t19 78q5 23 7 43.5t3 37.5q0 18 -2.5 34.5t-10.5 29t-22 19.5t-37 7z" />
<glyph unicode="&#x441;" horiz-adv-x="381" d="M178 -6q-46 0 -75 13.5t-45.5 35.5t-22.5 49.5t-6 55.5q0 29 4 58t9 58q9 47 25.5 90t43.5 75.5t65 52t89 19.5q53 0 91 -27t46 -78l-74 -36q-5 33 -24 49t-48 16q-31 0 -53.5 -14t-38.5 -37.5t-26.5 -54t-16.5 -62.5q-5 -23 -8 -46.5t-3 -44.5q0 -50 18 -73t63 -23 q29 0 54.5 17t38.5 46l68 -38q-25 -43 -69 -72t-105 -29z" />
<glyph unicode="&#x442;" horiz-adv-x="708" d="M561 500q42 0 67.5 -15.5t37.5 -40t13 -55.5t-5 -61l-65 -328h-80l64 328q3 14 2 29.5t-7.5 28t-20 20.5t-34.5 8q-25 0 -45 -9t-35.5 -25t-26 -36.5t-14.5 -44.5l-57 -299h-81q13 69 23.5 120t18 90t13 67.5t9.5 51.5q2 18 0.5 34.5t-9 29t-22 20t-38.5 7.5 q-46 0 -73.5 -34.5t-38.5 -90.5q-2 -9 -6 -32t-10 -52.5t-12.5 -63t-12.5 -63t-10.5 -52.5t-6.5 -32h-79l96 494h80l-11 -53h3q26 29 57.5 43t65.5 14q44 0 70 -16t39 -45h1q32 30 65 46.5t75 16.5z" />
<glyph unicode="&#x443;" horiz-adv-x="375" d="M408 495q-30 -89 -57.5 -164t-55.5 -141.5t-57 -126t-63 -115.5q-45 -73 -103.5 -112t-133.5 -38l-3 71q52 7 93.5 33.5t71.5 76.5l-56 516h83l18 -222q4 -43 6.5 -98.5t0.5 -104.5h3q24 44 47 96.5t44.5 108t41.5 112t37 108.5h83z" />
<glyph unicode="&#x444;" horiz-adv-x="531" d="M183 -12q-78 8 -114.5 46t-36.5 101q0 8 0.5 17.5t1.5 18.5q3 33 9 68t15 68.5t22 63.5t30 53q29 38 72.5 59.5t101.5 21.5l40 201h80l-40 -202q58 -4 96 -30.5t49 -74.5q2 -10 3 -21t1 -23q-2 -27 -4 -55.5t-7 -56.5q-9 -56 -24.5 -102t-42.5 -79t-68.5 -52.5 t-103.5 -21.5l-35 -184h-80zM197 62q19 92 37 183.5t36 183.5q-31 0 -55 -12t-40 -32q-20 -23 -34 -66t-22 -91q-6 -40 -8 -75q0 -28 7 -43q15 -40 79 -48zM277 62q26 0 47 8.5t37 23.5q23 22 37.5 60t22.5 81q5 29 9 57t4 51q0 21 -4 34q-7 21 -26 35.5t-54 16.5z" />
<glyph unicode="&#x445;" horiz-adv-x="390" d="M254 0l-57 181q-9 -11 -27 -36.5t-37.5 -54t-37.5 -54t-27 -36.5h-96l193 254q-5 10 -12 29t-15.5 42.5t-17.5 49t-17.5 49t-16 42.5t-11.5 29h89l54 -174q8 11 25 35.5t35 52t35 51.5t25 35h96l-186 -243q7 -15 20 -50.5t27.5 -75.5t27.5 -75.5t20 -50.5h-89z" />
<glyph unicode="&#x446;" horiz-adv-x="458" d="M341 1q-24 8 -35 23t-13 35h-1q-12 -16 -29 -28t-36 -20t-38.5 -12t-36.5 -4q-38 0 -62.5 13t-37 35.5t-14.5 52t4 62.5l65 336h80l-61 -313q-4 -21 -4.5 -41t6.5 -35.5t22 -24.5t42 -9q28 0 48.5 12.5t34.5 32t22 43.5t13 47l57 288h79l-63 -322q-3 -18 -6 -38 t-0.5 -38.5t13 -33.5t33.5 -22l-35 -167h-70z" />
<glyph unicode="&#x447;" horiz-adv-x="410" d="M329 0h-81l40 208q-24 -13 -53 -19.5t-46 -6.5q-45 0 -74.5 11.5t-45.5 32t-20 49.5t3 64l31 156h79l-30 -154q-8 -41 8.5 -64t70.5 -23q17 0 44 7.5t47 20.5q2 13 8 43t12.5 63.5t12.5 63.5t9 43h81z" />
<glyph unicode="&#x448;" horiz-adv-x="694" d="M155 -6q-42 0 -67.5 15.5t-37.5 40t-13 55.5t5 61l65 328h80l-64 -328q-3 -14 -2 -29.5t7.5 -28t20 -20.5t34.5 -8q25 0 45 9t35.5 25t25.5 36.5t15 44.5l57 299h81q-14 -69 -24 -120t-17.5 -90t-13 -67.5t-9.5 -51.5q-2 -18 -0.5 -34.5t9 -29t22 -20t38.5 -7.5 q46 0 73.5 34.5t38.5 90.5q1 9 5.5 32t10.5 52.5t12.5 63t12.5 63t10.5 52.5t6.5 32h79l-96 -494h-80l11 53h-3q-53 -57 -123 -57q-44 0 -70 16t-39 45h-1q-32 -30 -65 -46.5t-75 -16.5z" />
<glyph unicode="&#x449;" horiz-adv-x="707" d="M541 59q-28 -32 -67 -47t-74 -15q-44 0 -67.5 15.5t-36.5 44.5h-1q-32 -30 -65 -46.5t-75 -16.5t-67.5 15.5t-37.5 40t-13 55.5t5 61l65 328h80l-64 -328q-3 -14 -2 -29.5t7.5 -28t20 -20.5t34.5 -8q25 0 45 9t35.5 25t25.5 36.5t15 44.5l57 299h81q-14 -69 -24 -120 t-17.5 -89.5t-13 -67t-9.5 -52.5q-3 -18 -2 -35t8 -30t21.5 -20.5t38.5 -7.5q47 0 76 35.5t39 91.5l57 295h79l-63 -322q-3 -18 -6 -38t-0.5 -38.5t13 -33.5t33.5 -22l-37 -167h-68l22 129q-24 8 -34.5 22.5t-12.5 34.5h-1z" />
<glyph unicode="&#x44a;" horiz-adv-x="499" d="M168 425h-129l14 70h210l-38 -191h97q47 0 76.5 -12.5t46 -32t22.5 -42t6 -42.5q0 -27 -10 -59t-33.5 -59t-62.5 -45.5t-97 -18.5q-39 0 -70.5 12t-52.5 35.5t-28.5 58.5t1.5 82zM276 67q30 0 52 9.5t36 24t20.5 33t6.5 36.5q0 29 -22.5 46t-64.5 17h-93l-13 -66 q-8 -42 11.5 -71t66.5 -29z" />
<glyph unicode="&#x44b;" horiz-adv-x="586" d="M490 0h-82l97 495h81zM180 495l-38 -191h97q47 0 76 -12.5t45.5 -32t22.5 -42t6 -42.5q0 -27 -10 -59t-33 -59t-61.5 -45.5t-96.5 -18.5q-39 0 -71 12t-53 35.5t-28.5 58.5t1.5 82l62 314h81zM193 67q31 0 52.5 9.5t35.5 24t20.5 33t6.5 36.5q0 29 -22.5 46t-65.5 17h-92 l-12 -66q-8 -42 11.5 -71t65.5 -29z" />
<glyph unicode="&#x44c;" horiz-adv-x="424" d="M187 495l-38 -191h97q47 0 76 -12.5t45.5 -32t22.5 -42t6 -42.5q0 -27 -10 -59t-33 -59t-61.5 -45.5t-96.5 -18.5q-39 0 -71 12t-53 35.5t-28.5 58.5t1.5 82l62 314h81zM200 67q31 0 52.5 9.5t35.5 24t20.5 33t6.5 36.5q0 29 -22.5 46t-65.5 17h-92l-12 -66 q-8 -42 11.5 -71t65.5 -29z" />
<glyph unicode="&#x44d;" horiz-adv-x="391" d="M114 216q4 17 7 34l6 34h166q3 18 4 32.5t1 25.5q0 38 -20 59.5t-60 21.5q-26 0 -51.5 -12.5t-42.5 -36.5l-61 41q24 38 62 62t96 24q80 0 118 -41t38 -110q0 -60 -9.5 -123.5t-34 -115t-68 -84.5t-112.5 -33q-58 0 -98.5 25.5t-52.5 71.5l69 34q7 -26 29.5 -41.5 t50.5 -15.5q61 0 90 40t40 108h-167v0z" />
<glyph unicode="&#x44e;" horiz-adv-x="574" d="M409 501q62 0 97.5 -32t43.5 -79q3 -19 3 -42t-3 -47t-7 -47t-8 -42q-22 -102 -69 -160t-134 -58q-41 0 -68.5 13t-44.5 34.5t-23.5 49t-5.5 57.5q1 19 2 32.5t5 37.5h-66l-42 -218h-81l96 494h81l-41 -210h65q24 108 72 162.5t128 54.5zM402 429q-23 0 -40 -8.5 t-31 -25.5t-26 -48t-20.5 -66t-13.5 -67.5t-5 -50.5t2 -35t9.5 -30.5t22 -22t38.5 -8.5q23 0 39.5 9.5t30.5 25.5q13 15 24.5 42.5t20.5 60.5t14.5 67t7.5 63q2 42 -16.5 68t-56.5 26z" />
<glyph unicode="&#x44f;" horiz-adv-x="426" d="M431 494l-93 -494h-80q10 51 20 103t21 103h-81q-28 0 -52 -15.5t-42 -60.5l-50 -130h-80l48 125q12 31 30.5 62.5t50.5 44.5q-32 17 -44.5 42.5t-12.5 58.5q0 38 13.5 68t37.5 50.5t56.5 31.5t70.5 11h187zM263 423q-20 0 -41 -3t-38 -13t-28 -27.5t-11 -46.5 q0 -28 19.5 -44t55.5 -16h92q7 38 14 75t15 75h-78z" />
<glyph unicode="&#x451;" horiz-adv-x="414" d="M258 501q69 0 108 -32.5t39 -89.5q0 -40 -14.5 -72.5t-44.5 -56t-76 -36t-109 -12.5q-11 0 -24.5 0.5t-25.5 1.5q-3 -21 -3 -42q0 -18 3.5 -35t11.5 -29.5t22.5 -20t36.5 -7.5q13 0 28 4.5t29.5 12t27 18t20.5 22.5l66 -36q-29 -43 -73 -70t-106 -27q-41 0 -68.5 13.5 t-43.5 36t-22.5 52.5t-6.5 62q0 52 10.5 112.5t36.5 111.5t69 85t109 34zM251 427q-52 0 -82.5 -41t-44.5 -112q11 -1 23 -1.5t23 -0.5q85 0 120.5 27.5t35.5 68.5q0 26 -20 42.5t-55 16.5zM331 600l17 84h77l-16 -84h-78zM166 600l17 84h77l-16 -84h-78z" />
<glyph unicode="&#x452;" horiz-adv-x="444" d="M180 45q37 -2 62 7.5t41.5 29t27 48t18.5 65.5q3 15 6.5 33.5t6 35.5t4 31.5t1.5 21.5q0 20 -2.5 38t-10.5 31.5t-23 21.5t-40 8q-30 0 -51.5 -15t-36 -38.5t-23.5 -52t-15 -55.5l-50 -255h-80l111 573h-54l13 64h53l18 89h80l-17 -89h185l-13 -64h-185l-27 -139h3 q54 60 129 60q33 0 55.5 -11.5t36 -31t19 -46t5.5 -55.5q0 -34 -4 -71.5t-11.5 -74t-18 -71t-24.5 -61.5q-21 -41 -63 -69t-116 -28h-11.5t-12.5 1z" />
<glyph unicode="&#x453;" horiz-adv-x="402" d="M243 572l104 173l71 -25l-130 -167zM169 -7q-32 0 -59.5 7t-47.5 21t-31.5 36t-11.5 52q0 38 12.5 66.5t35 49.5t55 36.5t72.5 27.5q58 17 88 36t30 52q0 25 -18.5 36.5t-47.5 11.5q-34 0 -63.5 -14t-50.5 -42l-61 39q29 44 72 68t103 25q30 0 57 -6.5t47 -20t32 -35 t12 -51.5q0 -34 -12.5 -59.5t-35 -45.5t-53.5 -35t-69 -27q-25 -8 -47.5 -16t-39.5 -19t-27 -26.5t-10 -38.5q0 -53 80 -53q29 0 61 14t53 40l59 -41q-31 -44 -74 -66t-110 -22z" />
<glyph unicode="&#x454;" horiz-adv-x="391" d="M178 -6q-46 0 -75 13.5t-45.5 35.5t-22.5 49.5t-6 55.5q0 29 4 58t9 58q9 47 25.5 90t43.5 75.5t65 52t89 19.5q53 0 91 -27t46 -78l-74 -36q-5 33 -24 49t-48 16q-28 0 -49 -11.5t-36.5 -31t-26.5 -45.5t-18 -54h171l-13 -69h-171l-5 -47q-2 -48 15.5 -72.5t67.5 -24.5 q29 0 54.5 17t38.5 46l68 -38q-25 -43 -69 -72t-105 -29z" />
<glyph unicode="&#x455;" horiz-adv-x="401" d="M248 501q58 0 96.5 -25.5t52.5 -70.5l-70 -37q-9 28 -29.5 42.5t-58.5 14.5q-41 0 -66.5 -22.5t-25.5 -56.5q0 -24 24 -35.5t66 -22.5q27 -7 49 -16t38 -23t25 -34t9 -47q0 -42 -14.5 -74.5t-40 -54.5t-60.5 -33.5t-77 -11.5q-60 0 -103 26.5t-56 77.5l67 36 q12 -30 35.5 -47.5t63.5 -17.5q19 0 38 5.5t33 16.5t23 27.5t9 37.5q0 17 -8.5 27t-23 17t-33.5 11.5t-41 10.5q-51 17 -77 41.5t-26 71.5q0 38 14 69t38 52.5t57 33t72 11.5z" />
<glyph unicode="&#x456;" horiz-adv-x="195" d="M136 615l16 81h80l-16 -81h-80zM17 0l96 495h80l-96 -495h-80z" />
<glyph unicode="&#x457;" horiz-adv-x="195" d="M209 593l17 84h77l-16 -84h-78zM44 593l17 84h77l-16 -84h-78zM17 0l96 495h80l-96 -495h-80z" />
<glyph unicode="&#x458;" horiz-adv-x="207" d="M143 615l16 81h81l-16 -81h-81zM91 -66q-5 -27 -16 -51.5t-29 -42.5t-43 -29t-58 -11h-18.5t-17.5 1l14 75q3 0 11.5 -0.5t10.5 0.5q32 1 47 21.5t22 54.5l106 543h81z" />
<glyph unicode="&#x459;" horiz-adv-x="642" d="M325 423h-110l-34 -182q-12 -62 -28.5 -105.5t-38.5 -73.5t-50.5 -48t-64.5 -28l-20 65q25 12 45 25t35 34t26.5 53t20.5 82l48 250h267l-38 -191h97q47 0 76 -12.5t45.5 -32t22.5 -42t6 -42.5q0 -27 -10 -59t-33.5 -59t-62 -45.5t-96.5 -18.5q-39 0 -70.5 12t-52.5 35.5 t-28.5 58.5t1.5 82zM434 67q30 0 52 9.5t36 24t20.5 33t6.5 36.5q0 29 -22.5 46t-65.5 17h-92l-13 -66q-8 -42 11.5 -71t66.5 -29z" />
<glyph unicode="&#x45a;" horiz-adv-x="665" d="M429 495l-38 -191h97q47 0 76.5 -12.5t46 -32t22.5 -42t6 -42.5q0 -27 -10 -59t-33.5 -59t-62 -45.5t-96.5 -18.5q-39 0 -71 12t-53 35.5t-28.5 58.5t1.5 82l10 52h-160l-45 -233h-80l96 495h81l-37 -191h159l38 191h81zM442 67q31 0 52.5 9.5t35.5 24t20.5 33t6.5 36.5 q0 29 -22.5 46t-64.5 17h-93l-12 -66q-8 -42 11.5 -71t65.5 -29z" />
<glyph unicode="&#x45b;" horiz-adv-x="444" d="M271 0q11 56 22.5 113t20.5 104.5t15 79t6 35.5q5 36 -8.5 62t-58.5 26q-43 0 -74 -28.5t-40 -75.5l-62 -316h-79l110 573h-54l13 64h54l17 90h80l-18 -90h186l-13 -64h-185l-26 -134h3q29 32 61.5 46.5t65.5 14.5q56 0 88.5 -36t23.5 -103q0 -5 -6 -38t-15.5 -83.5 t-21.5 -113t-24 -126.5h-81z" />
<glyph unicode="&#x45c;" horiz-adv-x="421" d="M238 572l104 173l71 -25l-130 -167zM6 0l96 495h80l-41 -215h51q13 0 27.5 2t28 9.5t26.5 22t25 38.5l68 143h82l-69 -144q-18 -36 -39.5 -60.5t-49.5 -32.5q32 -8 42.5 -34t14.5 -63l14 -161h-77l-9 137q-5 48 -26.5 62.5t-54.5 14.5h-67l-42 -214h-80z" />
<glyph unicode="&#x45e;" horiz-adv-x="375" d="M408 495q-30 -89 -57.5 -164t-55.5 -141.5t-57 -126t-63 -115.5q-45 -73 -103.5 -112t-133.5 -38l-3 71q52 7 93.5 33.5t71.5 76.5l-56 516h83l18 -222q4 -43 6.5 -98.5t0.5 -104.5h3q24 44 47 96.5t44.5 108t41.5 112t37 108.5h83zM183 699q-1 -10 1.5 -21.5t9.5 -21.5 t18.5 -16.5t28.5 -6.5t31 6t24.5 15.5t17.5 21.5t9 23h73q-6 -23 -18 -46t-31.5 -41.5t-46.5 -30t-63 -11.5q-37 0 -61.5 10.5t-39 28.5t-19 41.5t-1.5 48.5h67z" />
<glyph unicode="&#x45f;" horiz-adv-x="444" d="M270 0l11 53h-3q-28 -32 -60.5 -45.5t-64.5 -13.5q-62 0 -92.5 36t-22.5 97q0 5 6 39t16 85.5t22.5 115t24.5 128.5h80q-11 -56 -22 -113.5t-20 -105t-15 -79t-6 -35.5q-3 -18 -2 -34t7.5 -28.5t21 -20t40.5 -7.5q21 0 40 10t34.5 26.5t26 38t15.5 44.5l60 304h79 l-96 -495h-80zM131 -183l33 146l77 15l-39 -161h-71z" />
<glyph unicode="&#x490;" horiz-adv-x="441" d="M496 618h-272l-117 -618h-82l132 696h278l28 122h76z" />
<glyph unicode="&#x491;" horiz-adv-x="372" d="M397 424h-222l-81 -424h-80l94 495h230l23 113h73z" />
<glyph unicode="&#x4d9;" horiz-adv-x="414" d="M181 -6q-69 0 -108.5 32.5t-39.5 89.5q0 40 16.5 72.5t47 56t73.5 36.5t97 13q14 0 28 -1t28 -3q6 25 6 53q0 33 -15 57t-56 24q-27 0 -58 -15t-49 -41l-61 35q25 45 69 71.5t105 26.5q39 0 66 -11.5t44 -32.5t24.5 -49.5t7.5 -62.5q0 -58 -11 -120t-37.5 -113.5 t-69.5 -84.5t-107 -33zM187 67q55 0 82.5 41t41.5 112q-13 2 -25.5 3t-24.5 1q-33 0 -60 -7.5t-47 -20t-31 -30.5t-11 -39q0 -26 20.5 -43t54.5 -17z" />
<glyph unicode="&#x1e80;" horiz-adv-x="694" d="M497 0h-75l-8 314l-6 218h-3l-87 -215l-130 -317h-75v696h84l-6 -265l-8 -251h4l88 211l127 305h75l8 -311l6 -207h4l66 196l119 322h88zM451 745l-172 93l40 61l157 -114z" />
<glyph unicode="&#x1e81;" horiz-adv-x="628" d="M328 376q-19 -58 -37 -106t-38 -91.5t-42.5 -86.5t-49.5 -92h-80l-37 495h83l11 -240q1 -17 1.5 -33t1 -32.5t0.5 -35.5t-1 -41h4q47 85 85.5 181.5t75.5 200.5h90l13 -212q2 -37 2.5 -76t-1.5 -90h3q25 45 46 87.5t40.5 87.5t37.5 94.5t38 108.5h83q-23 -71 -47.5 -134 t-53 -122.5t-61 -118.5t-69.5 -120h-79l-13 238q-1 26 -2 63.5t1 74.5h-5zM340 550l-96 171l67 28l72 -180z" />
<glyph unicode="&#x1e82;" horiz-adv-x="694" d="M497 0h-75l-8 314l-6 218h-3l-87 -215l-130 -317h-75v696h84l-6 -265l-8 -251h4l88 211l127 305h75l8 -311l6 -207h4l66 196l119 322h88zM411 767l168 117l43 -59l-185 -97z" />
<glyph unicode="&#x1e83;" horiz-adv-x="628" d="M328 376q-19 -58 -37 -106t-38 -91.5t-42.5 -86.5t-49.5 -92h-80l-37 495h83l11 -240q1 -17 1.5 -33t1 -32.5t0.5 -35.5t-1 -41h4q47 85 85.5 181.5t75.5 200.5h90l13 -212q2 -37 2.5 -76t-1.5 -90h3q25 45 46 87.5t40.5 87.5t37.5 94.5t38 108.5h83q-23 -71 -47.5 -134 t-53 -122.5t-61 -118.5t-69.5 -120h-79l-13 238q-1 26 -2 63.5t1 74.5h-5zM341 572l104 173l71 -25l-130 -167z" />
<glyph unicode="&#x1e84;" horiz-adv-x="694" d="M497 0h-75l-8 314l-6 218h-3l-87 -215l-130 -317h-75v696h84l-6 -265l-8 -251h4l88 211l127 305h75l8 -311l6 -207h4l66 196l119 322h88zM494 748l16 84h78l-16 -84h-78zM327 748l16 84h78l-16 -84h-78z" />
<glyph unicode="&#x1e85;" horiz-adv-x="628" d="M328 376q-19 -58 -37 -106t-38 -91.5t-42.5 -86.5t-49.5 -92h-80l-37 495h83l11 -240q1 -17 1.5 -33t1 -32.5t0.5 -35.5t-1 -41h4q47 85 85.5 181.5t75.5 200.5h90l13 -212q2 -37 2.5 -76t-1.5 -90h3q25 45 46 87.5t40.5 87.5t37.5 94.5t38 108.5h83q-23 -71 -47.5 -134 t-53 -122.5t-61 -118.5t-69.5 -120h-79l-13 238q-1 26 -2 63.5t1 74.5h-5zM415 593l17 84h77l-16 -84h-78zM250 593l17 84h77l-16 -84h-78z" />
<glyph unicode="&#x1ef2;" horiz-adv-x="437" d="M253 386l72 123q27 48 54.5 94t54.5 93h89l-249 -405l-57 -291h-80l57 291q-23 102 -46 202.5t-46 202.5h81l48 -235q4 -14 8.5 -35.5t8.5 -38.5zM318 730l-172 93l40 61l157 -114z" />
<glyph unicode="&#x1ef3;" horiz-adv-x="375" d="M408 495q-30 -89 -57.5 -164t-55.5 -141.5t-57 -126t-63 -115.5q-45 -73 -103.5 -112t-133.5 -38l-3 71q52 7 93.5 33.5t71.5 76.5l-56 516h83l18 -222q4 -43 6.5 -98.5t0.5 -104.5h3q24 44 47 96.5t44.5 108t41.5 112t37 108.5h83zM219 550l-96 171l67 28l72 -180z" />
<glyph unicode="&#x2013;" horiz-adv-x="495" d="M24 230l15 76h455l-15 -76h-455z" />
<glyph unicode="&#x2014;" horiz-adv-x="1000" d="M15 230l15 76h960l-15 -76h-960z" />
<glyph unicode="&#x2015;" horiz-adv-x="990" d="M24 230l15 76h950l-15 -76h-950z" />
<glyph unicode="&#x2018;" horiz-adv-x="223" d="M213 719h47l-50 -112h25l-21 -104h-95l20 102z" />
<glyph unicode="&#x2019;" horiz-adv-x="223" d="M167 503h-48l50 113h-25l21 104h95l-20 -102z" />
<glyph unicode="&#x201a;" horiz-adv-x="223" d="M41 -116h-47l50 112h-25l20 104h95l-20 -102z" />
<glyph unicode="&#x201c;" horiz-adv-x="300" d="M187 719h48l-50 -112h25l-21 -104h-95l20 102zM318 719h47l-50 -112h25l-21 -104h-95l20 102z" />
<glyph unicode="&#x201d;" horiz-adv-x="300" d="M277 503h-47l50 113h-25l21 104h95l-20 -102zM147 503h-48l51 113h-25l20 104h96l-20 -102z" />
<glyph unicode="&#x201e;" horiz-adv-x="353" d="M171 -115h-47l50 112h-25l21 104h95l-20 -102zM41 -115h-47l50 112h-25l21 104h95l-20 -102z" />
<glyph unicode="&#x2020;" horiz-adv-x="408" d="M277 394l-110 -566h-74l110 566h-150l13 68h150l44 224h74l-44 -224h150l-13 -68h-150z" />
<glyph unicode="&#x2021;" horiz-adv-x="412" d="M205 394h-151l13 68h151l44 224h75l-44 -224h152l-13 -68h-152l-42 -214h152l-13 -68h-152l-55 -284h-75l55 284h-151l13 68h151z" />
<glyph unicode="&#x2022;" horiz-adv-x="409" d="M335 268q0 -26 -10 -49.5t-27.5 -41t-41 -27.5t-50.5 -10t-50 10t-40.5 27.5t-27.5 41t-10 49.5t10 49.5t27.5 41t40.5 27.5t50 10t50.5 -10t41 -27.5t27.5 -41t10 -49.5z" />
<glyph unicode="&#x2023;" horiz-adv-x="506" d="M474 277l-393 -211v411z" />
<glyph unicode="&#x2026;" horiz-adv-x="708" d="M28 0l19 101h95l-19 -101h-95zM263 0l19 101h95l-19 -101h-95zM503 0l19 101h95l-19 -101h-95z" />
<glyph unicode="&#x2030;" horiz-adv-x="908" d="M122 -17h-61l512 730h62zM286 382q-10 -50 -38 -78.5t-82 -28.5q-23 0 -44.5 8t-37 23t-22.5 37t-1 50l38 199q10 49 41.5 78t79.5 29q25 0 46.5 -8.5t35.5 -24.5t20 -37.5t1 -47.5zM262 587q5 21 -8.5 37.5t-37.5 16.5q-23 0 -36.5 -14t-17.5 -35l-38 -204 q-5 -23 6 -39.5t39 -16.5q26 0 38 15t16 35zM594 102q-10 -50 -38 -78.5t-82 -28.5q-23 0 -44.5 8t-37 23t-22.5 37t-1 50l38 199q10 49 41.5 78t79.5 29q25 0 46.5 -8.5t35.5 -24.5t20 -37.5t1 -47.5zM570 307q5 21 -8.5 37.5t-37.5 16.5q-23 0 -36.5 -14t-17.5 -35 l-38 -204q-5 -23 6 -39.5t39 -16.5q26 0 38 15t16 35zM850 102q-10 -50 -38 -78.5t-82 -28.5q-23 0 -44.5 8t-37 23t-22.5 37t-1 50l38 199q10 49 41.5 78t79.5 29q25 0 46.5 -8.5t35.5 -24.5t20 -37.5t1 -47.5zM826 307q5 21 -8.5 37.5t-37.5 16.5q-23 0 -36.5 -14 t-17.5 -35l-38 -204q-5 -23 6 -39.5t39 -16.5q26 0 38 15t16 35z" />
<glyph unicode="&#x2039;" horiz-adv-x="279" d="M255 418l-154 -188l81 -184h-77l-82 186l154 186h78z" />
<glyph unicode="&#x203a;" horiz-adv-x="279" d="M13 46l154 188l-81 184h77l82 -186l-154 -186h-78z" />
<glyph unicode="&#x2044;" horiz-adv-x="162" d="M-148 -17h-61l512 730h62z" />
<glyph unicode="&#x2070;" horiz-adv-x="281" d="M286 472q-10 -50 -38 -78.5t-82 -28.5q-23 0 -44.5 8t-37 23t-22.5 37t-1 50l38 199q10 49 41.5 78t79.5 29q25 0 46.5 -8.5t35.5 -24.5t20 -37.5t1 -47.5zM262 677q5 21 -8.5 37.5t-37.5 16.5q-23 0 -36.5 -14t-17.5 -35l-38 -204q-5 -23 6 -39.5t39 -16.5q26 0 38 15 t16 35z" />
<glyph unicode="&#x2074;" horiz-adv-x="285" d="M261 431q-1 -3 -2.5 -12t-3.5 -18.5t-4 -18.5t-2 -13h-62l12 62h-162l12 54l181 301h68l-181 -298h92l22 115h63l-22 -115h35l-11 -57h-35z" />
<glyph unicode="&#x2075;" horiz-adv-x="277" d="M219 647q38 0 60 -19.5t22 -55.5q0 -22 -4 -43t-8 -40q-11 -55 -41 -89.5t-92 -34.5q-54 0 -79.5 27.5t-22.5 75.5l66 8q-5 -23 4.5 -39t33.5 -16q32 0 46 21.5t21 52.5q5 20 8 38.5t3 26.5q0 14 -8 23.5t-31 9.5q-14 0 -30.5 -6t-26.5 -23h-57l44 222h215l-12 -57h-156 l-18 -97h1q25 15 62 15z" />
<glyph unicode="&#x2076;" horiz-adv-x="279" d="M186 605q9 5 19.5 7t15.5 2q22 0 36 -6.5t22 -17t11 -25t3 -30.5q0 -11 -4.5 -38t-14.5 -54q-5 -14 -14 -28.5t-23.5 -25.5t-34 -18t-46.5 -7q-51 0 -75.5 25.5t-24.5 62.5q0 25 10 61t30 65l147 205h66l-124 -177zM190 561q-21 0 -34.5 -11t-20.5 -26q-7 -14 -11 -31.5 t-4 -31.5q0 -17 8 -30t32 -13q21 0 34 10.5t20 24.5q9 20 12.5 41t3.5 31q0 15 -9.5 25.5t-30.5 10.5z" />
<glyph unicode="&#x2077;" horiz-adv-x="254" d="M116 369h-67l203 360h-97l-11 -54h-61l22 111h226l-9 -52z" />
<glyph unicode="&#x2078;" horiz-adv-x="281" d="M230 789q47 0 73.5 -25t26.5 -64q0 -11 -3.5 -28t-10.5 -34.5t-19.5 -32t-30.5 -20.5q19 -11 24 -28.5t5 -31.5t-4 -39t-14 -48q-14 -29 -42.5 -50t-75.5 -21q-21 0 -39.5 6t-33 17t-23 28t-8.5 39q0 7 2.5 25.5t10 39.5t21.5 39.5t37 26.5q-15 7 -21.5 23.5t-6.5 30.5 q0 23 14 67q13 38 43.5 59t74.5 21zM190 561q-22 0 -36 -10.5t-22.5 -25.5t-12 -31t-3.5 -26q0 -7 1.5 -15t6 -15.5t13.5 -12.5t24 -5q21 0 33.5 9.5t17.5 17.5q9 14 14.5 33.5t5.5 33.5q0 20 -9.5 33.5t-32.5 13.5zM225 736q-26 1 -39 -14.5t-19 -35.5q-3 -11 -5 -23 t-2 -20q0 -15 11.5 -23t28.5 -8q25 0 40 14.5t22 35.5q6 18 6 34q0 17 -11.5 28.5t-31.5 11.5z" />
<glyph unicode="&#x2079;" horiz-adv-x="277" d="M195 547q-9 -5 -19.5 -7t-15.5 -2q-22 0 -36 6.5t-22 17t-11 25t-3 30.5q0 11 4 38t14 54q5 14 14 28t23.5 25.5t34.5 18.5t47 7q51 0 75.5 -25.5t24.5 -62.5q0 -25 -10 -61t-30 -65l-147 -205h-66l124 177zM191 591q21 0 34.5 11t20.5 26q7 14 11 31.5t4 31.5 q0 17 -8 30t-32 13q-21 0 -34 -10.5t-20 -24.5q-9 -20 -12.5 -41t-3.5 -31q0 -15 9.5 -25.5t30.5 -10.5z" />
<glyph unicode="&#x207a;" horiz-adv-x="286" d="M220 522l-20 -104h-51l20 104h-110l9 48h110l20 103h51l-20 -103h109l-10 -48h-108z" />
<glyph unicode="&#x207b;" horiz-adv-x="241" d="M83 509l11 53h187l-10 -53h-188z" />
<glyph unicode="&#x207c;" horiz-adv-x="286" d="M46 471l9 50h269l-10 -50h-268zM64 572l10 50h269l-9 -50h-270z" />
<glyph unicode="&#x207d;" horiz-adv-x="163" d="M134 299q-29 43 -46 90.5t-18 100.5q0 47 12.5 90.5t34.5 83t51.5 74.5t61.5 65l32 -19q-29 -32 -53 -68.5t-41 -75.5t-26 -79.5t-9 -79.5q0 -42 10 -82t28 -76z" />
<glyph unicode="&#x207e;" horiz-adv-x="163" d="M7 325q28 31 51.5 66.5t40.5 74.5t26.5 79.5t9.5 81.5t-9.5 81.5t-29.5 76.5l39 18q28 -40 45.5 -87t17.5 -99q1 -47 -12 -91t-35.5 -84t-52 -76t-61.5 -66z" />
<glyph unicode="&#x207f;" horiz-adv-x="304" d="M221 279l41 212q5 24 -3 41t-40 17q-27 0 -45 -18t-24 -45l-42 -207h-63l64 328h64l-5 -30q18 17 40 25t40 8q28 0 45.5 -10.5t26.5 -28t9.5 -39.5t-3.5 -45l-40 -208h-65z" />
<glyph unicode="&#x2080;" horiz-adv-x="281" d="M236 12q-10 -50 -38 -78.5t-82 -28.5q-23 0 -44.5 8t-37 23t-22.5 37t-1 50l38 199q10 49 41.5 78t79.5 29q25 0 46.5 -8.5t35.5 -24.5t20 -37.5t1 -47.5zM212 217q5 21 -8.5 37.5t-37.5 16.5q-23 0 -36.5 -14t-17.5 -35l-38 -204q-5 -23 6 -39.5t39 -16.5q26 0 38 15 t16 35z" />
<glyph unicode="&#x2081;" horiz-adv-x="241" d="M126 -91h-63l68 350q-5 -3 -14.5 -9t-20.5 -13t-21 -13t-14 -8l14 66l71 44h61z" />
<glyph unicode="&#x2082;" horiz-adv-x="279" d="M-14 -91l10 53l184 202q31 35 33 66q1 17 -9 29t-35 12q-46 0 -63 -67l-65 12q16 52 49.5 82t85.5 30q50 0 77.5 -24t24.5 -70q-1 -26 -14 -50.5t-33 -47.5l-154 -167h148l-12 -60h-227z" />
<glyph unicode="&#x2083;" horiz-adv-x="281" d="M274 248q0 -15 -3.5 -33t-11.5 -34.5t-21 -31t-33 -23.5q22 -11 28 -29t6 -32q0 -22 -5.5 -49.5t-20.5 -51.5t-42.5 -40.5t-70.5 -16.5q-41 0 -70.5 19.5t-29.5 63.5v13l62 9v-13q0 -39 42 -39q21 0 35 8.5t22.5 22t12.5 30t4 33.5q0 20 -11.5 33.5t-39.5 13.5h-27l4 20 l7 32h27q35 0 54 24.5t19 58.5q0 15 -9.5 27t-30.5 12q-20 0 -37.5 -12.5t-23.5 -41.5l-61 9q12 51 47.5 75t80.5 24q48 0 72.5 -23t24.5 -58z" />
<glyph unicode="&#x2084;" horiz-adv-x="285" d="M211 -29q-1 -3 -2.5 -12t-3.5 -18.5t-4 -18.5t-2 -13h-62l12 62h-162l12 54l181 301h68l-181 -298h92l22 115h63l-22 -115h35l-11 -57h-35z" />
<glyph unicode="&#x2085;" horiz-adv-x="277" d="M169 187q38 0 60 -19.5t22 -55.5q0 -22 -4 -43t-8 -40q-11 -55 -41 -89.5t-92 -34.5q-54 0 -79.5 27.5t-22.5 75.5l66 8q-5 -23 4.5 -39t33.5 -16q32 0 46 21.5t21 52.5q5 20 8 38.5t3 26.5q0 14 -8 23.5t-31 9.5q-14 0 -30.5 -6t-26.5 -23h-57l44 222h215l-12 -57h-156 l-18 -97h1q25 15 62 15z" />
<glyph unicode="&#x2086;" horiz-adv-x="279" d="M136 145q9 5 19.5 7t15.5 2q22 0 36 -6.5t22 -17t11 -25t3 -30.5q0 -11 -4.5 -38t-14.5 -54q-5 -14 -14 -28.5t-23.5 -25.5t-34 -18t-46.5 -7q-51 0 -75.5 25.5t-24.5 62.5q0 25 10 61t30 65l147 205h66l-124 -177zM140 101q-21 0 -34.5 -11t-20.5 -26q-7 -14 -11 -31.5 t-4 -31.5q0 -17 8 -30t32 -13q21 0 34 10.5t20 24.5q9 20 12.5 41t3.5 31q0 15 -9.5 25.5t-30.5 10.5z" />
<glyph unicode="&#x2087;" horiz-adv-x="254" d="M66 -91h-67l203 360h-97l-11 -54h-61l22 111h226l-9 -52z" />
<glyph unicode="&#x2088;" horiz-adv-x="281" d="M180 329q47 0 73.5 -25t26.5 -64q0 -11 -3.5 -28t-10.5 -34.5t-19.5 -32t-30.5 -20.5q19 -11 24 -28.5t5 -31.5t-4 -39t-14 -48q-14 -29 -42.5 -50t-75.5 -21q-21 0 -39.5 6t-33 17t-23 28t-8.5 39q0 7 2.5 25.5t10 39.5t21.5 39.5t37 26.5q-15 7 -21.5 23.5t-6.5 30.5 q0 23 14 67q13 38 43.5 59t74.5 21zM140 101q-22 0 -36 -10.5t-22.5 -25.5t-12 -31t-3.5 -26q0 -7 1.5 -15t6 -15.5t13.5 -12.5t24 -5q21 0 33.5 9.5t17.5 17.5q9 14 14.5 33.5t5.5 33.5q0 20 -9.5 33.5t-32.5 13.5zM175 276q-26 1 -39 -14.5t-19 -35.5q-3 -11 -5 -23 t-2 -20q0 -15 11.5 -23t28.5 -8q25 0 40 14.5t22 35.5q6 18 6 34q0 17 -11.5 28.5t-31.5 11.5z" />
<glyph unicode="&#x2089;" horiz-adv-x="277" d="M145 87q-9 -5 -19.5 -7t-15.5 -2q-22 0 -36 6.5t-22 17t-11 25t-3 30.5q0 11 4 38t14 54q5 14 14 28t23.5 25.5t34.5 18.5t47 7q51 0 75.5 -25.5t24.5 -62.5q0 -25 -10 -61t-30 -65l-147 -205h-66l124 177zM141 131q21 0 34.5 11t20.5 26q7 14 11 31.5t4 31.5q0 17 -8 30 t-32 13q-21 0 -34 -10.5t-20 -24.5q-9 -20 -12.5 -41t-3.5 -31q0 -15 9.5 -25.5t30.5 -10.5z" />
<glyph unicode="&#x208a;" horiz-adv-x="286" d="M151 63l-20 -104h-51l20 104h-109l9 48h110l20 103h51l-20 -103h108l-9 -48h-109z" />
<glyph unicode="&#x208b;" horiz-adv-x="241" d="M7 50l10 53h188l-10 -53h-188z" />
<glyph unicode="&#x208c;" horiz-adv-x="286" d="M-17 12l9 50h268l-9 -50h-268zM1 113l10 50h269l-10 -50h-269z" />
<glyph unicode="&#x208d;" horiz-adv-x="163" d="M89 -160q-29 42 -45.5 90t-17.5 101q-1 47 12 90.5t35 83t51 74t61 64.5l33 -19q-59 -64 -94.5 -143.5t-34.5 -159.5q0 -41 9.5 -81t28.5 -76z" />
<glyph unicode="&#x208e;" horiz-adv-x="163" d="M-32 -135q27 31 50.5 66.5t41 74.5t27 80t9.5 82q-1 41 -10.5 81t-29.5 77l40 18q28 -41 45 -87.5t18 -98.5q0 -47 -13 -91t-35.5 -84t-52 -76t-61.5 -66z" />
<glyph unicode="&#x20ab;" horiz-adv-x="440" d="M168 122q-45 0 -71 27.5t-26 81.5q0 25 2.5 52.5t7.5 51.5q8 39 20 72.5t31 59t47 40t68 14.5q25 0 46.5 -9.5t32.5 -24.5l16 79h-86l11 55h85l15 74h73q-3 -18 -7 -37t-7 -37h37l-10 -55h-38l-85 -439h-73l6 33q-20 -20 -45 -29t-50 -9zM202 191q26 0 43 14t26 36 q11 26 18 53.5t10 52.5q2 17 3.5 33t-2.5 32q-4 18 -16.5 28.5t-34.5 10.5q-45 -2 -64.5 -37t-30.5 -95q-3 -20 -5 -35t-2 -27q0 -29 10 -47.5t45 -18.5zM329 65l-13 -65h-294l13 65h294z" />
<glyph unicode="&#x20ac;" horiz-adv-x="440" d="M168 378l-11 -59h178l-10 -52h-178l-13 -65q-5 -27 -4 -51t10.5 -42.5t28 -29t47.5 -10.5q44 0 75 25t50 68l77 -28q-26 -66 -80 -103t-129 -37q-50 0 -84 16t-53 44.5t-23.5 67.5t4.5 85l11 60h-39l11 52h38l11 59h-39l11 51h38l10 49q9 44 24.5 84.5t42 71t64.5 49 t91 18.5q78 0 118 -39t46 -102l-82 -26q-2 38 -24 64.5t-62 26.5q-32 0 -55 -12.5t-39 -33t-26 -46t-15 -51.5l-10 -53h178l-10 -51h-178z" />
<glyph unicode="&#x2103;" horiz-adv-x="709" d="M571 701q86 0 129 -42t47 -111l-84 -25q0 45 -24 72t-69 27q-33 0 -55.5 -9.5t-38 -25.5t-25.5 -36t-17 -41q-17 -57 -27.5 -118.5t-22.5 -121.5q-5 -24 -9.5 -50t-4.5 -48t4.5 -40t15.5 -31.5t29 -21t46 -7.5q47 0 82 26.5t52 77.5l80 -31q-26 -73 -81 -112t-136 -39 q-90 0 -133 46.5t-43 119.5q0 19 5 53.5t11 66.5q8 42 17 85t17 85q9 47 24 92t41.5 80.5t67.5 57t102 21.5zM304 584q0 -24 -9.5 -45.5t-25.5 -37.5t-37.5 -25.5t-45.5 -9.5t-45.5 9.5t-37.5 25.5t-25 37.5t-9 45.5t9 45.5t25 37.5t37.5 25.5t45.5 9.5q26 0 47.5 -9.5 t37.5 -25.5t24.5 -37.5t8.5 -45.5zM254 584q0 29 -19.5 48.5t-48.5 19.5q-28 0 -48 -19.5t-20 -48.5t19.5 -49t48.5 -20t48.5 20t19.5 49z" />
<glyph unicode="&#x2105;" horiz-adv-x="676" d="M520 357q50 0 77.5 -24.5t32.5 -62.5q1 -5 1 -18q0 -7 -0.5 -14t-1.5 -14q-1 -17 -2.5 -33.5t-4.5 -31.5q-15 -83 -49.5 -123t-101.5 -40q-54 0 -82 26.5t-30 70.5v3q0 3 0.5 6.5t0.5 8.5q1 19 3.5 38.5t5.5 36.5q7 40 18.5 71.5t29.5 53.5t43 34t60 12zM199 342 q-46 0 -70.5 21t-31.5 53q-3 16 -3 40q0 19 2 38.5t5 36.5q8 40 20 72t31 54.5t45.5 34.5t63.5 12q70 0 92 -58q3 -6 4.5 -12.5t3.5 -13.5q-15 -8 -30.5 -14.5t-31.5 -14.5q-3 12 -9 21q-11 27 -37 27q-28 0 -47 -21q-9 -7 -16.5 -22t-13 -34t-9.5 -40.5t-5 -41.5 q0 -4 -0.5 -7.5t-0.5 -6.5q0 -15 4 -30t19 -18q13 -8 27 -8q3 0 5.5 0.5t5.5 0.5q14 4 28 16.5t24 26.5q13 -8 25.5 -15.5t26.5 -15.5q-41 -81 -127 -81zM125 -17h-58l512 730h58zM515 294q-13 0 -24.5 -5t-19.5 -16q-9 -8 -16.5 -25.5t-13 -39t-9.5 -45t-5 -43.5v-12t1 -11 q2 -16 13 -26t30 -10h8t8 2q18 3 32 17q10 9 17.5 26t13 38t9 43.5t4.5 42.5q0 32 -11 48t-37 16z" />
<glyph unicode="&#x2109;" horiz-adv-x="680" d="M466 619l-44 -232h242l-15 -75h-242l-60 -312h-83l135 696h365l-16 -77h-282zM303 584q0 -24 -9.5 -45.5t-25.5 -37.5t-37.5 -25.5t-45.5 -9.5t-45.5 9.5t-37.5 25.5t-25 37.5t-9 45.5t9 45.5t25 37.5t37.5 25.5t45.5 9.5q26 0 47.5 -9.5t37.5 -25.5t24.5 -37.5 t8.5 -45.5zM253 584q0 29 -19.5 48.5t-48.5 19.5q-28 0 -48 -19.5t-20 -48.5t19.5 -49t48.5 -20t48.5 20t19.5 49z" />
<glyph unicode="&#x2113;" horiz-adv-x="406" d="M362 143q-33 -70 -79.5 -111.5t-95.5 -41.5q-55 0 -81.5 34.5t-26.5 85.5q0 5 0.5 11t2 16.5t4.5 27.5t8 43q-3 -2 -10.5 -7.5t-16 -11.5t-16 -11.5t-9.5 -6.5l-17 37l80 60l44 225q12 60 29.5 101.5t39.5 67.5t47 37.5t52 11.5q32 0 55.5 -22.5t23.5 -67.5 q0 -51 -17.5 -96t-48.5 -88.5t-73.5 -88.5t-91.5 -97q-7 -36 -12.5 -70t-5.5 -46q0 -45 17.5 -61.5t38.5 -16.5q55 0 112 107zM180 329q32 40 60.5 76.5t50.5 71t34.5 67.5t12.5 66q0 17 -7.5 31t-27.5 14q-22 0 -47.5 -34.5t-40.5 -110.5z" />
<glyph unicode="&#x2116;" horiz-adv-x="790" d="M528 268l12 58h227l-12 -58h-227zM335 0l-97 366l-35 139h-3l-98 -505h-83l134 696h81l97 -361l34 -143l4 1l98 503h83l-135 -696h-80zM710 699q56 0 84 -29.5t28 -71.5q0 -20 -3.5 -43t-8.5 -42q-15 -69 -47.5 -108.5t-98.5 -39.5q-29 0 -49 8t-32.5 21.5t-18 31.5 t-5.5 37q0 26 3.5 49t8.5 43q8 31 18.5 57.5t24.5 43.5q16 20 40 31.5t56 11.5zM709 643q-23 0 -42 -17q-11 -11 -18.5 -28t-13.5 -37q-6 -22 -10.5 -46.5t-4.5 -40.5q0 -10 1.5 -19t7 -16.5t15 -12t25.5 -4.5q23 0 38 13t23 34q11 29 20 65t9 61q0 24 -14.5 36t-35.5 12z " />
<glyph unicode="&#x2117;" horiz-adv-x="753" d="M530 412q0 -25 -7 -48t-22 -41t-39 -29t-58 -11h-69v-169h-60v429h128q60 0 93.5 -32t33.5 -99zM469 413q0 34 -16 54t-52 20h-66v-147h67q39 0 53 23t14 50zM377 -8q-75 0 -135.5 26.5t-103 73.5t-65 110.5t-22.5 138.5t23 139.5t65.5 111.5t103 73.5t134.5 26.5 q73 0 133 -26.5t103 -73.5t66 -111.5t23 -139.5t-23 -138.5t-66 -110.5t-103 -73.5t-133 -26.5zM377 636q-62 0 -111 -23t-83.5 -62.5t-53 -93.5t-18.5 -116t19 -115t54 -93t84 -62.5t109 -22.5q61 0 110 22.5t83.5 62.5t53 93t18.5 115t-19 116t-53.5 93.5t-83.5 62.5 t-109 23z" />
<glyph unicode="&#x2122;" horiz-adv-x="757" d="M637 536q-4 -6 -7.5 -12t-6.5 -12l-68 -151h-53l-81 176h-1v-241h-62v399h62l111 -248l109 248h61v-399h-63q0 60 -0.5 120t-0.5 120zM204 638v-341h-63v341h-104v58h271v-58h-104z" />
<glyph unicode="&#x2126;" horiz-adv-x="491" d="M82 78q-22 17 -30.5 41.5t-8.5 54.5q0 16 2.5 40t8.5 58l31 161q5 29 13 58t19 60q25 69 79 110t134 41q44 0 76.5 -13t54 -35.5t32 -54.5t10.5 -69q0 -10 -2 -34.5t-7 -48.5q-6 -34 -13.5 -71.5t-15.5 -79.5q-5 -29 -12 -59.5t-17 -62.5q-11 -31 -27.5 -54.5 t-39.5 -40.5v-1h67l-15 -78h-172l19 92q26 8 45 26t30 42q13 33 22 65t15 63l31 158q5 20 6.5 36t1.5 33q0 46 -23.5 78.5t-78.5 32.5q-42 0 -71.5 -21.5t-44.5 -53.5q-22 -57 -32 -109l-37 -191q-5 -20 -6.5 -35.5t-1.5 -26.5q0 -31 12 -58.5t44 -38.5l-18 -92h-171 q4 19 7 38.5t7 39.5h77v0z" />
<glyph unicode="&#x212b;" horiz-adv-x="491" d="M360 0l-11 158h-221l-73 -158h-87l335 696h75l65 -696h-83zM330 413l-11 159h-3l-69 -157l-86 -182h183zM345 702q-35 0 -57 22t-22 55q0 22 9 42t24.5 35.5t36 24.5t44.5 9q35 0 57 -22t22 -55q0 -24 -10 -44.5t-26 -35.5t-36.5 -23t-41.5 -8zM371 847 q-24 0 -42.5 -18.5t-18.5 -42.5q0 -19 11.5 -30.5t30.5 -11.5q24 0 43 18t19 44q0 17 -12 29t-31 12z" />
<glyph unicode="&#x212e;" horiz-adv-x="817" d="M195 316q0 -45 0.5 -92t0.5 -92q16 -26 40 -47t52.5 -36t60.5 -23.5t64 -8.5q66 0 123 29t97 79h62q-51 -63 -125 -99.5t-158 -36.5q-72 0 -136 27t-112 73.5t-75.5 108.5t-27.5 131t27.5 129.5t75.5 105.5t112 71t136 26q74 0 137 -26t109.5 -71.5t74 -109t30.5 -138.5 h-568zM627 521q-15 25 -39 46t-52.5 35.5t-60.5 22.5t-62 8q-57 0 -114.5 -31.5t-102.5 -84.5v-40t-0.5 -47.5t-0.5 -48v-39.5h432v179z" />
<glyph unicode="&#x2153;" horiz-adv-x="640" d="M627 338q0 -15 -3.5 -33t-11.5 -34.5t-21 -31t-33 -23.5q22 -11 28 -29t6 -32q0 -22 -5.5 -49.5t-20.5 -51.5t-42.5 -40.5t-70.5 -16.5q-41 0 -70.5 19.5t-29.5 63.5v13l62 9v-13q0 -39 42 -39q21 0 35 8.5t22.5 22t12.5 30t4 33.5q0 20 -11.5 33.5t-39.5 13.5h-27l4 20 l7 32h27q35 0 54 24.5t19 58.5q0 15 -9.5 27t-30.5 12q-20 0 -37.5 -12.5t-23.5 -41.5l-61 9q12 51 47.5 75t80.5 24q48 0 72.5 -23t24.5 -58zM90 -17h-61l512 730h62zM189 279h-63l68 350q-5 -3 -14.5 -9t-20.5 -13t-21 -13t-14 -8l14 66l71 44h61z" />
<glyph unicode="&#x2154;" horiz-adv-x="640" d="M24 279l10 53l184 202q31 35 33 66q1 17 -9 29t-35 12q-46 0 -63 -67l-65 12q16 52 49.5 82t85.5 30q50 0 77.5 -24t24.5 -70q-1 -26 -14 -50.5t-33 -47.5l-154 -167h148l-12 -60h-227zM629 338q0 -15 -3.5 -33t-11.5 -34.5t-21 -31t-33 -23.5q22 -11 28 -29t6 -32 q0 -22 -5.5 -49.5t-20.5 -51.5t-42.5 -40.5t-70.5 -16.5q-41 0 -70.5 19.5t-29.5 63.5v13l62 9v-13q0 -39 42 -39q21 0 35 8.5t22.5 22t12.5 30t4 33.5q0 20 -11.5 33.5t-39.5 13.5h-27l4 20l7 32h27q35 0 54 24.5t19 58.5q0 15 -9.5 27t-30.5 12q-20 0 -37.5 -12.5 t-23.5 -41.5l-61 9q12 51 47.5 75t80.5 24q48 0 72.5 -23t24.5 -58zM121 -17h-61l512 730h62z" />
<glyph unicode="&#x2155;" horiz-adv-x="640" d="M518 277q38 0 60 -19.5t22 -55.5q0 -22 -4 -43t-8 -40q-11 -55 -41 -89.5t-92 -34.5q-54 0 -79.5 27.5t-22.5 75.5l66 8q-5 -23 4.5 -39t33.5 -16q32 0 46 21.5t21 52.5q5 20 8 38.5t3 26.5q0 14 -8 23.5t-31 9.5q-14 0 -30.5 -6t-26.5 -23h-57l44 222h215l-12 -57h-156 l-18 -97h1q25 15 62 15zM77 -17h-61l512 730h62zM182 279h-63l68 350q-5 -3 -14.5 -9t-20.5 -13t-21 -13t-14 -8l14 66l71 44h61z" />
<glyph unicode="&#x2156;" horiz-adv-x="640" d="M536 277q38 0 60 -19.5t22 -55.5q0 -22 -4 -43t-8 -40q-11 -55 -41 -89.5t-92 -34.5q-54 0 -79.5 27.5t-22.5 75.5l66 8q-5 -23 4.5 -39t33.5 -16q32 0 46 21.5t21 52.5q5 20 8 38.5t3 26.5q0 14 -8 23.5t-31 9.5q-14 0 -30.5 -6t-26.5 -23h-57l44 222h215l-12 -57h-156 l-18 -97h1q25 15 62 15zM17 279l10 53l184 202q31 35 33 66q1 17 -9 29t-35 12q-46 0 -63 -67l-65 12q16 52 49.5 82t85.5 30q50 0 77.5 -24t24.5 -70q-1 -26 -14 -50.5t-33 -47.5l-154 -167h148l-12 -60h-227zM113 -17h-61l512 730h62z" />
<glyph unicode="&#x2157;" horiz-adv-x="640" d="M531 277q38 0 60 -19.5t22 -55.5q0 -22 -4 -43t-8 -40q-11 -55 -41 -89.5t-92 -34.5q-54 0 -79.5 27.5t-22.5 75.5l66 8q-5 -23 4.5 -39t33.5 -16q32 0 46 21.5t21 52.5q5 20 8 38.5t3 26.5q0 14 -8 23.5t-31 9.5q-14 0 -30.5 -6t-26.5 -23h-57l44 222h215l-12 -57h-156 l-18 -97h1q25 15 62 15zM309 618q0 -15 -3.5 -33t-11.5 -34.5t-21 -31t-33 -23.5q22 -11 28 -29t6 -32q0 -22 -5.5 -49.5t-20.5 -51.5t-42.5 -40.5t-70.5 -16.5q-41 0 -70.5 19.5t-29.5 63.5v13l62 9v-13q0 -39 42 -39q21 0 35 8.5t22.5 22t12.5 30t4 33.5q0 20 -11.5 33.5 t-39.5 13.5h-27l4 20l7 32h27q35 0 54 24.5t19 58.5q0 15 -9.5 27t-30.5 12q-20 0 -37.5 -12.5t-23.5 -41.5l-61 9q12 51 47.5 75t80.5 24q48 0 72.5 -23t24.5 -58zM100 -17h-61l512 730h62z" />
<glyph unicode="&#x2158;" horiz-adv-x="640" d="M541 277q38 0 60 -19.5t22 -55.5q0 -22 -4 -43t-8 -40q-11 -55 -41 -89.5t-92 -34.5q-54 0 -79.5 27.5t-22.5 75.5l66 8q-5 -23 4.5 -39t33.5 -16q32 0 46 21.5t21 52.5q5 20 8 38.5t3 26.5q0 14 -8 23.5t-31 9.5q-14 0 -30.5 -6t-26.5 -23h-57l44 222h215l-12 -57h-156 l-18 -97h1q25 15 62 15zM250 341q-1 -3 -2.5 -12t-3.5 -18.5t-4 -18.5t-2 -13h-62l12 62h-162l12 54l181 301h68l-181 -298h92l22 115h63l-22 -115h35l-11 -57h-35zM121 -17h-61l512 730h62z" />
<glyph unicode="&#x2159;" horiz-adv-x="640" d="M106 -17h-61l512 730h62zM193 279h-63l68 350q-5 -3 -14.5 -9t-20.5 -13t-21 -13t-14 -8l14 66l71 44h61zM468 235q9 5 19.5 7t15.5 2q22 0 36 -6.5t22 -17t11 -25t3 -30.5q0 -11 -4.5 -38t-14.5 -54q-5 -14 -14 -28.5t-23.5 -25.5t-34 -18t-46.5 -7q-51 0 -75.5 25.5 t-24.5 62.5q0 25 10 61t30 65l147 205h66l-124 -177zM472 191q-21 0 -34.5 -11t-20.5 -26q-7 -14 -11 -31.5t-4 -31.5q0 -17 8 -30t32 -13q21 0 34 10.5t20 24.5q9 20 12.5 41t3.5 31q0 15 -9.5 25.5t-30.5 10.5z" />
<glyph unicode="&#x215a;" horiz-adv-x="640" d="M473 235q9 5 19.5 7t15.5 2q22 0 36 -6.5t22 -17t11 -25t3 -30.5q0 -11 -4.5 -38t-14.5 -54q-5 -14 -14 -28.5t-23.5 -25.5t-34 -18t-46.5 -7q-51 0 -75.5 25.5t-24.5 62.5q0 25 10 61t30 65l147 205h66l-124 -177zM221 557q38 0 60 -19.5t22 -55.5q0 -22 -4 -43t-8 -40 q-11 -55 -41 -89.5t-92 -34.5q-54 0 -79.5 27.5t-22.5 75.5l66 8q-5 -23 4.5 -39t33.5 -16q32 0 46 21.5t21 52.5q5 20 8 38.5t3 26.5q0 14 -8 23.5t-31 9.5q-14 0 -30.5 -6t-26.5 -23h-57l44 222h215l-12 -57h-156l-18 -97h1q25 15 62 15zM132 -17h-61l512 730h62zM477 191 q-21 0 -34.5 -11t-20.5 -26q-7 -14 -11 -31.5t-4 -31.5q0 -17 8 -30t32 -13q21 0 34 10.5t20 24.5q9 20 12.5 41t3.5 31q0 15 -9.5 25.5t-30.5 10.5z" />
<glyph unicode="&#x215b;" horiz-adv-x="640" d="M89 -17h-61l512 730h62zM190 279h-63l68 350q-5 -3 -14.5 -9t-20.5 -13t-21 -13t-14 -8l14 66l71 44h61zM521 419q47 0 73.5 -25t26.5 -64q0 -11 -3.5 -28t-10.5 -34.5t-19.5 -32t-30.5 -20.5q19 -11 24 -28.5t5 -31.5t-4 -39t-14 -48q-14 -29 -42.5 -50t-75.5 -21 q-21 0 -39.5 6t-33 17t-23 28t-8.5 39q0 7 2.5 25.5t10 39.5t21.5 39.5t37 26.5q-15 7 -21.5 23.5t-6.5 30.5q0 23 14 67q13 38 43.5 59t74.5 21zM481 191q-22 0 -36 -10.5t-22.5 -25.5t-12 -31t-3.5 -26q0 -7 1.5 -15t6 -15.5t13.5 -12.5t24 -5q21 0 33.5 9.5t17.5 17.5 q9 14 14.5 33.5t5.5 33.5q0 20 -9.5 33.5t-32.5 13.5zM516 366q-26 1 -39 -14.5t-19 -35.5q-3 -11 -5 -23t-2 -20q0 -15 11.5 -23t28.5 -8q25 0 40 14.5t22 35.5q6 18 6 34q0 17 -11.5 28.5t-31.5 11.5z" />
<glyph unicode="&#x215c;" horiz-adv-x="640" d="M535 419q47 0 73.5 -25t26.5 -64q0 -11 -3.5 -28t-10.5 -34.5t-19.5 -32t-30.5 -20.5q19 -11 24 -28.5t5 -31.5t-4 -39t-14 -48q-14 -29 -42.5 -50t-75.5 -21q-21 0 -39.5 6t-33 17t-23 28t-8.5 39q0 7 2.5 25.5t10 39.5t21.5 39.5t37 26.5q-15 7 -21.5 23.5t-6.5 30.5 q0 23 14 67q13 38 43.5 59t74.5 21zM310 618q0 -15 -3.5 -33t-11.5 -34.5t-21 -31t-33 -23.5q22 -11 28 -29t6 -32q0 -22 -5.5 -49.5t-20.5 -51.5t-42.5 -40.5t-70.5 -16.5q-41 0 -70.5 19.5t-29.5 63.5v13l62 9v-13q0 -39 42 -39q21 0 35 8.5t22.5 22t12.5 30t4 33.5 q0 20 -11.5 33.5t-39.5 13.5h-27l4 20l7 32h27q35 0 54 24.5t19 58.5q0 15 -9.5 27t-30.5 12q-20 0 -37.5 -12.5t-23.5 -41.5l-61 9q12 51 47.5 75t80.5 24q48 0 72.5 -23t24.5 -58zM112 -17h-61l512 730h62zM495 191q-22 0 -36 -10.5t-22.5 -25.5t-12 -31t-3.5 -26 q0 -7 1.5 -15t6 -15.5t13.5 -12.5t24 -5q21 0 33.5 9.5t17.5 17.5q9 14 14.5 33.5t5.5 33.5q0 20 -9.5 33.5t-32.5 13.5zM530 366q-26 1 -39 -14.5t-19 -35.5q-3 -11 -5 -23t-2 -20q0 -15 11.5 -23t28.5 -8q25 0 40 14.5t22 35.5q6 18 6 34q0 17 -11.5 28.5t-31.5 11.5z" />
<glyph unicode="&#x215d;" horiz-adv-x="640" d="M537 419q47 0 73.5 -25t26.5 -64q0 -11 -3.5 -28t-10.5 -34.5t-19.5 -32t-30.5 -20.5q19 -11 24 -28.5t5 -31.5t-4 -39t-14 -48q-14 -29 -42.5 -50t-75.5 -21q-21 0 -39.5 6t-33 17t-23 28t-8.5 39q0 7 2.5 25.5t10 39.5t21.5 39.5t37 26.5q-15 7 -21.5 23.5t-6.5 30.5 q0 23 14 67q13 38 43.5 59t74.5 21zM219 557q38 0 60 -19.5t22 -55.5q0 -22 -4 -43t-8 -40q-11 -55 -41 -89.5t-92 -34.5q-54 0 -79.5 27.5t-22.5 75.5l66 8q-5 -23 4.5 -39t33.5 -16q32 0 46 21.5t21 52.5q5 20 8 38.5t3 26.5q0 14 -8 23.5t-31 9.5q-14 0 -30.5 -6 t-26.5 -23h-57l44 222h215l-12 -57h-156l-18 -97h1q25 15 62 15zM117 -17h-61l512 730h62zM497 191q-22 0 -36 -10.5t-22.5 -25.5t-12 -31t-3.5 -26q0 -7 1.5 -15t6 -15.5t13.5 -12.5t24 -5q21 0 33.5 9.5t17.5 17.5q9 14 14.5 33.5t5.5 33.5q0 20 -9.5 33.5t-32.5 13.5z M532 366q-26 1 -39 -14.5t-19 -35.5q-3 -11 -5 -23t-2 -20q0 -15 11.5 -23t28.5 -8q25 0 40 14.5t22 35.5q6 18 6 34q0 17 -11.5 28.5t-31.5 11.5z" />
<glyph unicode="&#x215e;" horiz-adv-x="640" d="M84 -17h-61l512 730h62zM146 279h-67l203 360h-97l-11 -54h-61l22 111h226l-9 -52zM516 419q47 0 73.5 -25t26.5 -64q0 -11 -3.5 -28t-10.5 -34.5t-19.5 -32t-30.5 -20.5q19 -11 24 -28.5t5 -31.5t-4 -39t-14 -48q-14 -29 -42.5 -50t-75.5 -21q-21 0 -39.5 6t-33 17 t-23 28t-8.5 39q0 7 2.5 25.5t10 39.5t21.5 39.5t37 26.5q-15 7 -21.5 23.5t-6.5 30.5q0 23 14 67q13 38 43.5 59t74.5 21zM476 191q-22 0 -36 -10.5t-22.5 -25.5t-12 -31t-3.5 -26q0 -7 1.5 -15t6 -15.5t13.5 -12.5t24 -5q21 0 33.5 9.5t17.5 17.5q9 14 14.5 33.5t5.5 33.5 q0 20 -9.5 33.5t-32.5 13.5zM511 366q-26 1 -39 -14.5t-19 -35.5q-3 -11 -5 -23t-2 -20q0 -15 11.5 -23t28.5 -8q25 0 40 14.5t22 35.5q6 18 6 34q0 17 -11.5 28.5t-31.5 11.5z" />
<glyph unicode="&#x215f;" horiz-adv-x="400" d="M90 -17h-61l512 730h62zM191 279h-63l68 350q-5 -3 -14.5 -9t-20.5 -13t-21 -13t-14 -8l14 66l71 44h61z" />
<glyph unicode="&#x2190;" horiz-adv-x="840" d="M779 353v-64l-577 1l146 -145l-46 -45l-220 221l220 222l46 -45l-146 -145h577z" />
<glyph unicode="&#x2191;" horiz-adv-x="485" d="M279 1h-64v573l-144 -142l-45 46l221 220l222 -220l-45 -46l-145 142v-573z" />
<glyph unicode="&#x2192;" horiz-adv-x="840" d="M660 353l-146 145l46 45l220 -222l-220 -221l-46 45l146 145l-577 -1v64h577z" />
<glyph unicode="&#x2193;" horiz-adv-x="485" d="M279 122l145 146l45 -46l-222 -220l-221 220l45 46l145 -146v577h63v-577z" />
<glyph unicode="&#x2196;" horiz-adv-x="840" d="M231 581l535 -536l-44 -45l-535 536l1 -205h-65v312l313 1v-63h-205z" />
<glyph unicode="&#x2198;" horiz-adv-x="840" d="M657 63l-535 536l44 45l535 -536l-1 205h65l-1 -312l-312 -1l-1 63h206z" />
<glyph unicode="&#x21a9;" horiz-adv-x="840" d="M154 353h485q55 0 77.5 31t22.5 77v80q0 45 -23.5 69.5t-76.5 24.5h-74v62h79q44 0 74.5 -12t49 -33.5t27 -51t8.5 -63.5v-76q0 -78 -42 -125t-130 -47l-477 1l146 -145l-46 -45l-220 221l220 222l46 -45z" />
<glyph unicode="&#x21aa;" horiz-adv-x="828" d="M538 498l46 45l220 -222l-220 -221l-46 45l146 145l-477 -1q-88 0 -130 47t-42 125v76q0 34 8.5 63.5t27 51t49 33.5t74.5 12h79v-62h-74q-53 0 -76.5 -24.5t-23.5 -69.5v-80q0 -23 5 -42.5t17 -34t31 -23t47 -8.5h485z" />
<glyph unicode="&#x21b3;" horiz-adv-x="840" d="M177 353h511l-146 145l46 45l220 -222l-220 -221l-46 45l146 145l-576 -1v403h65v-339z" />
<glyph unicode="&#x21b5;" horiz-adv-x="840" d="M713 692h65v-403l-576 1l146 -145l-46 -45l-220 221l220 222l46 -45l-146 -145h511v339z" />
<glyph unicode="&#x21de;" horiz-adv-x="485" d="M280 376h110v-64h-110v-76h110v-64h-110v-172h-65v172h-110v64h110v76h-110v64h110v198l-144 -142l-45 46l221 220l222 -220l-45 -46l-144 142v-198z" />
<glyph unicode="&#x21df;" horiz-adv-x="485" d="M279 121l145 145l45 -46l-222 -220l-221 220l45 46l145 -145l-1 201h-110v64h110v76h-110v64h110v172h65v-172h110v-64h-110v-76h110v-64h-110z" />
<glyph unicode="&#x21e0;" horiz-adv-x="840" d="M381 353h80v-64h-80v64zM529 353h81v-64h-81v64zM678 353h81v-64h-81v64zM314 353v-64l-133 1l148 -145l-46 -45l-220 221l220 222l46 -45l-148 -145h133z" />
<glyph unicode="&#x21e1;" horiz-adv-x="485" d="M277 379v-80h-64v80h64zM277 231v-81h-64v81h64zM277 82v-81h-64v81h64zM277 446h-64l1 131l-145 -146l-45 46l221 220l222 -220l-45 -46l-145 146v-131z" />
<glyph unicode="&#x21e2;" horiz-adv-x="840" d="M441 289h-80v64h80v-64zM293 289h-81v64h81v-64zM144 289h-81v64h81v-64zM641 353l-148 145l46 45l220 -222l-220 -221l-46 45l148 145l-133 -1v64h133z" />
<glyph unicode="&#x21e3;" horiz-adv-x="485" d="M213 319v80h64v-80h-64zM213 467v81h64v-81h-64zM213 616v81h64v-81h-64zM277 121l145 146l45 -46l-222 -220l-221 220l45 46l145 -146l-1 131h64v-131z" />
<glyph unicode="&#x21e4;" horiz-adv-x="840" d="M75 104v435h65v-435h-65zM816 353v-64l-493 1l146 -145l-46 -45l-220 221l220 222l46 -45l-146 -145h493z" />
<glyph unicode="&#x21e5;" horiz-adv-x="840" d="M752 104v435h65v-435h-65zM569 353l-146 145l46 45l220 -222l-220 -221l-46 45l146 145l-493 -1v64h493z" />
<glyph unicode="&#x21e7;" horiz-adv-x="840" d="M55 318l370 379l370 -379h-185v-318h-370v318h-185zM425 621l-246 -255h115v-313h263v313h114z" />
<glyph unicode="&#x21ea;" horiz-adv-x="840" d="M230 0h370v-188h-370v188zM284 -53v-81h263v81h-263zM45 318l370 379l370 -379h-185v-217h-370v217h-185zM415 621l-246 -255h115v-210h263v210h114z" />
<glyph unicode="&#x2202;" horiz-adv-x="424" d="M242 444q31 0 59.5 -12.5t53.5 -47.5q9 54 9 98q0 81 -28.5 125.5t-86.5 44.5q-16 0 -28.5 -2t-29.5 -7l14 68q31 10 64 10q45 0 76 -18.5t50.5 -50t28.5 -74t9 -91.5q-3 -114 -27.5 -206t-62.5 -156.5t-86.5 -99.5t-98.5 -35q-62 0 -96 41.5t-34 114.5q0 67 19 122 t49.5 94t69 60.5t76.5 21.5zM234 377q-30 0 -55 -21t-43 -52.5t-28 -68.5t-10 -70q0 -50 20 -76.5t56 -26.5q31 0 57.5 21.5t47 55t36 75.5t24.5 83q-24 47 -52 63.5t-53 16.5z" />
<glyph unicode="&#x2207;" horiz-adv-x="491" d="M572 696q-83 -175 -166 -348t-167 -348h-75l-64 696h472zM228 142q14 29 33 70.5t41 89.5q4 9 16 34t27 58t32 69t32.5 68.5t27 56.5t15.5 33h-264l26 -324q0 -7 1.5 -29.5t3.5 -48t3.5 -48t2.5 -29.5h3z" />
<glyph unicode="&#x220f;" horiz-adv-x="525" d="M320 -83l138 706h-229l-138 -706h-83l152 779h396l-152 -779h-84z" />
<glyph unicode="&#x2211;" horiz-adv-x="408" d="M-31 -81l14 73l195 315l-73 320l14 69h351l-15 -76h-260l74 -313l-194 -310h271l-15 -78h-362z" />
<glyph unicode="&#x2212;" horiz-adv-x="440" d="M29 263l12 62h402l-12 -62h-402z" />
<glyph unicode="&#x221a;" horiz-adv-x="453" d="M224 -81h-60l-47 412q-3 -2 -12 -5.5t-19 -7t-18.5 -6.5t-11.5 -4l-7 58l126 46l40 -362q10 30 32.5 89t50.5 131.5t59 153t59 153t50 131.5t32 89h66z" />
<glyph unicode="&#x221e;" horiz-adv-x="700" d="M190 425q27 0 50.5 -10t44 -25.5t37.5 -35t30 -38.5q17 22 34.5 42t38 35t44 23.5t52.5 8.5q31 0 56.5 -11t44 -31t28.5 -47t10 -60q0 -30 -11 -57.5t-30.5 -47.5t-46.5 -32t-59 -12q-25 0 -47.5 9.5t-42.5 24.5t-37.5 34t-33.5 39q-18 -21 -35.5 -40.5t-38 -34.5 t-44 -23.5t-52.5 -8.5q-30 0 -56 11t-44.5 30.5t-29 47t-10.5 60.5q0 30 11.5 57t31 47.5t46.5 32.5t59 12zM190 364q-18 0 -34 -7t-28 -19t-19 -28t-7 -34q0 -39 25 -63.5t61 -24.5q40 0 71 25t53 62q-9 15 -22 31t-28.5 29t-33.5 21t-38 8zM517 364q-40 0 -69 -25t-58 -63 q28 -35 56 -61.5t69 -26.5q18 0 33.5 7t27 19t18 28t6.5 34q0 38 -24 63t-59 25z" />
<glyph unicode="&#x2227;" horiz-adv-x="475" d="M398 0h-71l-49 417l-210 -417h-70l269 523h63z" />
<glyph unicode="&#x2228;" horiz-adv-x="475" d="M499 523l-270 -523h-63l-67 523h70l48 -419l211 419h71z" />
<glyph unicode="&#x2229;" horiz-adv-x="475" d="M397 0h-72l60 307q5 27 3.5 53.5t-12 48t-32.5 35t-59 13.5q-36 0 -63.5 -13t-46.5 -34t-30.5 -48t-16.5 -55l-60 -307h-68l59 307q8 41 25 80t45 69t68.5 48t95.5 18q54 0 89.5 -17.5t55 -47t23.5 -68.5t-4 -82z" />
<glyph unicode="&#x222a;" horiz-adv-x="475" d="M439 215q-8 -43 -26 -82t-46.5 -68.5t-69.5 -47t-95 -17.5q-55 0 -90 18t-53.5 48t-22 69t4.5 80l60 307h68l-59 -307q-6 -28 -5 -55t12 -48t33.5 -33.5t58.5 -12.5q37 0 64 13.5t46.5 34.5t31 47.5t16.5 53.5l59 307h72z" />
<glyph unicode="&#x222b;" horiz-adv-x="316" d="M96 79q14 62 32 157t43 215q14 74 30 139q23 95 60.5 139t103.5 44q14 0 32 -3t33 -8l-18 -58q-26 6 -42 6q-20 0 -36 -8t-29 -27t-24.5 -51t-22.5 -80q-7 -30 -15.5 -72t-17.5 -88.5t-18 -94.5t-17 -90q-8 -44 -17 -87t-20 -79q-14 -51 -29.5 -85.5t-35.5 -56.5 t-45.5 -31.5t-58.5 -9.5q-14 0 -30 2.5t-30 7.5l18 56q14 -3 23 -4t17 -1q19 0 35 7.5t29.5 26.5t25.5 51.5t24 82.5z" />
</font>
</defs>
</svg>
